<mxfile host="app.diagrams.net" agent="Mozilla/5.0 (Windows NT 10.0; Win64; x64) AppleWebKit/537.36 (KHTML, like Gecko) Chrome/132.0.0.0 Safari/537.36" version="26.0.6">
  <diagram name="Page-1" id="5XFXGHag5ORdxM8ENK9-">
    <mxGraphModel dx="4033" dy="2336" grid="1" gridSize="10" guides="1" tooltips="1" connect="1" arrows="1" fold="1" page="1" pageScale="1" pageWidth="850" pageHeight="1100" math="0" shadow="0">
      <root>
        <mxCell id="0" />
        <mxCell id="1" parent="0" />
        <mxCell id="9pm-4QH1z8hACaXUIANB-106" value="" style="rounded=0;whiteSpace=wrap;html=1;fillColor=#dae8fc;strokeWidth=7;fillStyle=auto;strokeColor=#6c8ebf;" vertex="1" parent="1">
          <mxGeometry x="-1230" y="180" width="2470" height="1190" as="geometry" />
        </mxCell>
        <mxCell id="9pm-4QH1z8hACaXUIANB-109" value="" style="rounded=0;whiteSpace=wrap;html=1;fillColor=#ffe6cc;strokeWidth=7;fillStyle=auto;strokeColor=#d79b00;" vertex="1" parent="1">
          <mxGeometry x="-110" y="-540" width="741.5" height="720" as="geometry" />
        </mxCell>
        <mxCell id="9pm-4QH1z8hACaXUIANB-102" value="" style="rounded=0;whiteSpace=wrap;html=1;fillColor=#e1d5e7;strokeWidth=7;fillStyle=auto;strokeColor=#9673a6;" vertex="1" parent="1">
          <mxGeometry x="124" y="460" width="666" height="790" as="geometry" />
        </mxCell>
        <mxCell id="9pm-4QH1z8hACaXUIANB-99" value="" style="rounded=0;whiteSpace=wrap;html=1;fillColor=#e1d5e7;strokeWidth=7;fillStyle=auto;strokeColor=#9673a6;" vertex="1" parent="1">
          <mxGeometry x="-230" y="290" width="320" height="960" as="geometry" />
        </mxCell>
        <mxCell id="9pm-4QH1z8hACaXUIANB-95" value="" style="rounded=0;whiteSpace=wrap;html=1;fillColor=#e1d5e7;strokeWidth=7;fillStyle=auto;strokeColor=#9673a6;" vertex="1" parent="1">
          <mxGeometry x="-1110" y="290" width="830" height="960" as="geometry" />
        </mxCell>
        <mxCell id="9pm-4QH1z8hACaXUIANB-19" style="edgeStyle=orthogonalEdgeStyle;rounded=0;orthogonalLoop=1;jettySize=auto;html=1;entryX=0.5;entryY=1;entryDx=0;entryDy=0;startArrow=classic;startFill=1;strokeWidth=3;" edge="1" parent="1" source="9pm-4QH1z8hACaXUIANB-1" target="9pm-4QH1z8hACaXUIANB-2">
          <mxGeometry relative="1" as="geometry" />
        </mxCell>
        <mxCell id="9pm-4QH1z8hACaXUIANB-27" style="edgeStyle=orthogonalEdgeStyle;rounded=0;orthogonalLoop=1;jettySize=auto;html=1;entryX=0.5;entryY=0;entryDx=0;entryDy=0;strokeWidth=3;" edge="1" parent="1" source="9pm-4QH1z8hACaXUIANB-1" target="9pm-4QH1z8hACaXUIANB-12">
          <mxGeometry relative="1" as="geometry" />
        </mxCell>
        <mxCell id="9pm-4QH1z8hACaXUIANB-28" style="edgeStyle=orthogonalEdgeStyle;rounded=0;orthogonalLoop=1;jettySize=auto;html=1;entryX=0.5;entryY=0;entryDx=0;entryDy=0;strokeWidth=3;" edge="1" parent="1" source="9pm-4QH1z8hACaXUIANB-1" target="9pm-4QH1z8hACaXUIANB-11">
          <mxGeometry relative="1" as="geometry" />
        </mxCell>
        <mxCell id="9pm-4QH1z8hACaXUIANB-87" style="edgeStyle=orthogonalEdgeStyle;rounded=0;orthogonalLoop=1;jettySize=auto;html=1;" edge="1" parent="1" source="9pm-4QH1z8hACaXUIANB-1" target="9pm-4QH1z8hACaXUIANB-64">
          <mxGeometry relative="1" as="geometry" />
        </mxCell>
        <mxCell id="9pm-4QH1z8hACaXUIANB-88" style="edgeStyle=orthogonalEdgeStyle;rounded=0;orthogonalLoop=1;jettySize=auto;html=1;" edge="1" parent="1" source="9pm-4QH1z8hACaXUIANB-1" target="9pm-4QH1z8hACaXUIANB-70">
          <mxGeometry relative="1" as="geometry" />
        </mxCell>
        <mxCell id="9pm-4QH1z8hACaXUIANB-89" style="edgeStyle=orthogonalEdgeStyle;rounded=0;orthogonalLoop=1;jettySize=auto;html=1;" edge="1" parent="1" source="9pm-4QH1z8hACaXUIANB-1" target="9pm-4QH1z8hACaXUIANB-76">
          <mxGeometry relative="1" as="geometry" />
        </mxCell>
        <mxCell id="9pm-4QH1z8hACaXUIANB-1" value="" style="shape=image;verticalLabelPosition=bottom;labelBackgroundColor=default;verticalAlign=top;aspect=fixed;imageAspect=0;image=data:image/jpeg,/9j/4AAQSkZJRgABAQAAAQABAAD/2wCEAAkGBxMTEhUTExIWFhUXGR8aGBgYFyAdGxgaGxseGx4bHhggICggGholGx0fITEhJSkrLi4uGh8zODMtNygtLisBCgoKDg0OGxAQGzUmICY3LS0tLTMtLy8vLTAtLTItLS01LS0wLS0rLS0tLS0tLS0vLy0tLS0tLS0tLS0tLS0tLf/AABEIAJwBQgMBIgACEQEDEQH/xAAcAAAABwEBAAAAAAAAAAAAAAAAAgMEBQYHAQj/xABPEAACAQIEAwUDBggLCAEFAQABAhEDIQAEEjEFQVEGEyJhcTKBkRQjQqGx8AcVFjNScsHRJERTVGJzgpKys+E0k5Sio9LT8UMlNWPCwxf/xAAZAQADAQEBAAAAAAAAAAAAAAABAwQCAAX/xAAxEQABBAADBAoCAgMBAAAAAAABAAIDERIhMQQTQVEiMlJhcYGRoeHwFNGxwSMz8UL/2gAMAwEAAhEDEQA/ANxwMDAxy5DGU8Y7VZ3vJp1SFZQwVaYOkNJAmJJgG/kcapU2PpjI1zdRDFNkHzKM+ufEqhlgQDvr8jtffDoQLNi0mYkAUaSH5UcSN+9qQCBakPpRA23MiOsjCOY7XZ9Dpau6sNwyAHadiJ54lMzxHMpXCOlBKkNUDEvpKoxnaZ8FO1vZUc8V7iHDqlUvVXu47rviE1WUeHmouYYx/RbymhoYTm0AKVzngdFxJSh7Z57+dP8ABf3YLR7ZcQZwgruWJgABd/cMMH4U476WT5l9D+LnOkQIuCZE+RmMR/Du9R0rJTdtLWIUkEiDEgXNxbzGNujio0AstfJeZK2LO8LztPLNVfiTK6IXeKYKAKJIsNRsNx8MZbmu3WfmEzVQjkYAkdYIxfeI/hEy9bJVVIK1HpOmlmVRJUrNzMSenKMYpQy51mrqQgiI1AGPIG/LpfHmtcbIoei9HCK191Zj234pMDNP/wAv7sJt204p/OqnxH7BiF4NkHaoXUo2sezrAPrBv9XnguW4e6vUgo8mDpYkWJ2YAgjz542A46AIEtGpU2e2XFP55U+I/djn5YcU/nlT4j92Irh/BaoD6QrA3YjVC+ZhbDCmS4LURHAKmbzcwTa9tv8ATrjW6k7KxvY+0n47YcUP8cqx11CLecY5+WHFP55V/vj7cR+X4LUWkUBU7mb2BgHl1+3ApcEcUTTDLF73sCefvnB3MnZXb6PtJ9+WHFP55Vv/AExhRe0vFiYGbrEgbd4Nv24Y1+z9RaKq1lIgMVIDDe0778sczPBH7tabQogRIIkWiJ3FsDdSdn+Ed6zmnOY7XcTQgNnKoJMae8vtPpEYTPbDif8AO6/98x8cEr8GclWcwVFpBAMDTz9I54LRyNZdR0jS0CZP0YsOXOSB1HTAMbx/59l28Z2kp+V/E/53mP75xw9r+Jc83mI66zhOjwnMeN9MqQOZhYO+0Cdsco8MrgOSsqxUzNhuBeOcEeoOOwO7Psjjb2vdKntbxMb5rMD1c46/anicXzWYE9XN8I0uFZhUYlJUuDMmBYiNUR/6OBT4VmFTxL4S2pWJMXEwCR0v6Y7A/s+y7Gzte6V/KjicgfKczJsBra+Ov2l4mN8xmB6swJ/fglHhddEgiIYkEkj2gCLxvF/Q4FLhdbuwq3uQrEm5PnG4nYciMdu39n2Q3jO17oVO1PEVktmq4gTBdhuY54IvavPtdc3X9NZm3/vC68Cq0x3ddSpC/SmT4tQMEDzw1qcBJGikZn1n3ADoMbELy28KzvmYqtLflFxH+c5id/bbyvHS+CntHxGY+U15/XbBqnA68d2RpYLBs0gQBMRItgVuz9epNOwYAKVCtNoUW0yCTA9TGMbp/ZWt7H2kQ8f4jMfKq8jl3jYH4+4iTHymv5/ONhXOcCr1A020wHhW8MW8VvDcc8GbgFeufCAxBmFVmg8thg7qTsob6PtJNeMcRJgZmvPTvGmcdp8V4k1hma3+8bCtTgNeqda3CHWSqMQp3vawscdPAa9QisiahTbUWVGIHO5iBAwN0/so72Pmk14txGQPlNU7R86eeNJ/B3wOtm6Rr187mNIOkKtQiWFyZ6QQPWcZjXyJNRXDSUBIETYAkn0Akz0GLl2F7ZPkabK695QZwB4tLI5W5vbQQt5/fgOjeBm1ESRnQp9+Ejh9bIaKlPN5h6VU6QrVDKMCDuCJUieU2xTF4xmCxUZmoSJMd88xc7ahYDE1+EftHVzzRpVKVAjwh5JLgENykEEdIv0OKdTpfPEqRrgys/Ri/LCiMrTAc1e+x3b2tl6hpu3fU2jUr1CWS4BcTJ2tpmDbbG3ZbMLURXRgysJBGxGPLvCaH8Is4LT4ln6MieXpj0J+D3/7fQ/t/wCY2NNbkSg450rHgYGBgrkMDDGrn2H8XqkdQad/jUBwk3FmH8WrfGl/5MYxtWsJUkcef+L8bIYd07L82EaDExMjzGNpbjh/mtf/AKf/AJMZJwXgGapZjvKuTZlAYqJQ+KDpldVxMThsUzGkkpMsbnUAoEcdrBg/e1NUEBtRmCSSJ6Ekn3nCacUqAeF6gERYmIE29PG1v6R64nqXDc9Ff5TSq1O8RgJKtpYglSBqhfHp2i09BhilLiVKguXKQhYqE0gkl3U+1O5YAYcNraW6BKOykHVR+a4pVeS7u2qAZJvFxM77z78PqtPOJl9NGi1RBq1sBUIVpOr2WCggAXI6YacZ43VqotGr3cKQZRCDIXQNRNz4RttM4f8ADONZQqwzC1ySxIFOppWGixGoXmdweXpgykyR9EeS6IBkhsqt5t1qLTIBU6BqvOokCSLWEWgz9eEM3Rp+EKCBoWZg30ySAAAFM7GYjc4fvl0fQJWmqiL6ixA5mBBMDlE4V/FZqqHKhKVMBDUVHkgCJMSveEEE+IXjliYxPHBUCRh4ptRWmMyhphlCsIlpMg3uABv5csTvZVQXzAJIGsavDTYFR3k/nBY6dRBGwkmws0ThxZhmWQU6YbenTYBiBYC2gEnz3+GHXAcz3D1GKsS8+zUZdJMwYFnjVs378NiifRySpZGilJdnmjL1QYnS2gWue6OqCQTOjkLny3wfhmcjLlDmQilKh7oLOo6WEE7STYT5cwIjuHZtKWoVTUNNkjSlTQGNo1XEiJEGd9sSHCqGUYUiEJh/nNWYS6CZhS4a8jp7JuZxS/J2mRzvL+1K3NuuY4Z/0jUc5/BShzQ/NwKOg2Pfao1G2q5aRciJ8jZjNzlTT+Uq3gSKQpxEEW182G5354l6VDI6QWy6hifEozKQBrMQ3eb6Df0gdcVhuFvJg0okx8/S6f1mCwtPredIODh6cLUpx/ife5ZUaulQoyWVCpjQwksT4osPCALnEdxLj1auULkSjalhdjuSPU3+4wkeF1OtHl/GKP8A34DcLqRvS/4ilf8A6mGMbGPoWHGQo3F+NVcyVNUglZiFjeP2AD3euE6HFaiUzSVoQkkrEhtQAOpTINlEHcXjfHDwyoPpUp6HM0f/ACY6vCni7Uv+Ion/APpgjd0Bw8lxElk8fNHy/HayUWoKw0NP0RN5kauh1N/eO04L+OK3c9xr+bC6dMDbUGgmJNxaZiT1xz8WPfxUf+Io/wDfgj5JhpE0r2tXpGLSZOshbA3MCbXJEmoQeCGKYjK0pW4tWaitBnLU1PhBO0CAJ5qJsOWOZ3i9eqgp1KhZRpgHlpDARa1mOEjknvel4bn56le3Lx+I+Qn4nCn4tf8ASo/8RR/8mC0xHPJZcJRklM1xutUjXUmH1iYsx93s/wBGI3tfD/i/EZq0SmZapoIfWVEo5CMSADBFhCTYgg9TCZnKMgksh5eCqjn4IxIHniY7Z5sPWSGDaE0Egodmb9GwtyNxjJaMQoZZrQJLSCc8kTtTnhUqLFZKulVEoPCJ8TCY8R1TNpvEyLMOG1QlZWFY0tMkVAskQD9EblvZuY8V7Yle3jzmR4g3zYuCp5tzUAbeXliK4G38IpS2nxgzItfeTYepnGWVu77vv2lp94671KNxMfKTVXNESgJqGkD4oXwCnssEWvaN8co8QVMw9Rc1bu1Gs0g/eeGmNJQkAQeZP0NybnuWrh+IBhUgEnxlk/kyJ1hSk+ek35csHylVRn6zGp4Qap1BlWd9mIK36xf34xYHDh3fr7yWsPfx7/395oi8RVa1Zhm3RWYEOtOWqXPIFQoEm214g4PwriS0qtWM0URqgE9yr94gLDVBgIAvQfS2sRg/ZiqGzlRjUCA6m1FlUH5xWiSGF+g3EieeG3ZiuqPVdmCwkiSok6xtqBn0EGOYxzqzFcuX6XNGYz58/wBpThHEkQsDm2pq1UG1IOxAIOvWY0ydwAZi4O2E+B8WWnRam1dqeosYCKwHgF5IJBbaRtpHWR3svAp5kl1UinaSoJ8LiBKkn0BHK/I84DWUZXNg1FUsgAUlQWsxgczf925GA6hiHh90RbZIPj91TKhxBRlzTOZqIdFX5sAd2ZUgKepYne8f0TBxCqfmJBA+fS5Ex4G5QZ9IxM5UqMpmCXQPsASmtgSm0qWgQTYgHnECYZAfk4jUD8oWColgdDRpAglukY5xGfiiwZBKcRyVfRWZnVqa1F1EU1GpyBJkL4SshTcXLC98RFGn8+SrDvNJkEGNMX5dMSfE+E1FWrUaq7w4RtQuYC3cljsXAAGraQYviMo0x3x0vFTSTtbTG3TEcmitjTng1A/KZDDXq8YgxGpZAt6Y9C/g/H/0+h6N/mNjz5wWiPlMq/jnx2sRIkfWMehuwgjIUPQ/42wG9U+X9ou6wU9gYGBgIpBxYemEGw6Ow9MN2GJZBmmNKbVLYQqLh24w3cYWtpjmF+/niucbHjoHl8opf5i4suZxAcbX5tmO6gup6MtwfjGCFyyrNZomqjims0nDAafb0nVDRuDHwwenxy1VFy1AalKn5o6k1DcGbNEkE+vLCfFeJVaeYZkeDSdjT8IIFzFiINus4cJmq9FcyyVxNXQtX5q7hlYCbHujpYiGC6gTGPQYBTbA7tVK67dmfZM1p2g2MsD5aQD9e2LVwviubXh70aeX1URqDVYMqGktbmBJvyvOKrUqkkuAQNRbpzEj12xL8P7VZinQbL0ypRtQPglvGDIkG3M7TvyxY8FzaoFSMIB1U3T4nm/xcaQy80BK970GuT4f1ratveDivHn78SdLtBmRljltPzZU30HVBaTfYgyRMe/EQ7AzcDp8dvhjUWRJoapcvSoZqzcN4+VrVGXL0y9aAdTQEZdRJDEeGZiPdzwnxXtcMzR1fJ0UVQNLmoGddDmfDAIkjnuIOIPhlTTWplmAAJuzaQLHdiD16fDfHHzfepTbwrIMoGkqdRFxpGmd4JJMzhUkDfyGnD55prJDuHZ/wiavuPhgD7/DHCuOx+3FvAKEViOS5/pjoP39+C/6YH3+vBARJXcA/f7+8fHHJwU452QyCDBZ6RXXP3+/w92OYB+/vwAcLwpuKkJwGP2YGDK8EGxjkdjHl0xris65LkybfVi7pwTK+PVQqES2jQKuqIGj2rava1TadMWnFfbjNM1nrfI8vLAjTphQTebbn7RbEIAMJIkkGfR87tMBjYcs/KqV+q8EyN9OXrCLidd7gkDmDEiTz6YJW4Lk5Omg+nUu4qao1vq56Y06Im8avpRijhfLHSkbj4jBEDu2fvmgdob2B98lbfxNRVQe4LvFTUIqBJIJpaTqDQCFBncOekh1Q4NlB7dBjZJ0d6L21xJ6z7tMXnFPydBWJBYLYkEjc8hbb1wiyiTicOxSmPEfvmnuGGMSYR98lMcU4I3et3FJ+7tp1b+yJmTvqnDYcFr/AMmfq/fhpTyzt7FJ3/URm+wHlgtRSsypU9CCCI8j974qDj1QbI+81ORfSIq/vJO24LX/AJI/EfvwV+DV/wCT+sfvwjVyZAYyCBTV/ZbckeESNwJOraBvfDcgEbe/3xgNkL+qfb5RczBWL+fhK1uDVreC5IAuu5MDn1OGOYKwlCmSw1gsy7u/s+AHZQLAncmTFgH/AAgfwmh/Wp/iGIOnTnSDsSB7QHSfEbD1OMvu6K3Gcsk+4pwcJTqP3jkrUC6W5+FbnqfEQDzAkAgkiNpoDXMORU0kzptEbb9PtxJ8U4VlkpVHStLK4CjWhsdMggCSRJMi3hI5XjaCKa5UMwfSTqtERt8MefIbAXoRpzwWkPlUhyGUy5gXAIkb7GRy+zG/fg6zi1MjTAILJqVhzU6iQD7iMefeHUga76WIdZJPMgRPuM40ngh+TVC+WcF+6QlDXpkMxqQ1MgRq8EsCLj3gYMYtp8kHupwWv4GGOS4ktSmlTSRrUNHSRMYGFYwt0nfLCD4XY2w2dvPCpSttSb4bvvhWpUHUYb1aq/pD44SmJrmUkGcQHGmOg04E1CKa8hqqQgk8hLXtt8MT9Ssv6Qviucfca6B1CBXpE3GwqL9/fjguWRcWfXVc7ai1ukknfyw6zWcR6bIGkymkBW5A6pBPzdzyLT5YPWzVZay1ADqptKHRax+v34UyPFK1NqzIQDmABU8IOoKCoiRC2Y7Rj0443ENIGnf8KKSRrSQUxqPKlbC0W8gonznTOHvD8qCqxbwgmCTJk3PQ7Wwh3EbdJt0gEfUdsPuGLUYDu1LaV0kQOrHl5fZhm1A4BSXszumbXGoiLSLe7YHDjg1Z6dcmjT1nTdV8XtU4LWBIhjqIixHTHWp1AIKRbr1EA4Jwrir0aprUrNAEso2AA25i1jvEYVsrXEnLgm7S4Bo8VYqPGnVifkDOSlNfZJPhLw/5syXkz1Kn3c7QcZNRKiNw9qRZUh3UgpDyYlF39mcMsj2hzOtUTuwXVKQLAAaaZJSSTynfnAwar2mzebpilCaa1tKLDHuWLRBJIMiw57CcMdFUzThHqf8AiU2S4jRPoFBq0Sfv97j4YE/twpWoNTZkYQy2I6GBbCX+uPQGmS8865rn+mAfv9v7Prx0YIT5YBF5ItyzRgZFtxJiRJgcpNz5C55TicyXH0p00XRRDBCDqo6jq5S2m959Npw74Gf4O0TIpkWq6fpVTdeY+vfFQdtrA/f1x5u0zF7i3kvS2aEMaDzVtHalAfZobp/F5sBfl1wn+VSxZaE6W/i/PVYbbxecVFjjkYlVNBXJu1aT7OXjUP4udgL209cR/Fu0gfLtTC0pKiyUdJnvAfa028In6sV2cJUlaTPuxppINoEAik6o1wwkYVBxMcXJ+Tpv7K71dUiEvHTb0tiCp1CZgEwJMCYA5noNr+ePVgnxtteXPCGGlpn4IslSc1qrANUUgLP0QRMgdSbT5Yl/wqZKl8lFUhRUDAKeZncedr+7GUcN4lWy766LPTaImDcdCCIIw54vxnMZgg5iozR7INhfmFwt0JdLjtbErWxYKTE4EjAS5AkAmN/MxfC2fyNSjIqDSQ7IQReVi45EHkR0xSXRh3eVKGSFvcFdezXHnaiEevRpLShF1Lcg7n21JPoDtyxXe1HEGq1tLvTYUpRWprAImSfaM3PXEbw3JvW1inBKJrI5kalW3vYe6cFzeXanUamxBKmDG3u2MYRHDE2YuGqe+WUxAHRPczmx3ZUOh+bURFWSxiV9uBp6mVOkwtxEXNsGOOeuGxRNYDhN2lyyueQHCqTjgo/hND+sT/EMQcglQYgkTJgAW58vXl9eJ7gt8zR/rF/xD7/VivSJWSAJEyDEc503AjkLxjD+sfvNOiFNCdcTy9AJVNMpZ1CRUk6dI1eGTKgmxBPO8CS0oIjVyniDBS2oEchtt089sO+I/JNNXuidZdSnhbSEjxAEn9KbsBygDDSgVNdkIIOktqBvIExGPPl0CvjSuQpq2YcDUGSSTO9xbbYz15HGg8NyuVFZYZZCKRDk/O6mkDxGQQB13HsydOf8NVTXZYhklpm5iP3n4Y0Ph65XvFKhJKoFI7z86pbVpDC9ikkkRb2jONQnI6pcw6Q0WlcIpnuKP9Wv+EYGFuEt8xS/q1/wjAxE7UqgDJScYEYGBihZXIxlHF+J1aep1dtSZhokkiBsCOa22xrGMc7WEhpH6VUf9VsP2cAuzCm2kkAEFTHF+LcRdDTGUNItbUB4v7PT6/XFNzFTNJ7Vaqpkgg1GkEATz8xi9V+0T2Y5GmZgBtYJMlY5cyy/cHFC4xxQVXd9ATxmwNrKii/npn3xyxnYZxI8twAD1R2yN0bMWI395JTg1Fu8unel2Twsfb+dWVJPU2M4kc/w/S+Yjh2mJ8WttKeBjMbG3j/s+eIOitUs2nwlFLGXC2U6pW9yImBh3wuhWzVZaOs6qrSzEk+HTqJIm/hJsedsUSU8hwIy11/aTGSwU4HPw/SKezGbE/MPcQCACLkCLHrb1wgvAMwqIWotFUjSbGblbgGwk88WfiXZ2tqKLV1oLAvVfUfUL4R7p9cMH7MVbXXw7fPPb0lbXxP+ccx/XyqPxB9Pwo1OzOZJYDLuSraTEWaA0XPRh8ccq8BzMPNBppqGYRBCnVB6myt/djph5V4DmKY8BI5+Gqd49ANuvTEBXzOYBJqF9wrEsf7IJ57WHlhrNrL3aj0+Up+zBg0Pr8KVyeUqUalBqgNNXIhnOkEQDclWAEMpuCLj3DJVHqtS0U0UsXHdk2i4JZQoYaluPETfw3wwy9SpXhdRbQpYansoAkxJgbbDyxLcKydSnWpsygQ+mAykl9GoW1CRBUG4HKZnDXtGIOccwD95pbHHCWtGVhMeKoRWqAgAgwQBAHkBJt6363nDP/XEjx4H5RVkEHVJneSJ6n7TiO/1xW3qhRnruQ+/1Ymq2UyPeDTVrBNA1AqCdcbbbTvGIUnBSfv9/U/HC5GF4FGkyN4YTYtWnhMDLvBGmGCzTmfE8G2zRF9vhimNvi48EJ7h9/YMxWjnU3Xp9ZvintjyJP8AY7xXrx9QIU6ZYwLnDnK8PLiZgTb7zgZF4mAsi8kxbaPfOHJqwYAXrZ7XMdOt8LJK2o6vS0kr08sJRh7niLWWTcwZ8r2w0i+CFynuL/7OsR7In5srfSnM2mOfr1xVxWdWOgnURCxvJPLznboYi4GLbxdT8mWZjShjvtXJBOnp9YkYqr5aqArorDXqVGHM3BA5gwY+OKYD/iPmppv9g8kzzX5xVTMMymJdi40zvM3JG5IEdMTFPUtB1ao1RdYFNiDDMPbKTfTdQTzlecYga+XpawFqEpPiYrBF725wI9cTdKiFouFLOjVFFJiI1FZltP0AVIsb38iQqLrhNl6hSfDss1avTTVALoG8QXws6qYJO/i/94acRzLPU8bltPhFzyMfExJOJPs7TJzAAP0f/wBl6H9+FeFogzFabmTo9NRBjz2wzapC02s7LGHdFQ+SrMjalLK206o3ttz/ANAeWJriqw8ySWp03JJklnpI7Gf1mNulsKccCmmSfaLAL53v6gCT8OuE8+g8Ej/46X+Sm3354OxSl77Q26IRikim2Ok46o6Y6QNseoDYXl/+qTngv+0UT/8AkT7ft8sV8FdSTtIm0gC02+l+3Fh4R/tND9dft+/riuhoZWM7gmwJjf2SQD6ExhDtT95qlmgT3imayrI4pLpcvIhABphdjEqs6rDTJIkRYM6Whq7UyoA0khpMkgTG8Yd8U4tQqU3RKZDNU1g6EFoAOxJGxtff2jeWNF1NdlZV06SQTPtRtMxiCXQK2NOOGlTXZCI0gkGdza2+9z8MaDkM7QNZQiqZRVHzSjxydTgxK+ERaJJEzpk5/wAOKGuysoAAJRp3YRaeu/wxonDeM0WqBVpyWVVk01U6l1S1mMWIteSBsABjUIsHJLmNOGa1HhP5il/Vr/hGBg3Cl+Zpf1a/4RgYkIzTwn2BgYGHIIYxvtb7XTx1v81sbJjGu1p8Z/rK3+acUbN11LtfUVlzXCOHrp1Mdpnv1sbWjVM+g5YpObanQzPeZQyPaXvASFYqZkHcwZg9ffhpV0BiYOm+mYnynlvvhs9dAOhk+kQI98z9WN7PsTYXF1k3klTbY6VuGko1CnVqs1UusBmXQq3cm0ibLJ5C2H3Z7PfJq9Or7QQ3HMgiD8OXpiL+VoGBDWt8bE/Xg1Kqsi9ucdOce7FUcLGsIGiRLLI5wPFaBR4vRa61BHRmCke4m+FW4lTII1ofPvF5e/yxRMhQFWoqENefZmbAm0I5/wCU+7fDbi2QFOtUQFwFYgSb26yqmf7I9MebNssUZqz6L0YZ5JG3Q9VoWZ4ihBFiP11/fin9p+KrUoLlqYBIbU9QbGCxCiQNiYnnhlSyAWgKsVCSSJOrTA07fNBef8oeXoWzAcvucN2bZWdcElJ2naHjoEAWmmU4VUfWEBaUaQDB0gAnncRy8vLD/gmQrGpTqhWKGqBN2l9P6IMzp2IFrnC/C8vrcqKy0jpaGZtIJ20yNpH1Tvh/lOEN4FbMUyjVFGinVJMkEagumJAETHOMbmjZjzOfgswyPwZNyTHjSxmKotZiLbTzteDO4necR/8AriS45R0ZiqniOkxJiTAAkkWnEYwxczqjyUTuufNdtguAV+rHdBmP24LjrmgzgrHwg/wc3EaWiaRa417MNm+qw88VFmEgSJJt5+mJ3J8VNNNAVjYi1UqLz9HSRz259cMBwWq4FQU5EFgdQ2VomJ5MP/ePHnjc15JGRK9eCRrmANOiZTjmJM8BzAMd0ZnT7S7kTG/TBfxNXie6MRqmRtOmd+tsJtPUbhSkLjEh+IcxMd0ZnTErZgJjfpecJtw2sg1shCgBiZGxaAd+tscuU3xNQcsNvYX/AOIrf5vc9Y/b1xCZuiDllVagDyfCLET3n0tOxECNRsR1s7zPFddNU0ssALeqWEDRfTp6jabe7DBj9/fi/Z4Tu8LuZUE01PxN5KHzPChr8IcITJmJF7x4jqgecnEll6ISnUVCYZl0hva8Ey7AWUmbD196pOC4a3Y2tINlLdtbnCqSeSyc1aTEezUU25wwPxxMcY7C1qVVB3izVZtJNlQzJRnncTuJHniMUkEEHbbDhs9UIUF2hJ0jkureBynHTbOXkEd/wui2gMBB7krkOxtWtVCNWGo0+9JhjCGAJ1aSCSYjfrjnHaR75lgjQqUyDa9JFpkwJESuCpxGqG1iqweI1SZgHVE+t8I5jMM7F3YszGSTuSeeBDs5Y6zyXTbRjbQSYQjnt58xjjHHScEY/f788VgZKcJ3wYzmaP8AWL9z54ryMFZSUDKCCVJ38ifPE/wX/aaPk4+37cQlOpDK0BovpYEgkXAIBEybb4nfqfD9qhhyCkOL8cFWlUQUWTW4JJNpseg8diPQ+WIrLMprsrBdGkwY+nFr/e+H3GM6zd6GpOpaoC51HSrQQFKssgmCdwT5gDDGlVX5QQwXu9Jjwj2osdp3x58goBXRlOeG1k79kZV0iShjdrRf4kY0fh3FVqVIFB0BSmsKfAuhiysbbfRB9b3xm/C8wvyhgwUpfQdP0pEX36/HGl8L4pVqVZOWKhqaKSoYIq+Iq0EGAdh4gIHMY3EMjl7pcx6QzWncMX5mn+ov+EYGDcP/ADVP9RfsGOYlOqenmBgYGGoIYxrtb+cP9bW/zDjZcY12wPzjf1tX/HinZP8AYpNs/wBabdm+CDNVjTZioClpETYqPsJw0/CF2TGU7mHLa+8meWnT0HniR7G8VpZfMF6rQugjY7llPIeR+GO/hN7RZfNrl+6YkozhpXYNpjex2m3TB2x0mKhohsTWYb4qh8Pr91VDiktSPoMJBMyPfa3nGLlxHtDVr0Cr5JaKmCWRSoG0TIM/Eb4p3Dmrd7FCTU+iAJ9bbbYvnHPxk2X/AIZ7IN7AG/kABvGEw1iF16qicnAdVCZvJ1cs4DaZIlTAYEQOTCDv0wxzQNRmZmGo3MAL0FlUADflGxxJcezVOs6OgYEJpZTtqn6Nyfs5Wwtwp4ppLskV1ZYMSxUR9AgWi/i5eHrVKf8AEHyNz+VJEP8AIWxu6PwodWMaRpiZ9hAf7+nUduZxyDh7l83TSm1NsuHYvqDlmVlmPD7IJFjvG5tgueziOwZKQpACIBLSZJEk+UL7pw5ji3IMoffNKkbizLrP3yXOH5GrWfRTQu0EwLWv+344Wy1CvR05k0mCowuwgTJA53BIIt0w97NcN+UM4BZWUeHS2kkwze0QYsse/fD/ADvZsrQaoWqaVNQR3wZQ9M1B7IQAzoN5EauuFyTEPwk+yZHECzEAq1n8yalRqkKpYzCCFHkBeBhsynBtYHkMP1yyU2YZljThfCdSCWDKDcmCAJ2MzHnh7ntjGanYx0hyUaV+/wBxjmnElTyXe1DToHvfm9cyNrdCZNxYTvglbhdUMU7szAPuJInqLgi+0YDdojPFF0EgOiYe/Fh4Z2qalSWl3NFgqlZYGSCxbkfOPTFdGOxjb42yCnBYZI6M5FW8dtrz8ko+1q59IAnnbngflnaPklH2QOfIz8PLzOKiLY5P2YQdliHBUDaZDxVxPbi5PySjuTzm4ww4h2uarTekcvRVWAAKgyIYMLzB2xXC2AMEbPEM6XGeQ5WpPhPBq+aYilTLAe0ZgLzuxtN5jfD7ifZHN0ELtSDKBcodWn1G8D0gYsHF8w2XymSoUagpLWWXqzFyFJJYXAJaSReABtiP4fxOtlK1IU80ubWo0NTRmbmBbVsxm0dL4SJHHNtVwHd48FssaBR9e/8AtVvhuQq130UaZdt7bAdSTYDzOJnNdiM6i6u6DdQjAt8OfunFr7XZn5DSC5WmKffuddQCyn9hN45ABoxC51qmSOXrUs41ZqkFkLlhUkmWUEexaJN5OCNoe6i2hy+8EDs7BkVUc3lymmWQ6hqhWBKyfZYfRYbaTthY8LYWZkQzBD1FDAyAQRMqQTsb+FumLT23y60s3Vq0xDdyKlps7VO6LWEAxe5FzzmDBcOoUmywVilNzVbRVbZSqodLH9Egn+0F88bEpLA4ff8AiBjAcWlMhw08qlI+XeL0J2ne0epA547+LjP52l0/Or1Anfa8+gPTE4RR8TItOmoyqlWqU9YHz6pqZdLTUZbEwbsdhiOo6Weo5NOp3dIsuimEQnUqiU0JOnUWuL6RMjBZK52ZyWHRBuQTI8PMT3lLafzi9Ceu9o9SBgPwx5hWRzNglRSTeLAGTfpOF1o1K5o2Qd45pqVRUuNBJYIAIAcGfXCvabKhdFQUu7V9S6bWKGBMWk0yhPUlsbx5gXms4ciaUfwX/aKX64xCUqpRlZYLCCJEgXEW+8/bZ8tULZnLOZ1VAGYybnUyliSBJOmbEySb8gyz8U6NDutPfalYgU2D6tClfbLByZmVAXy2wmR/S8flURR0PvcozjWdrstRalNUVqgLWAIcLBi8kxE7xYThlSzMZgyfm9JG30iN+u+H/Ga2aNNxVChO8ho02cDYAH3yB1vGGdKowr6jq7vSRHnETGIpNArWJbhmaAzDTdDIWRYNI/8AXvxpXDc3malWalFRKJqO0KASrhNX9Kxi02icZrwzMMMwzEMUaQtrA2g39PrxpuUXNO6vUQTpXvT4QdN2UQLkknU3MaV2jGotCly9YLTcgPmqf6q/YMDBsiPm0/VH2DAxPScnGBgYgu2fEalDLGpSIDagJImAegNpxsmkAp3GHdtc6O/qKN1q1b8rnCXFe02b7t2746gpM6VOw81xn7Zx3JZnLE3JPXGopsDrpZlhxirVjfNpqNzpvE77W+uOtp9cM69WkwuSDM2PKPtxE/KT0X4Y42ZPKPgMPdtQcKI90luy4TYKk6XdqQUqFTG4aDMCYI8/qxJNxioyBHrOyjkzkj1N7nzOKsFlpIkx06DDinlapUsokAX67Akx78cyeMatXSQvOjlPNmVkxtMjrGJDIJXqKWoq7KjhpW+l4OlvIwu/liP7Ednnz1YqXKUqa66ji5A2AA/SN49D0jGh0+zHDyvdpTfxfSaWJiwJaCFmbbem2Ny7UB0avxS4tlvO68FnPfjCmXzKyNXsyJHUc46GMF7c9l2yemtTbXSY6Zn2WiQD6jFh7J9iKZy9PM51n+dBanSW0oBOtm6abgDl1mMH80YdFn8I3qlu9GVDEZerT1AAawCpNyLk3tO3Kfe3qdoVNOohU+LXEBQBrHXTO5M8zJviYz/ZTL11BpNpMWm0DlIgGNt+uM84hlKmXqvSqboYOMRStkd0hmmyROY3onLkndUypH3+9sWTPNQz2aLNTZ6Yy6oV7zuyWWoIIciPpbQP2Yp9Krh5TqxMEiReDFt/hb6himaJsgvQ/tTRSOjNVfwrLwdaOWzxJinSFGE1HvCpgW7wc7G/Pbnjmf4jRGaq1BdXAE01iSS12P0zBF/QcsV3vPOfUzjsjrjA2McTwpE7YeAREWABgy46QOuBI6jFl0FHmSuYLODMMDum6HGXOANFMY01YSZOOzg3dH9E/DA7o9D8MdaNK2cF7R0Wy4yudpl6a+w43Xp52uARytGHdHjXDcpL5Wm9WtEKzyAs+ZiPcJO0jDLgvHqNGjRptRqE06grFgBd9RBtIt3RAmdxsN8Oa3axGRx3dWXF1MFWPc93DsWLOA3i1ESYG2IXNOI00145FVtcKFkX4JHhXbIkPTzqd9SqGTa6TeAP0RyEgjlh3R4hwmgRVprVqut0VphTy9qAIPO8csE/Kmn3y1AMwgHelgoWS1YKI9oSqldQO8gWGDZftZTVEVqVVioUd4QNZgPc39oM2oeZO2+AWng0juBRDhxPsq1xDjdStXau4UlvCVM6QkRpsQYjmCDM9cELUSujvaipqLBWphiCdIPiDDV4fITp2E4Nx7N9/WaoqsAQo8Q8TaUClmi2okSfXDDQfPFYAwjgpiTiI1UnRzgUWrz4NENl1YaQS4WGJB+cAvE3nlGO/KUFQOuY0keGUyyqNJMGUUhTKkkggzEHEVoPT7/cY4EPQ4AYDx/j9LWJw4fz+1LPnFMHvohXAVMuqAa0hrKQJNlLRMR0w1LUVUp3rumrVoFMLJEgHWSdMoTyO4sYw/yXaB6dIUhTBAR08TMQe8Kk25DwiwgfEyOOdo6mYQoaSqC4e07hdOxtPn6DlhdPuqy8R+lu21rn5qO4dmC+apMQB4gABMAAQAJJMAWuTtg3E1fussVLozGkqM1U6B80glRACLJuVLbEEjbDXhlQJWpuxhQ0k9MLcUZDTywSpSDk09RCgFCEVZZuYB3nmJ2thcopyZEeio3iqZo03NWoGp672hiZ06oKBom0elueEcuj/KNcMUCkRfpvH3tjnFFqhHD1ywFQAqZuSs6hyIiLAwJXqMCmrLme8AJsV084iJ/biSTRVsS2RWqmYaoVfS0xY2kiD05Y0fK/KlrEVKytAQPYyymdMOUEjVuQbzzvjNMgXGZZwpOqQV5rtf1tjTshl6wrMDmA4CqxgWqLJA0xyBvbzmMbh0KXNqFp+S/Np+qPsGBgZP8ANp+qPswMJTkviu9v0nJP5EH68WLEF24WclW8gp/5hjnaLhqsXzlLUjL+kCPiMQ2V4WuhTI2/ZibqbYRyXBqkXm1vhbGLW1GVeGpGE1yCRifPAmPXAXs43ngWFyh8pw9SyidyB9YGLfxzhtOjS7tVA0gqG2LEGCTbkQfjhtw7h1SgRWVAxpgsFYSpgGxH35YrT16zlpBLVTJmS12P1kRvOCGGQ0EHODRZVx/BTxClTp55GdUbUjaiwXwmVHiNgdZ+LDFmDUSPDmFFydCVlKmRtAIBg8jbcemV5PJ18pU1lGQkQRUQw6ndWVh4lP3uLTGXzuRMmtlqoMWWnVBQnp411oP7THDnwP1AtJbOzQmlK9vVWnweohYF6lRNMkHxA6mNi2yjqY1AYuGezVGrRyrq4CNSDJ41WAVUDwkiSD/hIxj3G822YIBCpTQFadNLKgO8bksTcsSSSBeww94Pxju6QoVaa1qIkqrMVZCdyjidM7kEETeMd+NJWi78iPmr7mcmC9LTUNQK8zqnSvhGn2ucTAF77RBo/wCEfNpU4gwUghRTpuQbF1UBr+Ux6g4PxPOZYBWytJ0qb6qhVtB/oRAkcmIkcoxW6eVGsEsZmZJ57ySZ+N98bihe04iKWZJWOGEFPvkarXRJlCVnxCYJg3BIH/rDzunpVopyHERofU1wJhlAmxOw8sGz1UHN021g+JfECsCHjkSBAHMnraYB85XAzhOpXAI8TNAMIN2HTy6YrY4j0UrxfqneUzedq69FSu5RdTAMxIEgbTO55Y7UzmdVBUZ64UmASzCTBPPyBPuOGdHNj5U3zkK06mFU3ESfnCZ32mTMWJthxwDiDLX0moSiyAC+oe0IIJgGN5A2Btji46gCtdEA0VRJvxViHG8ozN8/mVWWAOt5i2lwLjT7ROq8hbAEgdrcZyl4zNb2XA8VWdU+CZsAR5HzGKx2dzelqviAlD035G59nrvy9Q24XXinW8USkRqUapBgeJTJkbAgm8TjBibnrw4/C0JHZacfuqbasWzhnGMolFEZ8xqCQYdwob2gQA4ECdMQLCfWm97ix5fi4/F70u9SeVOCGu+qZLBWP6qkx6WdLRA14JURIvRSNXjOX1ArWzAUMfCzVDI7sKsxU2FQFzBkgkYSznHKJqUjSq1wgc94GeoTokRJFS9toiOZOIts4nyQxUpFiFUotJVcANq1GoYeofCJiR4vKxuI55TlFHfI7E0xoVApphEKxJOpgSTJjTMke1dYa2+PL7ktkur3+5p/xjjtM0wKFWutQN4j3lTSV8UQC5g3X4euIccWr/y9X/eN+/Dzj3EQ9OlFdKh1z4UC93bbTJaL7wPZA5DBuOcUBqZZxXSpog6gkKpFTVLUwS08zZZEQAZxtjgABXP7osvaSSb++qtv4MsmcwalWtWqOEIAQ1GiTJkib7beuJb8I3DQmXNelUemyESFqMAwJjaYnFNpdqGy9el3VemUKaWYL4IkwpTUWULsJIIBnrK3H+2VSrmET5RTFIAyypKhmVkmAzarGReBqE7HExDjJirv+FSC0R4VW/xtX/l63+8b9+A3Fq/84q/71v34R4zUXvmCMrC3iQKFawkhVJVZPIYX7OZ/RWkuiAqRNRSwuRyBFzHMgbzvi0ubhxUog12KrRfxvX/nFX/et+/EtwBa+ZLg5x00wfFUaTM/0gAoi5O1uuCZDiYGcrnvqdMPKioRqBk+0pDxPPxMQecnDfgubTv6hZ6NP5zUNdNH2ZjpRidCC4khuSwTBwp7gWmhWicxpDhZtK5OrXqwPlmgatMtXeT5gTcedsEylas6a/lrKYc6GqvqIRdRi8XkAAmTeNsF7P51AXZnoqQxcB6aszWnStRiFQSIsZk+/CXBsygoVCXohgrwrU1NR9SabVWIgCSQFvY2MgY4mr8kMN1aUp1Kxpd78tuAT3TVGYkAkQVPhMwbGZlf0sNa2Xo9z8oAUNqACJWcMpJJ20+GIkXIjnNitkc0gyr+Ojq0Muju17w6jv3rEEwDss2G2DJWT5G0PR1EKpQU1FQfOBtRqEhm9kCFBEEdCQHZnzWm5DyUJxej81Os+Iq2k1i86hJJXbVJgzexOGio4zOsCbRpncQOfXbFxrU6TZOA9EsdAKogV1gbsSQzkxcwRJscV9OF1O/70FegBmy7SbYlfE86BVMlYNSmPD0Zc0X0zJOpdQkCRN/2xjQOF8TD1gIqyxuWrlgYFpBHijzxVcvwp6eZFYmASCQQfZkEwDvt1xeshxKizKqhpkwTSAJsfabvCT1mN46Y1E1zQbasSua4inLTsn+bT9UfZjuBlPYT9UfZgYQqErhjxvId/QqUZ06xExMGZFvdh9gY4i1yzhPwaPzzC/3D/wB2I2rkKqZhqBzThUhSRTp3FpaNBO3KcaziA47wKlUbvfEr8ypifqPLGCwEFB7n5FqzXOmuikis9uunrA2UX2w/7JOtZX7+tULqQQBVKeCLkdSG8+mJbN8Apv7T1D7x9kYb0ezlNGDK9RWFwQwBHvjDY42bvC4580p0khfiAy5KX/gtKm5XUzEEHXVLEW5SSB5HEJ+DejROcrOQuqJp9BJuRPOOfmcO63Bg866tUzvdb3n9G98cyXZ+nTYMj1Aw2II/dgxtaxpzzKEj3EggZBWbt3lqb5OpriVEoeYblHrt78Zh2Lp0xmx3mnRob24ja1jveMXXiWRNZYqVajAcpUfYt8RP5K0f0n+I/wC3DIiAwtcdUuTE54cBos541SX5RWuXAqOA0DxAEwfCNN/K3liU7K8P1lodUVQSTUiCARtOx5yBO4G+Ln+StDq/xH7sFPZWh1f4j92FGNtVi9k7eu7Pus44mNJqkHwhmIteJt064YtTHd95NonnO8dca0/ZLLMullYj1vy5gbeWGrdi8rEaWjpq/wBMcS7QFEYeIWZVqWldZNrW9ffHPCtSgVHlIFup2Ezb43jGlP2IyhF1aLW1GNumE6nYnKHdXP8AbOBifzWqZyWbV1078zpHqb8zfnjjUoKgzcxb3c+WNIfsVlTuHMbS+FKnYXKGCRUkG3j22+vHYn80KZyWYtSOpVm5E/DrbAZJcAte8bcp8vLGkDsTlSwJ7yRt4/8ATAfsPlZDfOT+v/pg45Oa6mclmWYVhW0SQsDlz0T9uDjLyxAeSNxzH1R78a1V7H5d99cwFkEbBYH0d454a0/we5aS3eVpO/iW/wDyY50rhVFcGNOoWZjK+MqGBIMG535Y6KJJOnTYxufrGNJH4PcsCWFWvJufEu/X2Mdofg8ywNqlcTf2l36+xjO9fzWsDOSzKlRJuNO5G5tHXHaasIZSvUGSRa9+h+v0xo4/B9llOlalcD9Zedj9DBv/APO8sqkCpXjpqXnM/Qx29fzXYGclmvdErI0xEyGbl688EbLmJ1CP1re4x/pjRfyDy6jQKlbT01Lzv+hgfkPl9GjXVj9Zduns47ev5oYWclmlem4XUDzHXaDgaG0B2Mdb+Zxp9HsjQRSA1QjzI5T/AEfPCWb7IUKgALVANoBXqT+jvf7Mb3jsN3msYW4qrJZ02WOjXqtzvtO2OVKDKJZoHri/VOxdAqFNSrHqvLb6GOv2LoNAapVI/WXlt9HGN8/mmbtnJUKrliu7G5gX9McqZRgQCxkmB640Cv2MoNBapVMGRdd7f0MJZnslRJUmpVkXF1sf7uB+Q/mu3TOSoj5RwQJMmwv9+mAco4IEmTYC378Xev2apMwcvUldrr6/o4LU7P02YVC9TUuxkfZpwDtLuaO5byVS7l1cLqOo7CwmPLGnfg1oI9QGpBMNAO2pQhUR/aY+6eWK83AKbVRULPqFhcbbfo4tGR4QlIKUdwTBJkbgTO2+GM2gvBbaXJCGEOAV37S5WnUy9RagBGkkE7gjYg8jil9h+AGp86wIEkFjz8l/afcMSktXISpUYqSAdr/Vi4ZeiqKEUQqiAMcx7mtI5rGEPeHcAjqIEDAx3AxlPX//2Q==;imageBorder=default;strokeWidth=3;" vertex="1" parent="1">
          <mxGeometry x="290" y="270" width="322" height="156" as="geometry" />
        </mxCell>
        <mxCell id="9pm-4QH1z8hACaXUIANB-25" style="edgeStyle=orthogonalEdgeStyle;rounded=0;orthogonalLoop=1;jettySize=auto;html=1;entryX=0.5;entryY=1;entryDx=0;entryDy=0;startArrow=classic;startFill=1;strokeWidth=3;" edge="1" parent="1" source="9pm-4QH1z8hACaXUIANB-2" target="9pm-4QH1z8hACaXUIANB-8">
          <mxGeometry relative="1" as="geometry" />
        </mxCell>
        <mxCell id="9pm-4QH1z8hACaXUIANB-49" style="edgeStyle=orthogonalEdgeStyle;rounded=0;orthogonalLoop=1;jettySize=auto;html=1;entryX=0.75;entryY=0;entryDx=0;entryDy=0;strokeWidth=3;fillColor=#f8cecc;strokeColor=#b85450;" edge="1" parent="1" source="9pm-4QH1z8hACaXUIANB-2" target="9pm-4QH1z8hACaXUIANB-1">
          <mxGeometry relative="1" as="geometry">
            <Array as="points">
              <mxPoint x="531" y="170" />
              <mxPoint x="531" y="170" />
            </Array>
          </mxGeometry>
        </mxCell>
        <mxCell id="9pm-4QH1z8hACaXUIANB-2" value="" style="shape=image;verticalLabelPosition=bottom;labelBackgroundColor=default;verticalAlign=top;aspect=fixed;imageAspect=0;image=data:image/jpeg,/9j/4AAQSkZJRgABAQAAAQABAAD/2wCEAAkGBxMTEhUSExIVFhUWGR8ZGRgYGB0YGBgYHhgbGxgaHR0aHighGR4lGxkaITEjJSkrLi4uGR8zODMsNygtLisBCgoKDg0OGxAQGy0lICUyMi4tLS0tLS4vLi8tLjU1Ly0tLy8uLy0tLy0tLS0tLS0tLS0tNS0tLS0tLS0tLS0tLf/AABEIAOEA4QMBIgACEQEDEQH/xAAcAAEAAgMBAQEAAAAAAAAAAAAABQYCAwQHAQj/xABDEAABAwIDBAYGBwYGAwEAAAABAAIRAyEEEjEFIkFRBhMyYXGRFIGhsdHwByNCUlOSwTNygqKy4RUWQ2LS8SRzwjT/xAAaAQEAAgMBAAAAAAAAAAAAAAAAAQIDBAUG/8QANBEAAgIBAgMGBAUDBQAAAAAAAAECEQMEIRIxQQUTUWGBkTJxsfAUIjTB8SNCoTNSctHh/9oADAMBAAIRAxEAPwD3FERAEREAREQBERAEREAREQBERAEREAREQBERAEREAREQBERAEREAREQBERAEREAREQBERAEREAREQBERAEREAREQBERAEREAREQBERAEREAREQBERAEREAREQBERAEREAREQBERAEREAREQBERAEREAREQBERAEREAREQBR218Q4ZWMMF0y77rRrHepFV3pLtEUqtKQYcHAnlcXWHUOaxycOZg1E4xj+Z0rSb+bPjtnPy5usq/vdY6fKVRdv7bxOHzt692ZkG7nkvBIAygGBzM+pX922WCn2mxETPDwXmPTmuQX1HMjPDWOLgA2CJzDjI8IK1NJKXFSk2q3vxMWfDp1khVXvy8K6nLjOk2KaKbuuJL5lrX1RlAMXzO1OtpW2nt/Emq+n6VLWg/WZ6uXszu70nlcaqt4vaVNzabW9oGHbwMyW5YEboHHzXQza+HbVc8gCkbBnWDNZsHej70HQcl0DJ3GG+SJJnSzEmk55ruaWkWL6kvzG0AG0DW/gt9TpTiWdWXVic4JLG1KoLYMCSXG51425Ku0MRTdTLWtJrFzQCCMuUXOUcZmNbR3rpxTXVDTY2k5rgIfmMXc7dNwMoAI11TYq8WBc0ibp9JsSXvZ6Tusn6zNWizZ3RmmCRAkcbrnb0vxJp5+ucHSAGl9Ql0k3AmwAF5PHyjmVMrnv6l/VOJDROm7ABflgkGDpp5rlpNIpwabi8uBBmwa2cwjjMiDPBCHDT+RYKvSvEsLAa7iXCSA+oMlyGzJvpNpseBRnSnEl1QelblPNv5qsOyg6CZuRAkDUTCha0vdTy0zYQ8zqd5wNwMoyiIvJHfCNrAF56lwY/NkEm0ghgzReDBPOOEqaHd4PIlh0wxOQO69wdmDchfUkzJLrOgAQOM34rZW6WYprmtOIcS5smH1NwkkAGTewm02IuoJmHcGCaTi8uzC8gNbmDhlF5JAOswNLr7WHWOYW03ZQ3fM9otlxItu7sCL6H1Nh3WCuhNs6WYkmofSjkZmh+arD8sxAmd7hIGt4Wmp0yxOQPFcgkhuQvqFx3SXP1gNBEc94a3Ki2ujPNB+Wpm6sSbSYYc0Q7KYnSe5aOrLWhpou6ycxM6MAILco4ze+mU2SkT3WDyJut00xDXBvpBOZoMh7wGEugh0m8C9uYusf854rM8eltyNDstTNVioWzAF53uEgahQuIpGo9pFJwa1u/cS4g3IkWkOaIvoT4c+ILWl7X0XDrA40Wl8ObJ3HExvgDuE9yjYlYsD5JHqPQzG4jFtFR1eqG6QHuknlMqy7YwlZrCWVagcBMF5IMevVVX6N8WKNJrHEAi99L8FcNs7XBbDbuM5Wi5JXMnOam93d7Lo0Y4YNM8Dd+Nu90/vkcmzm9YxmariZc0OLm1XRc2squzaeK63quveDmcBNR18pcPskmTl0idLK2dH5FKk2DPVjhyN+KplOl/5bXG4zuc2861rRuNix79deJ3lJ72a+fTweHE1s3V11urJdtLaRIM1C3urNn1S+FubR2nJh1QC0ZqjSdL6O5ro2DWbUoUqrActRge0HtQ4ZgDFpgqWphWs2V2fjXWXuyDoUtpXz9b3EVWX77vUrsmrjWVPrGvfTOuZ9MuFzBEO5RbxXcxq4jsVzySzFYlnGA5rm+T2G3rUpl46OMWmm/cmjtE/hPHeSyB3mHEx6l3Arz59XE0atFrsX1zape0sLGNcIY4h0tvqF6BT0HgrJmyZIiKQFSPpFdvUfB3vCu6pP0iUi51GBwM91wl0cvthXpJen1KticTnDBlAytDd0RMcT3wdVL7Aw7alIhzA4B57Tc3BvPxUWyjHz88lOdGp6t375/pYoo4vZWo73VpeC5+h0jZdH8Cl6mN+C+/4XSv8AU0/yD4LvKxI+eSUesKR0twbBVohrGgEGcoi/x19ij6eGggRy19qsm32TiKILcwIdujWYMEXGl1D0acuBg6CbjUNF7aXv8lF1PPdo33r9PobtmYGiXO62wi0WvmA90rsbsXDmB13edNA0k694XFVrBoc4iQ1rjEkSQ0kaEclX3dIHn/TYPW//AJJTMelw5MkNop0Wx2yMLr1vBtoB17Rv7uC1DZOHGR2Y5XPgyALAAuMjhJA81WG7fPGm09+Z/wDyWX+MP/DZ+Z/6uSmZ3o9R0gvv1LRTwFEuGRhcIEggEjedIvYaNv3rl2hgQHRlAMH7OW2dwBiLWhQFPbbySMlOwJ1cNNdXKz7FpNrNLoygtYYEkDM2TwJ1SjBn0+eMUns2RRwI8FsxmFb1jrQcxjzKmmbNEhsPIOpnQxMdiNbarLF4JszDzLve43u2Yt7fNZqxhkSakV9mGyukWPMSIPAjkRYqP29hm+mU4DTaneGgC5mSKIA4atPjyuP+HM0OfTXyt2e/2LAbMZ/ui479TwLeMT60OhpZTwXW/qcewdmGtW6sOygkkuHK5tYe4eA0U3t7YQwoZWY9zgDBBiZgwbgj2KA2diHU6gcx0FskH51XZtrbNWuAHuEDgBAnmj5mkpYe6m3F8d7MgMd0nxQeKNOvUa3WG5RAJJIzZSfkr5svGHr6Tbdpo7yOspzJ4n1earPSBw9IP7rfcV1dHGRi6Y5lmvM1Gx7SquJ38eJSwQct2q6nq+xxFINy5Q2WhoEBrQSGgAaAAAepSlJQnRwubh6TKjsz2Max7pJzPaA1xk3MkEydVN0yqnSOlii6uxMNUJz53ybh2IqkeGXrIHhCkmOUDjRsouIr+h5uPYzz35d6VZFWd9PYOGpb9OgxrgDDrkiQRqTyJVpp6DwXljGYUVqJwmbNL+sADw3J1ZjtC9/Vp3L1Ol2R4BSuZBkiIrAKm9P62V1IRqD6rhXJUn6RBvUu4O/RQ+Rze1ouWllFdaXuysmqD5fFTXRh31br/bP9LFTK9R7SHcCY4+PuCs/RfHU2UiH1GtJcTBIBiG/BQpJnD7O0stLq/wCrtt1LLmX1zrLiOOpa9cz84X2ptSg03rUwT/vF1No9QsuN/wBy9yI28T6RRIIFjebCQfbw1XFWNlJY4sfiKTs7C1odNwW9k+3l4qKqOJExAm3xVep5/tB3lbT+6Rw4u7ak/cfb+B1z8/3qUK54v9m//wBb/wCgqo0HATPz8/qszZvdkRrHL5mvJ3J1J8ltqPlA4d5/7UHXOZwurZsikS2kB9oMHhutE/PwVVOpKuOwNKRkRueGjUWxyO11cILzJGrQyBrcjXGSHElwjt3iR90CLak8IO7G4WmBugT4OHvOnf3LZjDdxBMSeyd3SpPiIm/FocOKy2mZYDvHxOvhB7tFjZzp4400kV3a2M6qmDluSRrwAnlxJUG3a5J7E/xE/ou3pR+zZw3z/SFB4Bpc8D5iLq1UdXRabFPBFyin/JInajxJ6siO829iwG23D7E/xLZiBmYYblLWG8G14LXXO9GY/wAShSi3Nv8ACYF/aiR2jsQ16nWtrU2DKBlcHzaeLWnu5arp2Vs3qq7HvqsAaRvNa5zbEODjIBjMBPHVTmHdu5eEkwefDT5svj2gQS2RrYxI5I/M40u0JxShtS/Zm6v0n6hoDBh33MAPeY4kmBbXkmE6c1HC4wzHDg9zwCOYOh8NVD7T2bVY01PQ3lmWe1oC4EOtfS2mhUFhIrnJRw5c65gPMxbnGixNUdCOrzN216Uyy476Uq9J7mjD0KjW6Oa54Btwnvt6l82Z9KtSpVZSbg6TS94aDmIALnATa/FU/amGdSOWpSyFwBEmdAQSDJkZp8gvvR8s9KoAUgD1tO83/aDuVW2ZFqZ7qR+gHYLFkRUFEt4imX5iO7MIViaLI5wAkmB3r6FmSo3giIpAVK+kV8dWTpBnwLgrqqL9JejPA/1NVMnwsxZVfD/yX1Khj6QOGbUaL9c5p3S7cFORwOUye14LPB0QRKxxQHoVPT9s+Jy69WNM15/dusmsDTAkQBN+MX0eeN/Wq4laOV2zFPJbVk6NjAWNVoda2V0DMJbLogTIvotvoLgBSbXphxJGUskF32mhxbFovwtqu3D0QwUX1CzrcuVuZzru0ax4aTZrSJLuYHBZ1KQqOquYWdeGFrsrnQ18wQwOIG8JEjRx75WThRjhiUN4Kn83dV9f5KzSFheQsqtx61oMg8fX/cnz81vL+0LWFj7/AJ8FDjTs5S3NbqLXAtJjM0tnlLSFC/5cA/1m+R+Cuezdn9Y1wp0mVi2qwOzOLMtMjfcLEkjgOKsLuimFP+l7Sp4jtaXS51juEkrPKDsFv4rfJ3/FYHYg/FHk7v8A9o5L1k9E8L+F7SsR0Rwoj6o27yp4vIzPTazpkX+TyodHxwrt8nf8VMUqbWANaZAAHk0Aq/N6I4UaUiPWqn0lwLKGIbTpiAWB3rJcD6oCcW5q6zS5+74skk6OejWdAaADrqAY48R4r5i8Q7sHnyAk6zbhx8vVzuqcAlQFpIIurRicdzdV/BD9JWTTZ++f6Qq21pmytO32OLGZWF2+ZgExLRyUC7D1PwXfkPwUM9N2fKK08d/uzW/EufaGjWYETa9/UtJpG/d3+PwW/wBFqRHVP/KfgtfoNT8Op+U/BQbvEvEuOCIAETaeNrm/u+bLJol+pblvaZAzNadIOjjoQmHpQ0E6yZB01Nvn9FvtMgXgWgmfrGWt5WUM8pw3lV+P7nXh8LSPaw1AniTRYXE8SSWyfepGngqOow2HBIi1JgtysNIXLSs/nwtx5aDXuUpXjJAEOtBjiDvceItpwWM9eaTsnCugOweGMWE0WGOJiR610Uej+HJzDA4drhcO6qnMg2IIkjgssMs6W3Cxxa4UxBIgOqPd6w2lbzKlRb5FZOK5nK/bFKN1zQ7UBwc2SLxDomfcVeqZsPBeeYjAufRBdVJayXNApOpmYgznJd9nkPJeh09B4LJSXL1KRcndrboZIiIXCo/0jtnqx3f/AEFeFT+nbGktLiRFNxERrIjVVmrizX1M1jipPkmvqUnFn/xGNEyKtQkAunLk1IboLHtWsssNmIkmTAuZJ04k6rkbUpVTlccmQ2tJcY+DvYpd2FptdTaK9nkierO7DS7nfSFjgmkcvXuWpzf0VaXn4llp1TVZnayiC1mfrCbsrTvlzTqDAIMRMLIVTTYKj2UnFzS91Rp7dQOmmGtEaEAuMQqyyp1b6jmVjFM0xmALSesOWwmbEroxJDqzWnElxc1zi4sdbKWADWb5vYr8RK7+vgfF81Xz/b9zmqNnXXmtGWD8NR8/25Fa8RUaalRueclgYIzbod6tfYt9Wi6/Hv5FXg+jORkT4mmt0WboXhmOZUzDNDhGabSOEqx+gUvw2qvdAuxV/eHuUzVqEOcM7hyH5dLd5VZJWen7Pd6eP31On0Cl+G1fPQKX3B7Vyda8gw82vM3Fzwymbx8Fvw1V8RGaJuXCTvEcB3exVN02eg0/uD2/FUHprSYzGNAloNIG3PMY18PPzHobHO4iPXPL+/kvPend8azW1MafvOUrmaWv/TyIwkQIEGL9/Kx8/wDq+QdIi2up8onlYa8liGgAzM8Ph88lscRYkAGNP1Pzw887aR5NW97Pj6cAgga+OkH1cPaFzHDt5LbmlfXe/wDT5+eEIlu9lyOd1IDgFHbVxgZut7f9I7+/u81IY5j8u5rw0P6+U2kKvNoCS6SbmMwvrq4Xv3KGzq9m6RZLnPfyJnZOPzQDzAPMePx9ykyIdrwEEmI+sZqRpGsqn0s2cZLu48QfHu7/AIKx4aoczGZS7MBIGtnNc6P4WnzVGTqdNHBmjw8m+XgT9FwLnbsAkwBoBPh3qVqNApyJLhAAsJve3EDVV7DbSotJD8RSBnTO0EXNiPj+ikMJtnDGA3E0SQLgPafWY0WM9EmS+FGkrOnsDM5znOG8STlfVZI4T9YQbd0Li/xzBsjNiqLf3nge8rdR6U4UGPTsOSTADXsBvoNSVZNorJJ8zkr7RLKQD6VQCpma1xeKm9EwSTm48l6DT0HgqEMPhn7jKnWVIOQOqvdeIsCcosOSvzBYK+3T1KRUld8uh9REQuF539K+16uHdhuqZSd1hc0io0usMtgARNnGxnQcl6IvOvpX2KcS/CgVerNMuf2HPkbubs6RHtUMrNxS/MUbYrmVKji89U0y7QuDTJAAMy4W855K1DFNJa91Wm9tKHNd1bKYuC14gt3jlNu8hVjA9H21AWNqFsjPnyiTvQJGaOPPgF8dhW0sJcl31sOPAixyi8KlbnIhwuV4ns5efRFgO0aRDia9EOe1rnDNTa3MxrXNDhG7DzPqXWzaDKlRtQPpF7ZYN2mYY6oJJaBfdYDKoFUUJkB/qc33Lt6N5S6rAdaiSOMODhe3D4qXGlZs5MMoQclJ/wCSz4ynSDnuFVlR7ySQ1mWIGUW0HZHtXBW2rGIbQFMkupl5d9kXIHrgSuahsHqSyqapcHjSNJIJvNypareLa3B7lMVscbUuMMstuaT69evUt/Qg/V1NO0L891TzsK0km99bn5GirvQdpyVIdbMOA5d6s+Q/f/lCM7+g/Tx++pgKAkG8jvPf8VkymBMcf7/Ffcp+97AvnVu+/wDyhQbhkvOunI/81tv9If1OXoXVu/E/lC846ePFPF5n1BHVtubDtEAW75KlLc0u0P8AQkl5fU48w5BasfVv8967MM6WOIy2bOkmOQnQx88VH7T2cerdUzmWtnKG3sNNVLkluzzmLSZc18CvqMNUmfA+5bMXVgNvw/QLm2MC6kTbtEab3Z58u5NtYE02tfnzXiAIi3j3I5pSLR0eWcXKK2XM78KwPtYOIsSbe4m8R61HbU2S5xJaQXwM2WbzOsgb1tRrPFdWyqkCZdMWgTpEGDrcALZjqz2jOCXF8TIEgw6xgnhHJVbdm7pZQhj4oP8APdV4rzIlmGFJk8YmeZ4fPvUNV2g4uggQddbK5bAqNe54rMlgy2IBE72W370T3L7uZixtCje0Cm0A8phWm+hlwaTJmUpzabe2+9fKtij9dVfZgqPi5DQ50eMaBcB2g9r8zXGm4AtlhLDqZBgzrwXqOG2cwPNP0egwnXdgHiJg3W9mxKDnOJwtAkE5jk48TzKxM2o6CSjXEeS1tovc4PfUc9w0L3Fxj1nvUl0f2m6pisO0xHW09Nf2k+9xXr9DopgXt3sHRP8AAuvCdCNnsc17MJTa5pBBAIIIMggzzSiy0ckviLW5oIgiQvq4nU4BIc/T7xPvXY02WWzePqIikBVbpWyarREzh6wjSZYe8eHrVpVR6bAZmyJGQ8uetx7lD5Gnrp8GLi8Gvqef7S2WKrMkkAEQW6GJ8hdc9XZpp0Th6bn1ZcSAWZTm3XQLmdwjTnovVsbXwvohgsy5N0WnNFrazK8x6Vl9OjSfRc7O65jhADRFhFmt0JNgqrc5sYSwSWLiTumulb/Rlf8A8Mra9Q7WLscINrG1iZHmFJbBwr6Zql7TTGSCHCCQXAQA4c40XzpBXdTo0+prPc77d+PVsIP5sw/hC5ts4mqKwYx73MytvOpLZdPg73BTbextZMs5wadL18CS2f0fyVSWuc8jMB3tDyM3GeyfaplkWsbgg8wPWobo/SqOLxUDiIBAImY1GluCkRXbLsoGoDQDJIgk/ZE6C9o5HhNM5eqTc2+b8fKuXod+zq9Vu7TquYXkQB3mAe9drX441XURWdnaCTcRA1vx1UZgqVUuY8Bu6ZAJi7TeeWikXdIsQ2sSSDnBAp5jkFy2w5y32qfNlsMnGCUnJK+ngb8P6a4tjFN3ogdayT3RzWylQ2gY+uu6YBe0E5TDoC4q23yHtL8PTNSmAAcx+yLfagrDDdJahqU3ZATSz87moe7TWyUZlnxp7zl7v/r5na9u0OFad1zgQ5paQ2M1xxuFWNs7SzFvWl1Qls72UxciDYRoCPHvViwe0qzaTWtpNIDHgHNwqOBlVTHUQ/LJMxwI0IkeyPNT8gpwc48blwvnd/fMlNiVA+m92k050nv14ePctNRxc6sHOcW+jV3RJG8AyHA3giTeOPFc+CpgMDQezA8rLfhySa0a+jV4idYZyIPkR4rWzP8AMjf7GaePIl0/9OLYD4oOdJnrDwkwWGTm1Ps19S37Tq5sNWcXOtUYGnNlN6bsw4yDy481D7F1I8fcVK4wH0OtE/tWaZtOqfrlIt4yO5RP40Z9JvpZ/NmOFxjG0qJdbtAnMxpMQbSROo15rKpj2HKGvaSbzLRLpsAM3LxVWxryGdhr/q3jeBdlBs5wjQt1B0C4sM8kUwKYtUBD4OacsZZ0iDMarY4TRx6CE8XHe5f9lnMXjnk9j5WQG8eBWXRIDPNTswPOHZP58qPEVD4qJ8zZ7J/T+rLNiKTesp5bSCZbAPZF5F9eZW3BsG/4n3FfK9Ql9LeBs7s+Ak6mJ0i2i2YIbz7Tc3vZYzokvhWwAu9i5aYgLqYrIGVTsnwPuXSzQLlqdk+BXU3RXRU+oiKQFUOmWAdWrUmt+6ZPISreora269rjoQWzyMyFh1E5QxSlHma2qwwzQUJ/Dav3K4OirQAZcfHQ/BRG2tiUm0RWeXAlxaWtkyc4tqPsgie+eCvb8aAyCAABczaFWtuYgPwzHtIh1Qwe649Wi1NNlcntK1Xs/Ah6DSwmqgk/Dy8SpUujg6rrTiLBuaCw5gInQHtd1wtmC2PTIl7yQGF7ohpygxeC4N7Q/KealcLVrBjmB4DHa7wIi3Ge73rjxFPNTrtDpz0nMzHkXNbPtW5KToyfhcKW0Ed2xdgA02VH1xNamHABk5QcsGZBkhunNxK5dr7JdQrU6Ye1zKkuZDcuUmo0QY0u6LcPBSGydpkYNtTq6ZFFjGakOdutiIN+0ujEPfWqYVxazeaC1rDJDesYXZr8B/2scZzcndeRrThh7uNJ3s/dlcfh2UGjr6D3kkkPloDgSSDvNJ5wTHguTaOCGT0htMspEQGjtOObqgd0Q/6x7dYtNjxk8UX6lstLqgbJkSyqGEAcN4P/AC8dVpxwcKTszC0Np0awEzLTiGVHQAPu05tqXGwWVs2Z4MfA1SOl2wa75IpFrojLNJujRlGUGxnNOi4n7OrUq5p5TSzBxp5jIdkuDmbN4k+Mc1Z8JtrDvc6o19R2Yl37Mjj4+pasTiaeKr4dtLM51EVMxIgAObEd94VVKV7o03p9InHhkm7XqVx7qNENZWoVs4Akyxs2FwC0kSIKj9s4Y0gKpaWsqlvVt0IBGZpIFiC1jr84sFI4iqcjKjmTmpsqNLjJLXB5ABItYDUcdAseklOGOZUp/sa1NpEzANEkHhxqRFxZWs2NRhxrDJpLkb8XhX5KbzIaGgC1nQYJBLb3Ok+pc2H0rzH/AOWvrEaU9cwI8wQpXHNqChTL6rXMvlYIlgFRovbkuXEtDG1KmaB1FRktBkF2WHbpBtlOhlYJtumynZ3DHvYq+UedeD8Ct7FF7Dg7yjuUpjo9Dqz+Mz7uvVPiMwP8sHvWjZWGIguEBwJBM72vO9za67dqbuHeyf2lRpAGaCBTcMpykannItdTL40V0M09Jl36v6HLsLYTsSBG60AtLgXhzg4DM3dcJBGo0Uni+hQw4DmglrTmyOL4BiM+XPlJAm8Kd6CVAxgY4Q5hkjuI1U/0hx7BTc42ABF+JOgWtLPPje/J0o1zROLDB6O+J8m7vl6FCwLYa8j/AGeeZamNJeLEknTiTwHit+xq1NpcKpsQIvEkTFzYXIWNAxUa4PpEh0hvW051kCA5dCXMw9j5oPTLdc2WDE4oGoyHNOXMLZpFgN4HjI1BvHctuDqXfGn6G44qLr7QfmDqlSnIzFo6xgibcDPt4LZg6pcTBYc17PaeYnX972qh1O8jdWi2YZ8gKQpqDwmKa1oLnAC3GddNJld+H2rRccraknkA4n2BWQ4l4ndU7J8D7l1N0C4nVQQYDtPuuHDwXaFdA+oiKQFi9gIgiRyKyRAcL9k0TY0xHr+KiukHR11Wm2nRLKYa6d4Ei8zHrKsaKKRSOKEXxJJP5HnbegmJH+rR8nfBd+zOiFVr/rnUn0y3KQ3MCRmaTwHAK6oo4UZLIv8Ay9hoy9UIHefivtLYVBhzMpgOGhk855qTRWMH4fFd8K9ihbX6KYmrAbUDQ1ziNxp7TiSf2g1JJMqRwXRcujrxmYGCnk7MtERdr7AZRZWxFXhRme6ohmdF8KBApEDkHvH/ANL7S6PUKZLqTMr4InM4666m6mEVjAtNhTTUFa8kef47opXqZARDWNDQIYd0aDti2tjOqlsN0XFRz3YkFwcW7pMGWggOJY6+sR3BWpFXhRnklJcLWxDu6MYUz9UL6wSJvPA81g7orhiILDHLMfiptFLSfMxQw44XwxSvZ0uhBnophbfVm2m+63tXx3RTDGJa4xe7ip1EpCODFCLjGKSfNVzIRvRbDB2YNfm553T5yssR0aoP7Ye7xe4/qplE4Vd0Y/weCq4F7EAeh2E+478xWA6FYT7jvzuViRTRC0WnXKC9kV3/ACXhPuv/ADlZN6HYUaNf+cqwIlD8Fp/9i9iBd0Swx1D/AM7viuvZOwMPhpNGmGk6uuXeEm8dyk0Si8NNig7jFJ/IIiIZwiIgCIiAIiIAiIgCIiAIiIAiIgCIiAIiIAiIgCIiAIiIAiIgCIiAIiIAiIgCIiAIiIAiIgCIiAIiIAiIgCIiAIiIAiIgCIiAIiIAiIgCIiAIiIAiIgCIiAIiIAiIgCIiAIiIAiIgCIiAIiIAiIgCIiAIiIAiIgCIiAIiIAiIgP/Z;strokeWidth=3;imageBorder=default;" vertex="1" parent="1">
          <mxGeometry x="308.75" y="-134.5" width="284.5" height="284.5" as="geometry" />
        </mxCell>
        <mxCell id="9pm-4QH1z8hACaXUIANB-8" value="" style="shape=image;verticalLabelPosition=bottom;labelBackgroundColor=default;verticalAlign=top;aspect=fixed;imageAspect=0;image=https://i.ebayimg.com/images/g/LJoAAOSwTnBcfSCp/s-l300.jpg;strokeWidth=3;imageBorder=default;clipPath=inset(13.33% 0% 0% 0%);" vertex="1" parent="1">
          <mxGeometry x="306" y="-480" width="290" height="251.33333333333334" as="geometry" />
        </mxCell>
        <mxCell id="9pm-4QH1z8hACaXUIANB-9" value="" style="shape=image;verticalLabelPosition=bottom;labelBackgroundColor=default;verticalAlign=top;aspect=fixed;imageAspect=0;image=data:image/jpeg,/9j/4AAQSkZJRgABAQAAAQABAAD/2wCEAAkGBxITEhUSExIWFRUXFxgXFRUXFxUVFxcYFRUXGBUXFxUYHSggGB0mGxUXITEiJSkrLi4uFx8zODMtNygtLisBCgoKDg0NFRAPFSsdFx0rKysrLSstKystLSstLSstKysrLSstMC0tLSstLS0rKy0rLS0tLS0rKy0tLjctKy0rN//AABEIAOkA2AMBIgACEQEDEQH/xAAcAAABBAMBAAAAAAAAAAAAAAAAAQIGBwMEBQj/xABFEAABAwEEBgcFBQQKAwEAAAABAAIDEQQFITEGEkFRYXEHEyIygZHwQlKhscEjM3LR4RRik7IkQ2NzgpKio8LxNFPSFf/EABcBAQEBAQAAAAAAAAAAAAAAAAABAgP/xAAeEQEBAQEAAQUBAAAAAAAAAAAAARECMQMSIUFRFP/aAAwDAQACEQMRAD8AvFCEIBCEIBCEIBCEIBCEjnACpNBtKBUKH390l3ZZah1oErx7EP2pqNhcOw083BV1f3TjO6rbJZ2RDY+U9Y/wY2jWnxcgvRzgBUmgGZKh9+9Jt2WaoNoErx7EH2pqNhcOw083Bedb80ntlr/8m0ySj3SaM/hto0eS5FUFuX704Wh9W2WzsiGx8p6x/PVFGtPi5V9e2llutLtaa1Sv4axawcmNo0eS4aEFr9HfSTPHSCV5kGTRISajcHnFp+HBXddN6R2hmuw/iac2nj+a8eMcRiMFanR3pXOCCWuqBTW1TqPbta45IvlfqFpXTeTJ4w9h/E3a07it1ECEIQCEIQCEIQCEIQCEIQCEJr3gAkkADMnADxQOQoffvSZdlmqDaBK8exD9qeWsOyPEhVzfnTjO6rbLZ2RDY+UmR/PVbRrT4uQXq5wAqcBtKiN/dJd2WWodaBK8f1cP2rq7iR2WnmQvOl+6U2y11/aLTJIPcJpH/DbRvwXGqgt6/unKd1W2SzsiGx8p6x/+RtGtPi5V1fmlNstZP7RaZJAfYLqR/wANtGfBcWqSqB+skqmVTmtJyQFUqeyDeszGAZefyKDCIzu+iyNiG0+X5p1UIrZskgjIcGNNPeFfmp1cmkjTQPGruOz9FXocuhddpANHZH4IsXlcFv1SJGHHbTJw3HerAsVpEjGvApXZuINCPMKgLjvB8LgWmrdrdh5bld+itoa+zMc01BLv5jgoV10IQqyEIQgEIQgEIQgEIWG2WlkTHySODWMaXOccg1oqT5BBx9M9KYbuszp5cTlFGDR0j6YNG4bSdgXmHSPSq2W17n2iZzwTUR1IiaK4BkeQpvz3krY0/wBLpLytTpnVbG2rYIz7DK7R7zsz4DIBRsOQZNZFVjy5LKyMnIFA1CzNh4+WPxWVsYGzzQazYych65p4g3lZ3D18kevFFNbCB62J5SIUBX180VR6/VHr81QJAUtPXzTSECoaaIRT19EHeue8aUY48irG0K0odZX0dV0Tj227v3m8R8R4KnWvopHc9461Gk47DvUWPUMEzXtD2kOa4VBGRBWRVNoDpb1DuplP2Tjgf/WTt/Cdo8d9bYaa4jEKpZhUIQiBCEIBCEIBcLTqPWu+0j+ycu6uVpW2titI/sZPgwlB5JviwmNx3Fc8Kd3lYxKwjbsUPFiLXkOGA+KLYyWSz4azhyH1Kfa58KBLPNTBaLiiMjHLYaarSCyxvog2kCm/1vTQUtfXzCKVIapEvP1xQAQD/wB/IpAEpw9fBAURT19EAo9fqgaQlqgpqBxCfFIQdyY1IfX0UErum8NcUJ7Q+Ktfo90upq2aZ3ZyiefZ3MJ3bt2WWVBWectNQaKV3Zbw8V27Qi+XptCgvR/pb1oFnmd9oMI3H2gPZJ94fHnnOlWbAhCEAhCEAtK+2a1mnbvikHmwrdWO0M1mObvaR5hB5tCjmkT9WTm0KRBcW/7NrOB4AfEo1UZc6qSqfIyhWMoycgFIhBsRPWfD9fqtELZifsRWX1yKD6+oKT14JTT181AlUV9fVKiqAafW470tU0j19EoKBK+vmEEevqlPr80iAKbRKR6+iQKg9fotmxWktIIzWumulAzPkgm92W+tHNJBG44g81dWg+lQtTOqkNJmj+IB7Q47x48vMcF6uZ3B55eSxWm8pZO9I4j3a0b5DAoa9moXmzo808tFn1YOtOqO413aYR7tD3eYorz0X0oZa6tLdSUCpbWocNpafpsrtQxIEIQiBCEIPNtsbqyPb7ri3xBWhbW4jiPqVIr2s4661A+zPLTmJCAo7bjSleKNI/eVj3LkkKSzTNIouPbbPTEIjRQhIiHJzSmBKg22PBTitRjqLabiil9folr63pnr1xTq+vqoFpX18Uev1RX19eSQuA4IHM9etyT1+iwPtA2BYnzE7VRtPcBtWF9o3LAhEK55OZSIQgELJBA55o1pceAqpRdGgFrmoXNEbd7s/L8qoIo00U/0Q0sLSzWfqStNWP2Op9dhG2qkd0dG9mjoZSZXccB68lKP/wAazanVmCMsOwtB+JxrxUakTjRu+2WqIPbQOGD2+6fyOw/khV7dV0vsUzZrI86laSWd5LmuYT2gx5xBpiAaioGSVVLFqkqIaR9Jd3WSrTN1sg/q4aPNdxdXVHImvBef7zvC2zgtltE72nNr55HtPNpdT4LVu/Ru0S4RQySfgY9/xaMFn3x1/n9T8xvX7po6Sad8UYaJZHPo6riNZxdw37lxH2+SRg1iSQ6mtvBGR5U+S3bw0dls7nNljc1zKa7TQuAIBrqg7iCt4XZH1TXg6wJFDvwdsV236S+nOZ89bXGgjJW6LMS1brIgMgsgCMItaoNU8FrqS2+yBwqPFR6aItKrLGEIQgULJG+ix1TdZBu7K7N/1WN0wHHktaqEGV05OWCxIQgVCAF17p0atVoNI4nU2kigHrig5CcxhJoASdwxKsu5+i8YG0S/4Wfn/wBqa3Xo1ZYPu4W194gE/kPBF9qnrn0MtlooREWt952A8N6m1z9GMTaGeQvPutwHmfyVgpaKNY0LvuaCEARRNbTbSp8zit8BLRCK4Ol1/myQ67I+secm5NA2udtoNwz4YlcbQbSu0WqQslDSCwu7LS0tLS0bzVp1sORXevm5HSytkY9o7Oo9j2F7HNqSMA4UIJKyXDcMVladTFzu885mlaNAHdaKmg4oOq1KlYMQEiDqXJ0f2CzUIiMrx7cx6w4bQ09gHkApQ0AYDAJUKsW2+VGdKEdLxl/ebGf9to/4qDMY6MmMfdOOs0e47a0cDWqsPpdjpbwfehYf9Tx9FB5x2VFYEqaE5A4rlXnY64hdRBbUUKoh720TCutedjoahcu0wubSowIqDvBRljJQmp8bCSABUnADeqFQpXo7oLNaBrkhkdSA73qZlu8ZitKYKe3ToBZYqFwL3bzh+vxUWRUdiuqaXuMJ4nAKX3f0by6glmcA05hpBIHh+isJ1mbHVoaAOAokui39W/qZMWPyOzFRqcxrXJojY4QHNj1zvdj8PzqpKxoAoBQbAMB5Lmlpgk1Tix3dO7guiw1RTkgWZkJOQSzwOa0uINAKk7gMygxBKuUNI7LWnWjwBPyC2oL3s7yGtlbU5A1aTyrRBtoTqJpQKEVRVIgfF3hzCE6z95vMfNCJU5QhCrCoemaEi0wvpg6EtB4seSf5x5qvZ+6fW1eiNKrhZbbO6F2Ds43+48ZHlsI3EqgLxsUkTpIZG0ewkOHEfMba7lGo5gTgmhKgclSBAKBs0YcKLFLYRJEGHMZHcVnCysKohE8BY4tcKEKa6A6LGd+u/BjfvDkcRURtOxxGJOYB3nDTvSyB+q7DWBABIqMTtG1XHdV3Ms8TYox2W+bicXOO8k1KlJGvet7Waxxh0rhG2mqxgFSaDJjBuHgFjuHSSC11EesHAB2q8UOqTQEUJ2qMabXLLaZnNLDgAYnhriCA0azKgHHWrhn4Lp6C6NOswdLLXXe1rQwkHUaMTUjaT8hxUaSa0whwoo/a4M2HA7DuKky07fYtccVRo3ZaxKw2eY9od076ZHmtq57e0P6l5q4GnPdQbVD9JZJGOY1gPWkkMpmSM/AbTkKGqjl0XrLFaOsJMhqdajiA7f2xQ05YGm5MTXpKxxN1ahvnT4lJaZG0Iz3gAU8yqcn6UpQKNa1zsgMo2cGtGfrJRW+NK7Zaa9bO7V9xp1GctVufjVVEm0su6OGcujlhYwmoa4tc5vCmJI4pt13u1tALTC791zSweBb9QVX6ETV7WKVrwCwgbaAgtPIjAraoqUuS/prM4Fjqtriw90/keIVwXPebLTC2ZmRzBza4ZtPFGpWyhKQkoorLZPvGfib8whLYx9pH+Nn8wQjPScIQhVkKFdIGjIlLLXG37SMjrB78dcTxLc+VdwU1Qg836R3T1Ttdo+zdl+6d35LjL0Lfuh0Foa4DsF2YAq08dXYeXkqN0luOWxzuglGIxa4d17Tk4HwI5gqNOZVKmVSgoHVWRhwWEFPjyQNthwruIPkVdCpW3dwq6YsQOQ+SLD0iVKoppXJtV+xxv1DVxNAGN77ycGtbuJO04DE8Ft31axFC+Q7B/wBBVEbXM6Vx9t4JcfcY/YDsq3Cu51FYlqc2m7zaescXsa3VrLNWkeo04xsdsgZ5yOFTsCry/bziLjHZ2kRDDWcKPlPvO90bm7NtSuxpHpAXxMskR+yZQvIw614/4NyaOZ3Uh1pbQqpWxWoqE6OSq0YpqEcVvdSWlszD3SD634IjIlWO87VrvaWGhI/lDnGvmEtnl1mh29A8qddFltIllhrg5uuBuLSGnzDh/lUFUx6MIibU52xsTq+LmgfXyQi0SE0hOKa5RtlsP3sf42fzBKlu772P8bfmEKs9JqhCEZCEIQCjmnOi7bdZy3ATMq6F52Ha0n3XUofA7FI0IPLFpgdG5zHtLXNJa5pwIIwIPiFhJVx9LGiHWtNthb9owfbNHtsA7/Noz4clTtFGiVWaJYQs0KBltHYdyVzWV3YYf3W/IKm7UOyeSt+7TWCI742H/QEWNsFOATGBZAitO8Yg8apFQcwVXGl1kbA2jM5XOLnbTiSRyFQPAKx7S4guJyAw8VWfSBPrWhrNjGDzcST8A1JTqfCKprrM5/ZaKmhIFaZCuayFYrQ8hpLc1WGrd0I6wa7TTI1GIrkaKTy2cQlpoDC8UOGS4tnnfLqhzQdUU1qsGGeO/wA127qtQA6iU1if3HH2SdhUWOVe90Oi7bMQ5pDTu1hktSxMIYAVNLsYGuNknxY77tx45Cq5F93I+zyahFRmx28fmELHJVn9GV2lkD5yMZTRv4WVFfFxd5BQTR253WqdsTcBm93utGZ57BxIV1wwtjY1jBRrQGtG4AUCpDiUwlD0wqNNu6/vo/xD5oS3R99H+L6JFWek1QhCMhCEIBCEIAqi+k3RD9kl66Jv9HkOAGUbziWcjiR4jZjei1b0u+O0RPhlbrMeKOHyIOwg0IO8IPLqyQ7V1NKtH5LFaHQvxGcb9j2HJ3PYRsIK5cSjRZ+6eStu4jWzQHfDH/I1VLLkeX0VsaLY2Oz/ANzH8GgIsdIBPaEoCWiK15I6kjeP0VS6dwltrdX2mtcPLV+bSrhcNu5RHT/R508YmiFZI61aM3NOJoNpGdOaqVVaQhOIRRGWjLd4JwNOGa6V3saB1bsWnLh4rGAlogl37HrRNic6r2jB5zqNnJdm6rQ21xOss/ZmZ3XbcMnA/Nc/Ryx2mWMvdEdRoqJDhrAUwAPew2hLedkcC2aI0kZiDv4FZxuVIdDWxxGSAsEcwdV9PbGxzeHAYYlSVxUMjtYtcbZozqWiLZtwzaeBUjue8ROyuThg5u0EZpKY5elmlMdiaCWF73d1owAG9ztg8ynaLX+bUHa0YY5oa7Akij9amYz7NeRC1780WfPO54dGWSNAc14cSwtFA5lDTZt3ldjR24GWdgijq5zjVzj3nuIpU7sAOQCo7dxxEzsoMqk8BQ/UhIpNddgETKZuOLjvO7kEirFrdQhCIEIQgEIQgEIQgj2m+jDLdZyzAStq6F+53un911KHwOxefJ7O+N7o3tLXtJa5pzBBxC9SKqemm6I29Va2ikj3dU+mTgGlzSeI1aV3U3BFisH5K1NDnVsVn/uwPKo+iqs5Kz9BX1sEHJw8pHD6KNR3whCEUIQkCDgX3odZrQS+hjec3MoKn95pwPPA8VHH9Gj69m0tI4sIPwJViJ7QqmIBZujMf1lpw3NZT4l30UjurRKyQULY9dw9qTtnmB3R4BdyqQlAqjt+XdqkvaOye8NxP0UhCzRWF8goGVBwJODfMoKlt0b4JOuj/wAQ3jjxXUs15CotMW371u/jTf8ARd7SXR10J1XYsf3XDEA7W8x8R4qEOhfZ3lwBLMNegwAJoCTsCyq27lgNpYJIy0N2mtaHdQKR3ddbYsa6zt5wpyGxVVo7eU9ina5jDJBIGlwacNV2NQDtFfnvVwxSBzQ4GoIBB4EVCsZ6PQhCrIQhCAQhCAQhCAQhCAUF6YLvklsTXRtLuqlEj6ZhgjkaXU2gFwrwqdinSQhB5corI6PHf0CLgZB/vPXN6SND/wBkk66Fv9HkOQ/qnn2fwnZ5bq73R4f6E3g+Qf6yfqo3EoLlzbNpBZZJOqZPG59aaocDiKkgHImgOHBcrTrXNn1BUMedWQiuAIwBIyBOfKm1RHQrRGcWhj3dmKN+uT75aOwG0zGOJ4EcgtaqVNARVVTqparas11TP9nVG92HwzXVs1wsGLyXnd3R5DH4omuHG0uNGguO4Cq6NnuWR3eIYN2Z+GC70UTWijQANwFE9GdaVmuuJns6x3ux+GS3UIRGveFiZNGY3ioPmDsI4hVtbbLLZnyWd3deMcMHtGRFcto81aK0rzuyKcASCuqatINCK50P0Usa5uKyssT3ODWipJo0BWnYoNSNjM9VrW/5QAsF3XTDD3G4nNxxd57PBbySYddaEIQqyEIQgEIQgEIQgEIQgEIQgwW+xsmjdFI0OY8armnaD8jx2KEXfonJYmOjZWaLXc9rgO20Op2XMHeodra13BT5CLKgrCDka0zpsO47ls2ayPf3GkjfkPMrNpF/5TOQ+alTMgi64lmuD/2P8G//AEfyXUs1ijj7rQOOZ8zithCJoQhCIEIQgEIQgEIQgEIQgEIQg//Z;strokeWidth=3;imageBorder=default;" vertex="1" parent="1">
          <mxGeometry x="149.5" y="940" width="216" height="233" as="geometry" />
        </mxCell>
        <mxCell id="9pm-4QH1z8hACaXUIANB-10" value="" style="shape=image;verticalLabelPosition=bottom;labelBackgroundColor=default;verticalAlign=top;aspect=fixed;imageAspect=0;image=data:image/jpeg,/9j/4AAQSkZJRgABAQAAAQABAAD/2wCEAAkGBxITEhUSExIWFRUXFxgXFRUXFxUVFxcYFRUXGBUXFxUYHSggGB0mGxUXITEiJSkrLi4uFx8zODMtNygtLisBCgoKDg0NFRAPFSsdFx0rKysrLSstKystLSstLSstKysrLSstMC0tLSstLS0rKy0rLS0tLS0rKy0tLjctKy0rN//AABEIAOkA2AMBIgACEQEDEQH/xAAcAAABBAMBAAAAAAAAAAAAAAAAAQIGBwMEBQj/xABFEAABAwEEBgcFBQQKAwEAAAABAAIDEQQFITEGEkFRYXEHEyIygZHwQlKhscEjM3LR4RRik7IkQ2NzgpKio8LxNFPSFf/EABcBAQEBAQAAAAAAAAAAAAAAAAABAgP/xAAeEQEBAQEAAQUBAAAAAAAAAAAAARECMQMSIUFRFP/aAAwDAQACEQMRAD8AvFCEIBCEIBCEIBCEIBCEjnACpNBtKBUKH390l3ZZah1oErx7EP2pqNhcOw083BV1f3TjO6rbJZ2RDY+U9Y/wY2jWnxcgvRzgBUmgGZKh9+9Jt2WaoNoErx7EH2pqNhcOw083Bedb80ntlr/8m0ySj3SaM/hto0eS5FUFuX704Wh9W2WzsiGx8p6x/PVFGtPi5V9e2llutLtaa1Sv4axawcmNo0eS4aEFr9HfSTPHSCV5kGTRISajcHnFp+HBXddN6R2hmuw/iac2nj+a8eMcRiMFanR3pXOCCWuqBTW1TqPbta45IvlfqFpXTeTJ4w9h/E3a07it1ECEIQCEIQCEIQCEIQCEIQCEJr3gAkkADMnADxQOQoffvSZdlmqDaBK8exD9qeWsOyPEhVzfnTjO6rbLZ2RDY+UmR/PVbRrT4uQXq5wAqcBtKiN/dJd2WWodaBK8f1cP2rq7iR2WnmQvOl+6U2y11/aLTJIPcJpH/DbRvwXGqgt6/unKd1W2SzsiGx8p6x/+RtGtPi5V1fmlNstZP7RaZJAfYLqR/wANtGfBcWqSqB+skqmVTmtJyQFUqeyDeszGAZefyKDCIzu+iyNiG0+X5p1UIrZskgjIcGNNPeFfmp1cmkjTQPGruOz9FXocuhddpANHZH4IsXlcFv1SJGHHbTJw3HerAsVpEjGvApXZuINCPMKgLjvB8LgWmrdrdh5bld+itoa+zMc01BLv5jgoV10IQqyEIQgEIQgEIQgEIWG2WlkTHySODWMaXOccg1oqT5BBx9M9KYbuszp5cTlFGDR0j6YNG4bSdgXmHSPSq2W17n2iZzwTUR1IiaK4BkeQpvz3krY0/wBLpLytTpnVbG2rYIz7DK7R7zsz4DIBRsOQZNZFVjy5LKyMnIFA1CzNh4+WPxWVsYGzzQazYych65p4g3lZ3D18kevFFNbCB62J5SIUBX180VR6/VHr81QJAUtPXzTSECoaaIRT19EHeue8aUY48irG0K0odZX0dV0Tj227v3m8R8R4KnWvopHc9461Gk47DvUWPUMEzXtD2kOa4VBGRBWRVNoDpb1DuplP2Tjgf/WTt/Cdo8d9bYaa4jEKpZhUIQiBCEIBCEIBcLTqPWu+0j+ycu6uVpW2titI/sZPgwlB5JviwmNx3Fc8Kd3lYxKwjbsUPFiLXkOGA+KLYyWSz4azhyH1Kfa58KBLPNTBaLiiMjHLYaarSCyxvog2kCm/1vTQUtfXzCKVIapEvP1xQAQD/wB/IpAEpw9fBAURT19EAo9fqgaQlqgpqBxCfFIQdyY1IfX0UErum8NcUJ7Q+Ktfo90upq2aZ3ZyiefZ3MJ3bt2WWVBWectNQaKV3Zbw8V27Qi+XptCgvR/pb1oFnmd9oMI3H2gPZJ94fHnnOlWbAhCEAhCEAtK+2a1mnbvikHmwrdWO0M1mObvaR5hB5tCjmkT9WTm0KRBcW/7NrOB4AfEo1UZc6qSqfIyhWMoycgFIhBsRPWfD9fqtELZifsRWX1yKD6+oKT14JTT181AlUV9fVKiqAafW470tU0j19EoKBK+vmEEevqlPr80iAKbRKR6+iQKg9fotmxWktIIzWumulAzPkgm92W+tHNJBG44g81dWg+lQtTOqkNJmj+IB7Q47x48vMcF6uZ3B55eSxWm8pZO9I4j3a0b5DAoa9moXmzo808tFn1YOtOqO413aYR7tD3eYorz0X0oZa6tLdSUCpbWocNpafpsrtQxIEIQiBCEIPNtsbqyPb7ri3xBWhbW4jiPqVIr2s4661A+zPLTmJCAo7bjSleKNI/eVj3LkkKSzTNIouPbbPTEIjRQhIiHJzSmBKg22PBTitRjqLabiil9folr63pnr1xTq+vqoFpX18Uev1RX19eSQuA4IHM9etyT1+iwPtA2BYnzE7VRtPcBtWF9o3LAhEK55OZSIQgELJBA55o1pceAqpRdGgFrmoXNEbd7s/L8qoIo00U/0Q0sLSzWfqStNWP2Op9dhG2qkd0dG9mjoZSZXccB68lKP/wAazanVmCMsOwtB+JxrxUakTjRu+2WqIPbQOGD2+6fyOw/khV7dV0vsUzZrI86laSWd5LmuYT2gx5xBpiAaioGSVVLFqkqIaR9Jd3WSrTN1sg/q4aPNdxdXVHImvBef7zvC2zgtltE72nNr55HtPNpdT4LVu/Ru0S4RQySfgY9/xaMFn3x1/n9T8xvX7po6Sad8UYaJZHPo6riNZxdw37lxH2+SRg1iSQ6mtvBGR5U+S3bw0dls7nNljc1zKa7TQuAIBrqg7iCt4XZH1TXg6wJFDvwdsV236S+nOZ89bXGgjJW6LMS1brIgMgsgCMItaoNU8FrqS2+yBwqPFR6aItKrLGEIQgULJG+ix1TdZBu7K7N/1WN0wHHktaqEGV05OWCxIQgVCAF17p0atVoNI4nU2kigHrig5CcxhJoASdwxKsu5+i8YG0S/4Wfn/wBqa3Xo1ZYPu4W194gE/kPBF9qnrn0MtlooREWt952A8N6m1z9GMTaGeQvPutwHmfyVgpaKNY0LvuaCEARRNbTbSp8zit8BLRCK4Ol1/myQ67I+secm5NA2udtoNwz4YlcbQbSu0WqQslDSCwu7LS0tLS0bzVp1sORXevm5HSytkY9o7Oo9j2F7HNqSMA4UIJKyXDcMVladTFzu885mlaNAHdaKmg4oOq1KlYMQEiDqXJ0f2CzUIiMrx7cx6w4bQ09gHkApQ0AYDAJUKsW2+VGdKEdLxl/ebGf9to/4qDMY6MmMfdOOs0e47a0cDWqsPpdjpbwfehYf9Tx9FB5x2VFYEqaE5A4rlXnY64hdRBbUUKoh720TCutedjoahcu0wubSowIqDvBRljJQmp8bCSABUnADeqFQpXo7oLNaBrkhkdSA73qZlu8ZitKYKe3ToBZYqFwL3bzh+vxUWRUdiuqaXuMJ4nAKX3f0by6glmcA05hpBIHh+isJ1mbHVoaAOAokui39W/qZMWPyOzFRqcxrXJojY4QHNj1zvdj8PzqpKxoAoBQbAMB5Lmlpgk1Tix3dO7guiw1RTkgWZkJOQSzwOa0uINAKk7gMygxBKuUNI7LWnWjwBPyC2oL3s7yGtlbU5A1aTyrRBtoTqJpQKEVRVIgfF3hzCE6z95vMfNCJU5QhCrCoemaEi0wvpg6EtB4seSf5x5qvZ+6fW1eiNKrhZbbO6F2Ds43+48ZHlsI3EqgLxsUkTpIZG0ewkOHEfMba7lGo5gTgmhKgclSBAKBs0YcKLFLYRJEGHMZHcVnCysKohE8BY4tcKEKa6A6LGd+u/BjfvDkcRURtOxxGJOYB3nDTvSyB+q7DWBABIqMTtG1XHdV3Ms8TYox2W+bicXOO8k1KlJGvet7Waxxh0rhG2mqxgFSaDJjBuHgFjuHSSC11EesHAB2q8UOqTQEUJ2qMabXLLaZnNLDgAYnhriCA0azKgHHWrhn4Lp6C6NOswdLLXXe1rQwkHUaMTUjaT8hxUaSa0whwoo/a4M2HA7DuKky07fYtccVRo3ZaxKw2eY9od076ZHmtq57e0P6l5q4GnPdQbVD9JZJGOY1gPWkkMpmSM/AbTkKGqjl0XrLFaOsJMhqdajiA7f2xQ05YGm5MTXpKxxN1ahvnT4lJaZG0Iz3gAU8yqcn6UpQKNa1zsgMo2cGtGfrJRW+NK7Zaa9bO7V9xp1GctVufjVVEm0su6OGcujlhYwmoa4tc5vCmJI4pt13u1tALTC791zSweBb9QVX6ETV7WKVrwCwgbaAgtPIjAraoqUuS/prM4Fjqtriw90/keIVwXPebLTC2ZmRzBza4ZtPFGpWyhKQkoorLZPvGfib8whLYx9pH+Nn8wQjPScIQhVkKFdIGjIlLLXG37SMjrB78dcTxLc+VdwU1Qg836R3T1Ttdo+zdl+6d35LjL0Lfuh0Foa4DsF2YAq08dXYeXkqN0luOWxzuglGIxa4d17Tk4HwI5gqNOZVKmVSgoHVWRhwWEFPjyQNthwruIPkVdCpW3dwq6YsQOQ+SLD0iVKoppXJtV+xxv1DVxNAGN77ycGtbuJO04DE8Ft31axFC+Q7B/wBBVEbXM6Vx9t4JcfcY/YDsq3Cu51FYlqc2m7zaescXsa3VrLNWkeo04xsdsgZ5yOFTsCry/bziLjHZ2kRDDWcKPlPvO90bm7NtSuxpHpAXxMskR+yZQvIw614/4NyaOZ3Uh1pbQqpWxWoqE6OSq0YpqEcVvdSWlszD3SD634IjIlWO87VrvaWGhI/lDnGvmEtnl1mh29A8qddFltIllhrg5uuBuLSGnzDh/lUFUx6MIibU52xsTq+LmgfXyQi0SE0hOKa5RtlsP3sf42fzBKlu772P8bfmEKs9JqhCEZCEIQCjmnOi7bdZy3ATMq6F52Ha0n3XUofA7FI0IPLFpgdG5zHtLXNJa5pwIIwIPiFhJVx9LGiHWtNthb9owfbNHtsA7/Noz4clTtFGiVWaJYQs0KBltHYdyVzWV3YYf3W/IKm7UOyeSt+7TWCI742H/QEWNsFOATGBZAitO8Yg8apFQcwVXGl1kbA2jM5XOLnbTiSRyFQPAKx7S4guJyAw8VWfSBPrWhrNjGDzcST8A1JTqfCKprrM5/ZaKmhIFaZCuayFYrQ8hpLc1WGrd0I6wa7TTI1GIrkaKTy2cQlpoDC8UOGS4tnnfLqhzQdUU1qsGGeO/wA127qtQA6iU1if3HH2SdhUWOVe90Oi7bMQ5pDTu1hktSxMIYAVNLsYGuNknxY77tx45Cq5F93I+zyahFRmx28fmELHJVn9GV2lkD5yMZTRv4WVFfFxd5BQTR253WqdsTcBm93utGZ57BxIV1wwtjY1jBRrQGtG4AUCpDiUwlD0wqNNu6/vo/xD5oS3R99H+L6JFWek1QhCMhCEIBCEIAqi+k3RD9kl66Jv9HkOAGUbziWcjiR4jZjei1b0u+O0RPhlbrMeKOHyIOwg0IO8IPLqyQ7V1NKtH5LFaHQvxGcb9j2HJ3PYRsIK5cSjRZ+6eStu4jWzQHfDH/I1VLLkeX0VsaLY2Oz/ANzH8GgIsdIBPaEoCWiK15I6kjeP0VS6dwltrdX2mtcPLV+bSrhcNu5RHT/R508YmiFZI61aM3NOJoNpGdOaqVVaQhOIRRGWjLd4JwNOGa6V3saB1bsWnLh4rGAlogl37HrRNic6r2jB5zqNnJdm6rQ21xOss/ZmZ3XbcMnA/Nc/Ryx2mWMvdEdRoqJDhrAUwAPew2hLedkcC2aI0kZiDv4FZxuVIdDWxxGSAsEcwdV9PbGxzeHAYYlSVxUMjtYtcbZozqWiLZtwzaeBUjue8ROyuThg5u0EZpKY5elmlMdiaCWF73d1owAG9ztg8ynaLX+bUHa0YY5oa7Akij9amYz7NeRC1780WfPO54dGWSNAc14cSwtFA5lDTZt3ldjR24GWdgijq5zjVzj3nuIpU7sAOQCo7dxxEzsoMqk8BQ/UhIpNddgETKZuOLjvO7kEirFrdQhCIEIQgEIQgEIQgj2m+jDLdZyzAStq6F+53un911KHwOxefJ7O+N7o3tLXtJa5pzBBxC9SKqemm6I29Va2ikj3dU+mTgGlzSeI1aV3U3BFisH5K1NDnVsVn/uwPKo+iqs5Kz9BX1sEHJw8pHD6KNR3whCEUIQkCDgX3odZrQS+hjec3MoKn95pwPPA8VHH9Gj69m0tI4sIPwJViJ7QqmIBZujMf1lpw3NZT4l30UjurRKyQULY9dw9qTtnmB3R4BdyqQlAqjt+XdqkvaOye8NxP0UhCzRWF8goGVBwJODfMoKlt0b4JOuj/wAQ3jjxXUs15CotMW371u/jTf8ARd7SXR10J1XYsf3XDEA7W8x8R4qEOhfZ3lwBLMNegwAJoCTsCyq27lgNpYJIy0N2mtaHdQKR3ddbYsa6zt5wpyGxVVo7eU9ina5jDJBIGlwacNV2NQDtFfnvVwxSBzQ4GoIBB4EVCsZ6PQhCrIQhCAQhCAQhCAQhCAUF6YLvklsTXRtLuqlEj6ZhgjkaXU2gFwrwqdinSQhB5corI6PHf0CLgZB/vPXN6SND/wBkk66Fv9HkOQ/qnn2fwnZ5bq73R4f6E3g+Qf6yfqo3EoLlzbNpBZZJOqZPG59aaocDiKkgHImgOHBcrTrXNn1BUMedWQiuAIwBIyBOfKm1RHQrRGcWhj3dmKN+uT75aOwG0zGOJ4EcgtaqVNARVVTqparas11TP9nVG92HwzXVs1wsGLyXnd3R5DH4omuHG0uNGguO4Cq6NnuWR3eIYN2Z+GC70UTWijQANwFE9GdaVmuuJns6x3ux+GS3UIRGveFiZNGY3ioPmDsI4hVtbbLLZnyWd3deMcMHtGRFcto81aK0rzuyKcASCuqatINCK50P0Usa5uKyssT3ODWipJo0BWnYoNSNjM9VrW/5QAsF3XTDD3G4nNxxd57PBbySYddaEIQqyEIQgEIQgEIQgEIQgEIQgwW+xsmjdFI0OY8armnaD8jx2KEXfonJYmOjZWaLXc9rgO20Op2XMHeodra13BT5CLKgrCDka0zpsO47ls2ayPf3GkjfkPMrNpF/5TOQ+alTMgi64lmuD/2P8G//AEfyXUs1ijj7rQOOZ8zithCJoQhCIEIQgEIQgEIQgEIQgEIQg//Z;strokeWidth=3;imageBorder=default;" vertex="1" parent="1">
          <mxGeometry x="534.5" y="940" width="216" height="233" as="geometry" />
        </mxCell>
        <mxCell id="9pm-4QH1z8hACaXUIANB-31" style="edgeStyle=orthogonalEdgeStyle;rounded=0;orthogonalLoop=1;jettySize=auto;html=1;entryX=0.5;entryY=0;entryDx=0;entryDy=0;strokeWidth=3;" edge="1" parent="1" source="9pm-4QH1z8hACaXUIANB-11" target="9pm-4QH1z8hACaXUIANB-10">
          <mxGeometry relative="1" as="geometry" />
        </mxCell>
        <mxCell id="9pm-4QH1z8hACaXUIANB-11" value="" style="shape=image;verticalLabelPosition=bottom;labelBackgroundColor=default;verticalAlign=top;aspect=fixed;imageAspect=0;image=data:image/jpeg,/9j/4AAQSkZJRgABAQAAAQABAAD/2wCEAAkGBxMTEhUSExEWFhUWFxgYFhYXGRcYHRwYGxcYGBobGRoYHighGhslHhobITEiJSsrLi4uGB8zODMsNyotLi0BCgoKDg0OGhAQGi0mICUtLS0tLy8tLS01LS0tLS0tLS0tLTUtLS0tLS0tLS0tLS0tNS0tLS0tLS0tLS0tLS0tLf/AABEIAOEA4QMBIgACEQEDEQH/xAAcAAEAAgMBAQEAAAAAAAAAAAAABQYDBAcCAQj/xABDEAACAQIEBAMFBQYEBQQDAAABAgMAEQQSITEFEyJBBlFhBzJCcYEUI1KRoTNicoKxwUOy4fBTkqLR0iSDo8IVNHP/xAAZAQEBAQEBAQAAAAAAAAAAAAAAAgEDBAX/xAAlEQEBAAICAQQCAgMAAAAAAAAAAQIRAzEhBBJBcVFhE5GB4fD/2gAMAwEAAhEDEQA/AO40pSgUpSgUpSgUpSgUpSgUpSgUpSgUpSgUpSgUpSgUpSgUpSgUpSgUpSgUpSgUpSgUpSgUpSgUpSgUpSgUpSgUpSgUpSgUpXxmAFybAbk0H2lU3jPtIwURKQscVIPhgsVH8UpIRR9a0PCHjjEYrGCKSOFY3ViqoXZlKgnqkNg19rBR86zbdV0GlKVrClKUClKUClKUClKUClKUClKUClKUClKUClKUClKUClKq3ibx9hMGShZpZbX5UIDEC5F3YkKmx94g6bUFpqO4zxzDYVc+InSIdsx1P8K7t9BXFPEntdxUt1iZcOvlFaR7esrDKv8AKCfWqJicTLIeY7ZS2vNlZmdttc5u7W80FT7vwqYuv+I/bIi3XCQX8pJ7qPmsS9bD+LLXLPEPjHFYwkTzs6/g91B/7a6H5tc14k4GBDzlkDkG721ygmyuygEtGx0zqzW8r3A3sTjYcVEsLRw4Z41uhVVCMLMWZWzKBewJJYg/hYi9T9q66ROD48wsr6qNrAC3yAsK6b7KpVfGoym4yP8A5bVyTiPD5IXySLY9j2YeanuP1HcA6VteG+Pz4KZZ8O9mGhDC6sDuGHl8rHyNB+uqVR/AvtKw2PtG33OJ/wCEx0Y+cTfF8tD6HerxXSVz0UpSgUpSgUpSgUpSgUpSgUpSgUpSgUpXxjbU7UH2lVrxH48wGCus2IUyD/Cj+8f6qvu/zWrlviT214iS64OEQL/xJLPJ8wvuKfnmrNxunb8fjooUMk0qRoN2dgo/M1znxH7Z8JFdcKjYl/xaxxg/xMMzfQWPnXE8fisVizzpnlmPZnJIv5Rg6X/dT8qQYBc6oQ8jMLoI1YqfqoLML6HKLjXuCKndVqJvj/tB4jjSUaZkRtoYAUB9Dbrf5EkelVyLA73IBGpRbM9u+gNvmCbje1q3jGeUQZI4CrABFYguCLhmAuXj7CTMbdwdx7KjOzKuQgWEs4QKWIF2JByh76q6k3FiQdWrGvmHwhHKdIwiOL8ycOLLqC4YD3PJ4xobXsN/E+GKmRATOQ/UoZXta4LFluT2AkWw7MPhrbjWRlZbyscP1tbOkKs1lzN3UnXqAUEXJsMzVmVY1aBnkXW5kghYRENY6MrDpfUWLXRwLAgEXDHHxF1kWZCnRkASBURla2UM2ToRjsWW6t7rL8I3MVwxZDLG6iObPmEbhY1JYHouNIZCbZWB5T7b7aaTu0bRRKIlEhKGZFRt7HIw2Y7PH1L2Fh016jwaKYpWJHMJU2IINjZ1EZa+bb7tyBrYA+5QZYcawPIxamSNGyMZNGjYm45tyDe+itmAAYnqHTUNxThapKscEq4jOLqI+tt9mC9++n5DvKyszCRUCr1ixdCrZdQOXHm6M9tY3BDEkAk2A+YdpMO94Cj5lVpIrq6HQ2DFTeJwT+zJvfYn3aCQ8N+HcOVEt2xLixKL90sbX/xSSGBB1tuQjWU3FdI8PeMpYDypA+JjA1MYaR4gLgjmHTEZSLFf2ujaMBXK8LC0zSTYVsuIDBpI26M+xkBQ/dhS5HSzHMQ2iCy1PcI8SrOOXMEimUE5JSVh+FlIQnUiyNlbsrWZQxpvTNO9cM4jFiI1mgkWSNvdZTcf6H03FbVcRw+PmwxfEYeV0CBc8kwYRuFDkq0Vy8oylQHAzgRuc7Cwq++C/aHhcd91mEWIFwYiwIa25ifQSLpfzt2qtp0uNKUqmFKUoFKUoFKUoFKxYnEJGpeR1RRuzEKB8ydKoPiH2u4GC4hviG81OSO//wDRt/5A1Zs06HUTxzxLhMIL4jEJGeyk3c/wot2P0FcE8Q+1rG4g5VYwxm9xCeWbEW0kIL3G9xl+VUtVmkDOScp1dycoOtrsx1a503OprLVadl8R+2xVumEguf8AiTf2iQ3/AOZl+Vcy494xxuNOWWZ3DbRjRfkIk0P1zGouDCoACv32oBVLoASbDMWGYgkgA2UX0vUs2BaN5I5WWCIrqrKRqRdVdkuQTY2frVrEWJulY1ESYQizTMIw3koYkDQnKlgLdwSD6VvYPBElxHCTlTOJriWyA2zhLAMnnlBZfoQfsWQQoYoiwD3eQuFW4AtmDaQzLpYg2Ivo4NhklbmyEn/1Ile2VAkQEnmW+CSw1NrPvc20Daw+NEeRWkWZ5lVZI3RsjKGuiswuHH4JUIZSCCD22sVhMpkeF3CxqHcO1pIy1lBZo7kGxH3wFrHqDjWo105aSLI/LQaCII6sSdSpYZiktrHK90ca3IFx7w2MKNC2HiICe7JGS1m7krJpHfUtGxKtm0I0ag94DBZ5BDdSpuQ87DMJGFwo0Ko7nUZsyPuGJtZisPGsRXEPIZ0kst1EgJv+zSwPLYbmNyUbsdQRuYiFCWI5cZWNyyBxkJDfeLEJbAA+80BLC50KXBODhTRLmCxnK6WURMF92+Y3l1kTXqQkMnYHRqDNM0s0oCIsLOrIDAxRma2ZgqEgRgj3oXIHcG5udRsMsaZGBMivljRo2dyN2KaALltcxMAwvcMLgnbaJuXAJP2BUBTyrgJYlbuqh50U7WAZb3uNz5nhSOOaMqhW491jbKAMwZLAyDuJHKMtzqBvgzwu7zfc3jYxMt4pOaWUe+LygArb/DJZ13FhodfCQry43uDJey3RnLot7BZV6pRpZlUI67WNrHexo+8AnBsYxZhHHMzWPQzrEQJEGwdczLe11vrFtOx5aKozKSzZQ7THYAuysACvaQlGANiANCa25pLriLMkate6NIQCgI0CsQZ1Ui2pDjVcumU62KxoVw3wcvpacRSg5lscqKAJEPZwqsNQdOms8XCZAObipDh4pHzF5mMszPlzAgFbK9juAH02tVblnVWOTqNz964uza+9la4W/rcjzoMwaQKssayXj6hOdGsNNhuo2LEtbY2GlaM87uczuzm1rsSxt5XOtSuC4PiZIziozmKk7OTL06E2Gug7EgkbAg1u4TB4TFx2jbk4nT3z0SEg5rZRlAuBYBQeoaNWabtp8ZOMKRtiXdozojFlYaEe+VPvajV9f1rQliCNa7KwAYEDY2uLkG6G+gvre3Y3rf4H4ikgUxlRLC180L2Iub3IuCBudNtT5mt2XgAxLNLgJ2IXq5LSMJAFUG/UNDewGpBsxzC1qaZurf4G9r0sJGH4heSMHKJwLyLbTrHxj1HV/FXbeH4+KeNZYZFkjYXVlIIP1Ffj6SIqSrKVYaEMCCD6g6g/Orf4CxfEMK/Nw7iOJjd1mJEb201UdRPqov8ASqlsZZt+m6VqcKxyzxJMnuuL9x8xr61t1aClKUCuKeM/bPLG7w4eFYyptme0j9jcIpyrob6k/Ku11+TPavhOXxGUf70Zl/otTe2xG8d8WYnFPnlldz2MjZrfwrYIn8qivMWC5sRliJdkH38Z1dQNOYv449r91O4tYmLwMyo+Z4xILN0kkC5UhW03ysQ1tjlsdDWfg8kwnR4SwkVrhh2879iLaEHQgkGt1Db1HIQQwtcEEXAI011BuCPQ1OcPlidzMwlZspzRo2Z1NrZlz35sXmhN1vrmXeY4v4a5yfaMPEFmHVNhl91tdWhG9vOP8vXW5kGMReSiYfFxj7uOJHUyMokZlSxy3Jy5dc4KkWa4qVNcSvyRGOXFlLOY8oaQXHVkG5Rhukna4uVvb2ISckyoU5g1acO6mO1rxoCc8eh6DmIAuLgXGtC7KZE+zouIYAFJIyrZgbh4CCrRS3+EdLaWFwFrO2BleJJXLqFewEfUjSXv0sDy45SfwnU7ANoQ9SSRKZzfn5RYZZLoq73CnSSHa9tUsbfDJXieaV0jYFVSNMtpVAIS40YgZporkWIBsTc2PUZCGOFZlMarNmUkmJisgbQEnMo5EoObTKoe+99D7VpRC1s2RpGIGQOS4NrpLbKkpBIKpmBswUbrRjXj4XFBKySh4wUzMHUyKFIurZI2vLFf4gxKkC4B6q+Gb7oKESNlbMczMpVL7ckWGW9isv3eUjUqeo7WFhiWY8sB0KDrw7ZGuwBBSSQDLItrGDQeQPuhy3EMOYvyXl5kbIqZWJJuY2AziQg3MN0zHMF/DRrJiYDzpPtBkZmjzfeKJs2XSM5YtCmmXmDOQSc2X4sCxFxCjcuPXV3ZgxBJyc1g2SNQQQsibGwAW5Wvk88cYlCGMoR93JaXDgHsyLa7MuzIQ48mAutYJ5pzFHKElaGM5Vd7pCpcgdKXvyyCBqcmtrAELWD3g8dbfqRHOcLJkDOdLmWI2Vj2kWyP8QUm51peIacqNpAGkDCGIqRn2Uh8oCvrY8sZW9Nq0HZGsskrt5FFARNOyWFx5gBfrsdTEQlDY211Ug3DDzU9xp8wQQbEEVjW9NKATcrHfePDgAncWaTa3oCw/dFYcLj3icyQExWFjlJYWPZ81w1/UWuBYC1SHCI4sS2SZ2WYgiOQZQGbpCB83vtcnW6kgWuTlrJhMc+Ez4edDJBItioLhSLk5oy1gQW3YC/ToRatHzBcJnxkbOuI5siknlM5LanXV2FiQC2gKkDVgdK+cOxWEMZgxUHLZTbnRjrDC4ObQsTrqNV6dACLGLcFTzoiQmYhWXQre/SRmYrdb6Em4B1Ote1xys/MnjMz5szZndc/azler6qVPnes2MeCxcsDiRGaNiAdLjMtwbH8SErtqDatqXHxTS83EIxJPWsVlzi2+ZrlXvqT1A+QqQ4xicGQ8cKPJdbw2vGkDlzmUqSTL0qvWWNy3pVclkRPeNz+Ff7mt+j7WPjsWDGZUmaRlUfZxF1KAWIyTvIA5KhdgABmFgBe8VgMI98/N5WX4wxDfTLrXnAcKxmIOWGFgD2A1+vkPU1bI/ADQw83iOIMcQI+5hsWYnUAudL7+Y9ai54zuuGXqOOb8q9huIYeNwkUTTyMfey52J36VNxe/wAzVoTNfrVlbur3DD0IO3yqxcFhgbCOOERpFMCAxkH3mXX42zXJ7a2Gu1ZYMDIYSOJOiyXAhcENJrpYhB1i9tPntXP+eb/TjPWT3eZ4/Lo/gf8A/Rg/hP8AmNTtRPhaIR4aOLMCY1sbfM1LV6sbuPTuXzClKVoVyD2i+yvEY/HLLFJGkTA53a9wfIKPeN7ncDXeuv1zH2z+McZgEjGGKIr6M5XM4JzWy36QOnuDuKytio+MPZLhMHg2KYl3xKqZCWKhciA5jywCQt7dzqd65v4c4ukCtcdZOh9K0OIcanmZ3lmd2cWdmZiWANwDc+7fXLsLDSo+mjel64Dx+QswZ9Y20bY7mxJ+lWHiXBBiyJ8ORDjlIYWIRZiNbg7JL67HY+nO8C/7cfiQn9GP96uHhrHkQwqwYsxZPUFc51v6LU9KlamP4zFNAYsZE64qGyK4BzaFi11NgNbXUkXuzA7KNDh/EswZJCcz2DdbIkoBGktiAX00dtD8fnV74zwmLiCWciPFKLRznZwNkmt+Qfceo0rmnEMBLBI0MyFJENmU/oQdiD2I0NDS3ymzl1JdFSzriobhM91Kzxx2CnQ5ZujTQkjUa6gLGv3qsXcJJG8hVyQelZITcG40EhEtrLe4sRDcM4y8WxcELlDI+Rsn4HurB08ri67A20HyDGlmVC/JjtlugJIXUhS7HNlubanKL7WFqzZpOYziJWWbLmUsCixyIk8hSxJBjUkIy6kPdbgC9/er0vAsQY2ldFhRAHaSUgtJsc/SGjRipTqyFtb3c6GtzyZDkSLlMhBuSWkDCxBDiwXsQUC3Ft6zLhMViFeUB5FzNmNx71+Y1lvqbtmIUbt5mjUlHx3DxXaLDmWVgpaXEnOQyn4QCfwhrhgSWOwUVH8T43icT0yyFgCWCqqgDQXNlA0AA3va1avDWhzXmWRltoI3RLt2BLK3STa5GoFzrtW0mOlw5khjmV4ntnClzFILeuUkdja1yvcCgxcJhgZyJ5XjW2mRQxY9hckBPmdN9RWTDY9oOdBaJw/TIy5HJBWxCSrmAG2ovqNO99f7LdA6NmIBMi2sUsd9zmS1uoWsTYgaE+48SCqxyXKrfIw95MxubDQMpOpBt5gjYtjE+FPLEgIZTo2W/QSSArgjS9rg6g3te4IHqHGMtrgPltlz3OW2oykEED933T3BrbgxEcN2jBYlSC8vSLEm4ESk5lItfMWB8hUQ+MRdFGc+Z2rDcna2Y3xEkmV/sqySGMpJzQnKViqqHgSNVCMOo3I3PcWtVHmRdL5j5D/vUzwTwfjscM4TJDvzJDkS3mDuw/hBFXuLwJg+HwDESIca9xbS0Y31Kre6+rEgm2gqM+THHt5+T1GODnnBeBYzGnLDEQl9WGij+Jzp9N/Sr9hPAWGwEP2nFMZSCBlj2uexc629Rl+tWfhWLPEsM0QV8LkK6xjpK6kBdBp6D0rJwThTYFWjvJieYRaNUsqjYkl2yj1ue3evNny3L6eHk5suT6/74anCccuOwzw4T/0jqVzAC/Sb7MLb2Ou+lZuGYB8LG0WKlOKVyOXEEaQ76nW+mo9B51PY7DqwCiR0QbpEQl/IZgLgei16bFEtk26Q30JIH10NTI5zBqS8MCDLCy4dTbOY0XObbDM1wNNNQfStrmgvYAZgt7kahSSN/Wx09KwRMecy9hGh+rM+vzsorR4lxaHCyM88gQMiKg3ZypctlUam2Ya7a1ci5FN8c8cxWH4nG2GlcMsCdK3YMWdywKahgQF/IeQrrHgLxJJjYC00SxyoQrhTdTcXDDfLfXpJNrb1y3xLixJMJFBAeKMm9r2K3F7ehGmtXv2RR/cTt5ygfkgP969fH1H0uPX8cX2lKV1aVzD278LabCLy1zOCbKNzYqdPW2aun1VPaT04QygXMbZrefQ2n9KnLpuPb8kGvlX7j3AI8ZH9swerG5eMaZj3sOz+Y77jU60JhbQ1suyzTajxAOVcoBsVJGmYHQXHn61Y+GSnEuI52ZGMzvIQMpByyFtOxudqqNbUMhY2Z7XFgxvpa2W/poBftSxjpOD4mvMC8wZWRcmmrG5Bsflbep/H4OHGxCHEHKyi0OIAu0Z/C34o/Ne3a1c54JxdI7iQBnChEvrZsyC4YaCwufI232qd4HxW+Jki1sev092O1vI6t86jWl7V7i/B5cLKYZlsw1BGqsvZlPda+YaFTu1tOwzMdQMqKNWY30Gg0Oorpd4MZAI5TniNzHIvvRt5r6eamqLxzhGIwMqZnsM2eGZACrEWsyk6qwsCVvpbvvWa2rejhYga8c/VdQsMjMY1XrHTcxkqPeNzoMpUWDFqww4mXAYgNFJnQ3I98JIl3SzggBiOoXFwGGhuKjZZC18zlrnNbQC/nYbm2lzfc1kw2JOUxFc6Ht3U+cba5TtfsRuO9alscRP2lzLCmuVeZGqgNmHvOAujqSdWFj5quhOtFiiQEkzOgFk11Tc9BPw3N8ux9DrWASiPUuQbEdB1sdxcaW9NawLi3chIkN20FgSx9B3/ACobk7Sv2tYtUAQjZ3s8m52FgqXGm219dai2x3aNNdgTr+VW/gHsxnkyvjJFw0bHQSFeY3oqE9P81j6GrtiuGRcLyDB4MPIRczygufKykbG2tltprXLLlxx/bzcnqZj05/wf2eYzEAS4hhhou7znKbeiHU/zZfnV6k8L4ThsKTQ4b7XIx/ayWZFtrmsOkenfTep/E8K//J4eKSbmQMM10todd7NY9tD/AFrd4Fg/sgGGiSR0DEvLIQqrcbIPi7aDzOtcMuXLL6eTPlzz/Uv9tCANxTCDmiTDkNrYHK+nkbErr571m4Hw37CvIj505ZgxawREGxYEm17XNgSTapLFwI0iuS7lCCi5iEUj4sotc/xXFfROXdkN+kKf+a/9LVHtRMf7fMfh1kKh2chTfKrFVJBBBbLqbeV7V6bEFnKbWUNp6lgB/wBJrFF+3ceUcf6mSoTxD4kgwUgkkYsZkVIkTUkxs+clvdUAuBvfQ6VcxVMUzE337r5RR/mzS/8AiKjON8chwcnMnb9oirEijMzFC5ew2AGZdSRUF4jkx+Jjw0mDXliVGM4QqCQCOWuewY2Bbaw1N6ko/CcM2HwwxKNnhjItcgqWILbd9N6bhP8AaN8T8VxjpBLgomUToTKyjMwVTaNQexN2Ogv61t4jwemLhwrTvIskcVvXM3U2YMLk3863ZuP4fCxrDETIY1CgAg2tp1Pt+V6rfEfEM81wWyL+FNPzO5/p6VeOGV7/AA64cGeTFx2MLOyA3CBEB02WNV7fKumeymO2DY/imY/kqD+1UbgPgzFYmzZOXH+OS4/5V3b9B611rw9wdcJAsKsWtcljpck3Jt2/0r1YTT3STHGRJUpSrYVCeNIM+DlFr6D/ADC/6XqbrHiYFdWRhdWBBHoayzcbH5U8HTtDiFUHpe6svYkKcv1vbWt/jXBIuIR/a8JbmfGhsLm2xHZ/XY/rXZOE+yvBQF5LPNIcxRpCLITtlVQBceZuflXEvCoaDE2/jVh2OUMRf6iovhc8qPIhUlSCCDYg6EEbgjsa811DiXCYOJw8+HonA1vpc292T+zf1G3NcXhnjdo5FKupsyncGrl2izT7A6i4YHzVhuGG2ncHY9xuPIzvCON5SiEfEXzd9UVLfLov9flVbrOuJITJoRe4uNQdjY+o3G1LNsXjwtjjBHiC6tZfvFG116tVv6L+lXjhnEYMTBkdRNhpd0OhB/Ep3Rwe4rkGHx8ii0hJVoyqnfpu2gPoWOna9XHwtNyFaAsCUY6g3BzAG4PlrUXwqX4V7jsMWHllRWeRUkKKSApIAB6vXW2m9r6XqFkxjv0r0jyH+9frU740hLTZxroR/wBTN/8Aaq7w+UpIrC1wdjt8jT43E55WS6W/wF4KXGTFZ3eNFXMSoFybgWu22+9jttXQ5MTFwyXkYPh4OW2eRsxkfS/S2pI17aele/AnF4pkukQjYaMAb6eYq9wym1r6f0rx+/POefD50zz5J5uvpWeO+FBjzHiDK8eZFJjdb2BXYC4Ktc638qleCgxKuHVJeXEpXnS2XMwOwU2JG+traCmFjVGZlZ5HawZ3YnQEkAKLKtr9hemFlMirIb9WtvLX9aiRMk3vXl6eFBJzep3F8pYkhQdwo0A+Z1pHKXL3v0sV/IA3/WtfhMg5TEnQSz3JOwEzjc7DSq7x/wAYxYGQw5TJLKTKoBsoRtFLMe/SdAD9KvHH8Nxk1v8AysuCP3k/kHUf/Eh/vUF4h8VQ4J8zXkacLylTYhBYln2Aue16ifFPCcdjOQ0LhYmhV5UDZQ8jXvcDUi2UdRO1T8fAIGgg+0xIzwwhCWtZdOrXYa96SxsQfiPD47Gw4Z8ORGsis06q2XN7vLUndgBm9NalsL4ZgbDYdcVEC8MZGp925u2oNhsNa18b4qhgQRYZc4UWGpCC3qdW+n51VuI8Vmn/AGjkjso0UfQb/W5qsePK9u2Hp88tW+FuxHibD4dBDAM+QZVAJygD986t9L1WOJcamn997KfgXRfqNz9b1L+H/AmKxFmZeTGficG5Hom5+tq6TwDwbhcLZgnMkH+JJYm/7o2X6a+tejHjk6erHiwwc24B4IxWIsxXlRn45AQSP3U3P6D1rpHAPBeGw1my8yT8b2Nj+6uy/wBfWrHSusirSlKVrClKUClKUCqg3gLBxDESxw5pXWQqXJbKzAnoB903O+/rVvr4RWWbbK/LfhWUxzpl+IEEdj0ki/1tUrxDh8HFYBLHaPEKO/8Ale26ns3+ort8nhjCwwz8jDRxs8bglVF/dOgPYeg0r8/eFbrPGVvs17eWU7+l7Vzvhc8qLjcI8TtHIhV1NiD/AL1HrWCurz4WDisGawjxCga91PkfxRn9PzFcz4pw6TDyNFKuVl/IjsQe4NXLtFmmtmNrX08qkI5uSylJA6sLi2hHmGX4SPqPImo2vtUxalxXN1+V/wAgP7VoYvhwBzroBuP71j8Ptqw9BU2BXK+KvXuixezJ7Ssp8jXVg+lv9965D4X4ikMwL7bFhuvz9P1rrEDAgG4INtRqCP8AtXkylxr5WfHlx5Xfy+8Of7qJif8ADQ3P8IqqcQ8axYQjCKpkxCe+NQikm4uxF2NmB0FvUVE4zhHEpMYSwJw0c1oYwVULEklkOUae6BqdatfE/DuCLvPLGuZiC7k5dgB719NhoKzfxDz5k7Vvxb4cx+IxLcth9mUKUizBQWKqXOUaE58xu2utWrGcGwrASzxIWWNUZntoFB0zdhqdqh+L+NFF1gXOfxtcL9Bu31tVRxuPlnYGR2c9h2H8KjQfSrnFcvNejD0+WXm+Fw4h4wijUR4dc+UBQTcIABYW+Jv0+dVTH8TmnP3jlvJdlHyUaf3qx+HvZ5ip7NIORH5uOs/JP/K31rpnAPCGFwlikeaQf4j9TfTsv0Ar0YccnT1Y8eGHTmXh/wAAYrEWZxyIz8Tg5iPRN/ztXTPD/g/C4SxRM8g/xHszfy9l+gqwUrpMW3IpSlUwpSlApSlApSlApSlApSlAIqFbw/hoYJ1w+Giizo4PLRVvdT5Db0qapWWD8veGFYYiPKDub2v7tje9u3epmaKDikGVhkmTY7lT5j8SHuP6HWu6xcDw8SSrDBHHzA2bIqrckW1sK/OPB0cYmPIGLcwXCgk2zdWg7Wvf0rnZp0l2pfF+FS4aQxSrY9j2YeanuP8AZ1rSArrk+Iw/EIpYpFtJEZLC+oKkgOh8jYXH0PY1TsNgkTYf6/P/AHb0qvcz2ozgcDhiSpsRby1v3vU8kfmfyotexU27VI9qKsnhbxIYCI5CTCT8ynqPNfMfl61sV7RSSAASToANST6DzqbJZqpywmU1V74x44UErh1zH8bAhfmF3P1tVQxeNlnYGR2c30Ha/wC6o0H0FWvw57NcTPZ5vuI/3hdyPRPh/m/KuoeH/CeFwYHKju/eR+pz9e3yFhW44a6Tjhhh05j4c9nOJns0w5Ef7w6z8k7fzW+VdN8P+EsLhNY47v3kfqb6HZfpap2ldJjC0pSlUwpSlApSlApSlApSlApSlApSlApSlApSlAqPwXBcPDn5MEcZkvmKqATfzI/pUhSg/MvDMNlxzjvnnH1Ieopa/ReM8NYWGPESRQKskgZmfVjc6mxa+UegsK/PEcBuECktfKFAuSdrADeuOtOsuwV7jUsQACSTYAC5J8gBuavXhr2X4maz4g8iPyOsh/l2X66+ldU8P+FcLgx9zEM9rGRupz/Mdh6CwrZjay5SOWeG/ZliZ7POfs8fkReQj0X4frr6V1Lw94UwuDH3MXX3kbqc/Xt8hYVN0q5jIi5WlKUqmFKUoFKUoFKUoFKUoFKUoFKUoFKUoFKUoFKUoFKUoFKUoPjqCCCLg6EHyqJ4J4YwmEuYIFVje7G7Nr2zMSbelS9KaClKUClKUClKUClKUClKUClKUClKUClKUClKUClKUClKUClKUClKUClKUClKUClKUClKUClKUClKUClKUClKUClKUClKUClKUClKUClKUClKUClKUClKUClKUClKUClKUClKUClKUClKUClKUClKUClKUClKUClKUH//2Q==;imageBorder=default;strokeWidth=3;" vertex="1" parent="1">
          <mxGeometry x="530" y="550" width="225" height="225" as="geometry" />
        </mxCell>
        <mxCell id="9pm-4QH1z8hACaXUIANB-30" style="edgeStyle=orthogonalEdgeStyle;rounded=0;orthogonalLoop=1;jettySize=auto;html=1;entryX=0.5;entryY=0;entryDx=0;entryDy=0;strokeWidth=3;" edge="1" parent="1" source="9pm-4QH1z8hACaXUIANB-12" target="9pm-4QH1z8hACaXUIANB-9">
          <mxGeometry relative="1" as="geometry" />
        </mxCell>
        <mxCell id="9pm-4QH1z8hACaXUIANB-12" value="" style="shape=image;verticalLabelPosition=bottom;labelBackgroundColor=default;verticalAlign=top;aspect=fixed;imageAspect=0;image=data:image/jpeg,/9j/4AAQSkZJRgABAQAAAQABAAD/2wCEAAkGBxMTEhUSExEWFhUWFxgYFhYXGRcYHRwYGxcYGBobGRoYHighGhslHhobITEiJSsrLi4uGB8zODMsNyotLi0BCgoKDg0OGhAQGi0mICUtLS0tLy8tLS01LS0tLS0tLS0tLTUtLS0tLS0tLS0tLS0tNS0tLS0tLS0tLS0tLS0tLf/AABEIAOEA4QMBIgACEQEDEQH/xAAcAAEAAgMBAQEAAAAAAAAAAAAABQYDBAcCAQj/xABDEAACAQIEBAMFBQYEBQQDAAABAgMAEQQSITEFEyJBBlFhBzJCcYEUI1KRoTNicoKxwUOy4fBTkqLR0iSDo8IVNHP/xAAZAQEBAQEBAQAAAAAAAAAAAAAAAgEDBAX/xAAlEQEBAAICAQQCAgMAAAAAAAAAAQIRAzEhBBJBcVFhE5GB4fD/2gAMAwEAAhEDEQA/AO40pSgUpSgUpSgUpSgUpSgUpSgUpSgUpSgUpSgUpSgUpSgUpSgUpSgUpSgUpSgUpSgUpSgUpSgUpSgUpSgUpSgUpSgUpSgUpXxmAFybAbk0H2lU3jPtIwURKQscVIPhgsVH8UpIRR9a0PCHjjEYrGCKSOFY3ViqoXZlKgnqkNg19rBR86zbdV0GlKVrClKUClKUClKUClKUClKUClKUClKUClKUClKUClKUClKq3ibx9hMGShZpZbX5UIDEC5F3YkKmx94g6bUFpqO4zxzDYVc+InSIdsx1P8K7t9BXFPEntdxUt1iZcOvlFaR7esrDKv8AKCfWqJicTLIeY7ZS2vNlZmdttc5u7W80FT7vwqYuv+I/bIi3XCQX8pJ7qPmsS9bD+LLXLPEPjHFYwkTzs6/g91B/7a6H5tc14k4GBDzlkDkG721ygmyuygEtGx0zqzW8r3A3sTjYcVEsLRw4Z41uhVVCMLMWZWzKBewJJYg/hYi9T9q66ROD48wsr6qNrAC3yAsK6b7KpVfGoym4yP8A5bVyTiPD5IXySLY9j2YeanuP1HcA6VteG+Pz4KZZ8O9mGhDC6sDuGHl8rHyNB+uqVR/AvtKw2PtG33OJ/wCEx0Y+cTfF8tD6HerxXSVz0UpSgUpSgUpSgUpSgUpSgUpSgUpSgUpXxjbU7UH2lVrxH48wGCus2IUyD/Cj+8f6qvu/zWrlviT214iS64OEQL/xJLPJ8wvuKfnmrNxunb8fjooUMk0qRoN2dgo/M1znxH7Z8JFdcKjYl/xaxxg/xMMzfQWPnXE8fisVizzpnlmPZnJIv5Rg6X/dT8qQYBc6oQ8jMLoI1YqfqoLML6HKLjXuCKndVqJvj/tB4jjSUaZkRtoYAUB9Dbrf5EkelVyLA73IBGpRbM9u+gNvmCbje1q3jGeUQZI4CrABFYguCLhmAuXj7CTMbdwdx7KjOzKuQgWEs4QKWIF2JByh76q6k3FiQdWrGvmHwhHKdIwiOL8ycOLLqC4YD3PJ4xobXsN/E+GKmRATOQ/UoZXta4LFluT2AkWw7MPhrbjWRlZbyscP1tbOkKs1lzN3UnXqAUEXJsMzVmVY1aBnkXW5kghYRENY6MrDpfUWLXRwLAgEXDHHxF1kWZCnRkASBURla2UM2ToRjsWW6t7rL8I3MVwxZDLG6iObPmEbhY1JYHouNIZCbZWB5T7b7aaTu0bRRKIlEhKGZFRt7HIw2Y7PH1L2Fh016jwaKYpWJHMJU2IINjZ1EZa+bb7tyBrYA+5QZYcawPIxamSNGyMZNGjYm45tyDe+itmAAYnqHTUNxThapKscEq4jOLqI+tt9mC9++n5DvKyszCRUCr1ixdCrZdQOXHm6M9tY3BDEkAk2A+YdpMO94Cj5lVpIrq6HQ2DFTeJwT+zJvfYn3aCQ8N+HcOVEt2xLixKL90sbX/xSSGBB1tuQjWU3FdI8PeMpYDypA+JjA1MYaR4gLgjmHTEZSLFf2ujaMBXK8LC0zSTYVsuIDBpI26M+xkBQ/dhS5HSzHMQ2iCy1PcI8SrOOXMEimUE5JSVh+FlIQnUiyNlbsrWZQxpvTNO9cM4jFiI1mgkWSNvdZTcf6H03FbVcRw+PmwxfEYeV0CBc8kwYRuFDkq0Vy8oylQHAzgRuc7Cwq++C/aHhcd91mEWIFwYiwIa25ifQSLpfzt2qtp0uNKUqmFKUoFKUoFKUoFKxYnEJGpeR1RRuzEKB8ydKoPiH2u4GC4hviG81OSO//wDRt/5A1Zs06HUTxzxLhMIL4jEJGeyk3c/wot2P0FcE8Q+1rG4g5VYwxm9xCeWbEW0kIL3G9xl+VUtVmkDOScp1dycoOtrsx1a503OprLVadl8R+2xVumEguf8AiTf2iQ3/AOZl+Vcy494xxuNOWWZ3DbRjRfkIk0P1zGouDCoACv32oBVLoASbDMWGYgkgA2UX0vUs2BaN5I5WWCIrqrKRqRdVdkuQTY2frVrEWJulY1ESYQizTMIw3koYkDQnKlgLdwSD6VvYPBElxHCTlTOJriWyA2zhLAMnnlBZfoQfsWQQoYoiwD3eQuFW4AtmDaQzLpYg2Ivo4NhklbmyEn/1Ile2VAkQEnmW+CSw1NrPvc20Daw+NEeRWkWZ5lVZI3RsjKGuiswuHH4JUIZSCCD22sVhMpkeF3CxqHcO1pIy1lBZo7kGxH3wFrHqDjWo105aSLI/LQaCII6sSdSpYZiktrHK90ca3IFx7w2MKNC2HiICe7JGS1m7krJpHfUtGxKtm0I0ag94DBZ5BDdSpuQ87DMJGFwo0Ko7nUZsyPuGJtZisPGsRXEPIZ0kst1EgJv+zSwPLYbmNyUbsdQRuYiFCWI5cZWNyyBxkJDfeLEJbAA+80BLC50KXBODhTRLmCxnK6WURMF92+Y3l1kTXqQkMnYHRqDNM0s0oCIsLOrIDAxRma2ZgqEgRgj3oXIHcG5udRsMsaZGBMivljRo2dyN2KaALltcxMAwvcMLgnbaJuXAJP2BUBTyrgJYlbuqh50U7WAZb3uNz5nhSOOaMqhW491jbKAMwZLAyDuJHKMtzqBvgzwu7zfc3jYxMt4pOaWUe+LygArb/DJZ13FhodfCQry43uDJey3RnLot7BZV6pRpZlUI67WNrHexo+8AnBsYxZhHHMzWPQzrEQJEGwdczLe11vrFtOx5aKozKSzZQ7THYAuysACvaQlGANiANCa25pLriLMkate6NIQCgI0CsQZ1Ui2pDjVcumU62KxoVw3wcvpacRSg5lscqKAJEPZwqsNQdOms8XCZAObipDh4pHzF5mMszPlzAgFbK9juAH02tVblnVWOTqNz964uza+9la4W/rcjzoMwaQKssayXj6hOdGsNNhuo2LEtbY2GlaM87uczuzm1rsSxt5XOtSuC4PiZIziozmKk7OTL06E2Gug7EgkbAg1u4TB4TFx2jbk4nT3z0SEg5rZRlAuBYBQeoaNWabtp8ZOMKRtiXdozojFlYaEe+VPvajV9f1rQliCNa7KwAYEDY2uLkG6G+gvre3Y3rf4H4ikgUxlRLC180L2Iub3IuCBudNtT5mt2XgAxLNLgJ2IXq5LSMJAFUG/UNDewGpBsxzC1qaZurf4G9r0sJGH4heSMHKJwLyLbTrHxj1HV/FXbeH4+KeNZYZFkjYXVlIIP1Ffj6SIqSrKVYaEMCCD6g6g/Orf4CxfEMK/Nw7iOJjd1mJEb201UdRPqov8ASqlsZZt+m6VqcKxyzxJMnuuL9x8xr61t1aClKUCuKeM/bPLG7w4eFYyptme0j9jcIpyrob6k/Ku11+TPavhOXxGUf70Zl/otTe2xG8d8WYnFPnlldz2MjZrfwrYIn8qivMWC5sRliJdkH38Z1dQNOYv449r91O4tYmLwMyo+Z4xILN0kkC5UhW03ysQ1tjlsdDWfg8kwnR4SwkVrhh2879iLaEHQgkGt1Db1HIQQwtcEEXAI011BuCPQ1OcPlidzMwlZspzRo2Z1NrZlz35sXmhN1vrmXeY4v4a5yfaMPEFmHVNhl91tdWhG9vOP8vXW5kGMReSiYfFxj7uOJHUyMokZlSxy3Jy5dc4KkWa4qVNcSvyRGOXFlLOY8oaQXHVkG5Rhukna4uVvb2ISckyoU5g1acO6mO1rxoCc8eh6DmIAuLgXGtC7KZE+zouIYAFJIyrZgbh4CCrRS3+EdLaWFwFrO2BleJJXLqFewEfUjSXv0sDy45SfwnU7ANoQ9SSRKZzfn5RYZZLoq73CnSSHa9tUsbfDJXieaV0jYFVSNMtpVAIS40YgZporkWIBsTc2PUZCGOFZlMarNmUkmJisgbQEnMo5EoObTKoe+99D7VpRC1s2RpGIGQOS4NrpLbKkpBIKpmBswUbrRjXj4XFBKySh4wUzMHUyKFIurZI2vLFf4gxKkC4B6q+Gb7oKESNlbMczMpVL7ckWGW9isv3eUjUqeo7WFhiWY8sB0KDrw7ZGuwBBSSQDLItrGDQeQPuhy3EMOYvyXl5kbIqZWJJuY2AziQg3MN0zHMF/DRrJiYDzpPtBkZmjzfeKJs2XSM5YtCmmXmDOQSc2X4sCxFxCjcuPXV3ZgxBJyc1g2SNQQQsibGwAW5Wvk88cYlCGMoR93JaXDgHsyLa7MuzIQ48mAutYJ5pzFHKElaGM5Vd7pCpcgdKXvyyCBqcmtrAELWD3g8dbfqRHOcLJkDOdLmWI2Vj2kWyP8QUm51peIacqNpAGkDCGIqRn2Uh8oCvrY8sZW9Nq0HZGsskrt5FFARNOyWFx5gBfrsdTEQlDY211Ug3DDzU9xp8wQQbEEVjW9NKATcrHfePDgAncWaTa3oCw/dFYcLj3icyQExWFjlJYWPZ81w1/UWuBYC1SHCI4sS2SZ2WYgiOQZQGbpCB83vtcnW6kgWuTlrJhMc+Ez4edDJBItioLhSLk5oy1gQW3YC/ToRatHzBcJnxkbOuI5siknlM5LanXV2FiQC2gKkDVgdK+cOxWEMZgxUHLZTbnRjrDC4ObQsTrqNV6dACLGLcFTzoiQmYhWXQre/SRmYrdb6Em4B1Ote1xys/MnjMz5szZndc/azler6qVPnes2MeCxcsDiRGaNiAdLjMtwbH8SErtqDatqXHxTS83EIxJPWsVlzi2+ZrlXvqT1A+QqQ4xicGQ8cKPJdbw2vGkDlzmUqSTL0qvWWNy3pVclkRPeNz+Ff7mt+j7WPjsWDGZUmaRlUfZxF1KAWIyTvIA5KhdgABmFgBe8VgMI98/N5WX4wxDfTLrXnAcKxmIOWGFgD2A1+vkPU1bI/ADQw83iOIMcQI+5hsWYnUAudL7+Y9ai54zuuGXqOOb8q9huIYeNwkUTTyMfey52J36VNxe/wAzVoTNfrVlbur3DD0IO3yqxcFhgbCOOERpFMCAxkH3mXX42zXJ7a2Gu1ZYMDIYSOJOiyXAhcENJrpYhB1i9tPntXP+eb/TjPWT3eZ4/Lo/gf8A/Rg/hP8AmNTtRPhaIR4aOLMCY1sbfM1LV6sbuPTuXzClKVoVyD2i+yvEY/HLLFJGkTA53a9wfIKPeN7ncDXeuv1zH2z+McZgEjGGKIr6M5XM4JzWy36QOnuDuKytio+MPZLhMHg2KYl3xKqZCWKhciA5jywCQt7dzqd65v4c4ukCtcdZOh9K0OIcanmZ3lmd2cWdmZiWANwDc+7fXLsLDSo+mjel64Dx+QswZ9Y20bY7mxJ+lWHiXBBiyJ8ORDjlIYWIRZiNbg7JL67HY+nO8C/7cfiQn9GP96uHhrHkQwqwYsxZPUFc51v6LU9KlamP4zFNAYsZE64qGyK4BzaFi11NgNbXUkXuzA7KNDh/EswZJCcz2DdbIkoBGktiAX00dtD8fnV74zwmLiCWciPFKLRznZwNkmt+Qfceo0rmnEMBLBI0MyFJENmU/oQdiD2I0NDS3ymzl1JdFSzriobhM91Kzxx2CnQ5ZujTQkjUa6gLGv3qsXcJJG8hVyQelZITcG40EhEtrLe4sRDcM4y8WxcELlDI+Rsn4HurB08ri67A20HyDGlmVC/JjtlugJIXUhS7HNlubanKL7WFqzZpOYziJWWbLmUsCixyIk8hSxJBjUkIy6kPdbgC9/er0vAsQY2ldFhRAHaSUgtJsc/SGjRipTqyFtb3c6GtzyZDkSLlMhBuSWkDCxBDiwXsQUC3Ft6zLhMViFeUB5FzNmNx71+Y1lvqbtmIUbt5mjUlHx3DxXaLDmWVgpaXEnOQyn4QCfwhrhgSWOwUVH8T43icT0yyFgCWCqqgDQXNlA0AA3va1avDWhzXmWRltoI3RLt2BLK3STa5GoFzrtW0mOlw5khjmV4ntnClzFILeuUkdja1yvcCgxcJhgZyJ5XjW2mRQxY9hckBPmdN9RWTDY9oOdBaJw/TIy5HJBWxCSrmAG2ovqNO99f7LdA6NmIBMi2sUsd9zmS1uoWsTYgaE+48SCqxyXKrfIw95MxubDQMpOpBt5gjYtjE+FPLEgIZTo2W/QSSArgjS9rg6g3te4IHqHGMtrgPltlz3OW2oykEED933T3BrbgxEcN2jBYlSC8vSLEm4ESk5lItfMWB8hUQ+MRdFGc+Z2rDcna2Y3xEkmV/sqySGMpJzQnKViqqHgSNVCMOo3I3PcWtVHmRdL5j5D/vUzwTwfjscM4TJDvzJDkS3mDuw/hBFXuLwJg+HwDESIca9xbS0Y31Kre6+rEgm2gqM+THHt5+T1GODnnBeBYzGnLDEQl9WGij+Jzp9N/Sr9hPAWGwEP2nFMZSCBlj2uexc629Rl+tWfhWLPEsM0QV8LkK6xjpK6kBdBp6D0rJwThTYFWjvJieYRaNUsqjYkl2yj1ue3evNny3L6eHk5suT6/74anCccuOwzw4T/0jqVzAC/Sb7MLb2Ou+lZuGYB8LG0WKlOKVyOXEEaQ76nW+mo9B51PY7DqwCiR0QbpEQl/IZgLgei16bFEtk26Q30JIH10NTI5zBqS8MCDLCy4dTbOY0XObbDM1wNNNQfStrmgvYAZgt7kahSSN/Wx09KwRMecy9hGh+rM+vzsorR4lxaHCyM88gQMiKg3ZypctlUam2Ya7a1ci5FN8c8cxWH4nG2GlcMsCdK3YMWdywKahgQF/IeQrrHgLxJJjYC00SxyoQrhTdTcXDDfLfXpJNrb1y3xLixJMJFBAeKMm9r2K3F7ehGmtXv2RR/cTt5ygfkgP969fH1H0uPX8cX2lKV1aVzD278LabCLy1zOCbKNzYqdPW2aun1VPaT04QygXMbZrefQ2n9KnLpuPb8kGvlX7j3AI8ZH9swerG5eMaZj3sOz+Y77jU60JhbQ1suyzTajxAOVcoBsVJGmYHQXHn61Y+GSnEuI52ZGMzvIQMpByyFtOxudqqNbUMhY2Z7XFgxvpa2W/poBftSxjpOD4mvMC8wZWRcmmrG5Bsflbep/H4OHGxCHEHKyi0OIAu0Z/C34o/Ne3a1c54JxdI7iQBnChEvrZsyC4YaCwufI232qd4HxW+Jki1sev092O1vI6t86jWl7V7i/B5cLKYZlsw1BGqsvZlPda+YaFTu1tOwzMdQMqKNWY30Gg0Oorpd4MZAI5TniNzHIvvRt5r6eamqLxzhGIwMqZnsM2eGZACrEWsyk6qwsCVvpbvvWa2rejhYga8c/VdQsMjMY1XrHTcxkqPeNzoMpUWDFqww4mXAYgNFJnQ3I98JIl3SzggBiOoXFwGGhuKjZZC18zlrnNbQC/nYbm2lzfc1kw2JOUxFc6Ht3U+cba5TtfsRuO9alscRP2lzLCmuVeZGqgNmHvOAujqSdWFj5quhOtFiiQEkzOgFk11Tc9BPw3N8ux9DrWASiPUuQbEdB1sdxcaW9NawLi3chIkN20FgSx9B3/ACobk7Sv2tYtUAQjZ3s8m52FgqXGm219dai2x3aNNdgTr+VW/gHsxnkyvjJFw0bHQSFeY3oqE9P81j6GrtiuGRcLyDB4MPIRczygufKykbG2tltprXLLlxx/bzcnqZj05/wf2eYzEAS4hhhou7znKbeiHU/zZfnV6k8L4ThsKTQ4b7XIx/ayWZFtrmsOkenfTep/E8K//J4eKSbmQMM10todd7NY9tD/AFrd4Fg/sgGGiSR0DEvLIQqrcbIPi7aDzOtcMuXLL6eTPlzz/Uv9tCANxTCDmiTDkNrYHK+nkbErr571m4Hw37CvIj505ZgxawREGxYEm17XNgSTapLFwI0iuS7lCCi5iEUj4sotc/xXFfROXdkN+kKf+a/9LVHtRMf7fMfh1kKh2chTfKrFVJBBBbLqbeV7V6bEFnKbWUNp6lgB/wBJrFF+3ceUcf6mSoTxD4kgwUgkkYsZkVIkTUkxs+clvdUAuBvfQ6VcxVMUzE337r5RR/mzS/8AiKjON8chwcnMnb9oirEijMzFC5ew2AGZdSRUF4jkx+Jjw0mDXliVGM4QqCQCOWuewY2Bbaw1N6ko/CcM2HwwxKNnhjItcgqWILbd9N6bhP8AaN8T8VxjpBLgomUToTKyjMwVTaNQexN2Ogv61t4jwemLhwrTvIskcVvXM3U2YMLk3863ZuP4fCxrDETIY1CgAg2tp1Pt+V6rfEfEM81wWyL+FNPzO5/p6VeOGV7/AA64cGeTFx2MLOyA3CBEB02WNV7fKumeymO2DY/imY/kqD+1UbgPgzFYmzZOXH+OS4/5V3b9B611rw9wdcJAsKsWtcljpck3Jt2/0r1YTT3STHGRJUpSrYVCeNIM+DlFr6D/ADC/6XqbrHiYFdWRhdWBBHoayzcbH5U8HTtDiFUHpe6svYkKcv1vbWt/jXBIuIR/a8JbmfGhsLm2xHZ/XY/rXZOE+yvBQF5LPNIcxRpCLITtlVQBceZuflXEvCoaDE2/jVh2OUMRf6iovhc8qPIhUlSCCDYg6EEbgjsa811DiXCYOJw8+HonA1vpc292T+zf1G3NcXhnjdo5FKupsyncGrl2izT7A6i4YHzVhuGG2ncHY9xuPIzvCON5SiEfEXzd9UVLfLov9flVbrOuJITJoRe4uNQdjY+o3G1LNsXjwtjjBHiC6tZfvFG116tVv6L+lXjhnEYMTBkdRNhpd0OhB/Ep3Rwe4rkGHx8ii0hJVoyqnfpu2gPoWOna9XHwtNyFaAsCUY6g3BzAG4PlrUXwqX4V7jsMWHllRWeRUkKKSApIAB6vXW2m9r6XqFkxjv0r0jyH+9frU740hLTZxroR/wBTN/8Aaq7w+UpIrC1wdjt8jT43E55WS6W/wF4KXGTFZ3eNFXMSoFybgWu22+9jttXQ5MTFwyXkYPh4OW2eRsxkfS/S2pI17aele/AnF4pkukQjYaMAb6eYq9wym1r6f0rx+/POefD50zz5J5uvpWeO+FBjzHiDK8eZFJjdb2BXYC4Ktc638qleCgxKuHVJeXEpXnS2XMwOwU2JG+traCmFjVGZlZ5HawZ3YnQEkAKLKtr9hemFlMirIb9WtvLX9aiRMk3vXl6eFBJzep3F8pYkhQdwo0A+Z1pHKXL3v0sV/IA3/WtfhMg5TEnQSz3JOwEzjc7DSq7x/wAYxYGQw5TJLKTKoBsoRtFLMe/SdAD9KvHH8Nxk1v8AysuCP3k/kHUf/Eh/vUF4h8VQ4J8zXkacLylTYhBYln2Aue16ifFPCcdjOQ0LhYmhV5UDZQ8jXvcDUi2UdRO1T8fAIGgg+0xIzwwhCWtZdOrXYa96SxsQfiPD47Gw4Z8ORGsis06q2XN7vLUndgBm9NalsL4ZgbDYdcVEC8MZGp925u2oNhsNa18b4qhgQRYZc4UWGpCC3qdW+n51VuI8Vmn/AGjkjso0UfQb/W5qsePK9u2Hp88tW+FuxHibD4dBDAM+QZVAJygD986t9L1WOJcamn997KfgXRfqNz9b1L+H/AmKxFmZeTGficG5Hom5+tq6TwDwbhcLZgnMkH+JJYm/7o2X6a+tejHjk6erHiwwc24B4IxWIsxXlRn45AQSP3U3P6D1rpHAPBeGw1my8yT8b2Nj+6uy/wBfWrHSusirSlKVrClKUClKUCqg3gLBxDESxw5pXWQqXJbKzAnoB903O+/rVvr4RWWbbK/LfhWUxzpl+IEEdj0ki/1tUrxDh8HFYBLHaPEKO/8Ale26ns3+ort8nhjCwwz8jDRxs8bglVF/dOgPYeg0r8/eFbrPGVvs17eWU7+l7Vzvhc8qLjcI8TtHIhV1NiD/AL1HrWCurz4WDisGawjxCga91PkfxRn9PzFcz4pw6TDyNFKuVl/IjsQe4NXLtFmmtmNrX08qkI5uSylJA6sLi2hHmGX4SPqPImo2vtUxalxXN1+V/wAgP7VoYvhwBzroBuP71j8Ptqw9BU2BXK+KvXuixezJ7Ssp8jXVg+lv9965D4X4ikMwL7bFhuvz9P1rrEDAgG4INtRqCP8AtXkylxr5WfHlx5Xfy+8Of7qJif8ADQ3P8IqqcQ8axYQjCKpkxCe+NQikm4uxF2NmB0FvUVE4zhHEpMYSwJw0c1oYwVULEklkOUae6BqdatfE/DuCLvPLGuZiC7k5dgB719NhoKzfxDz5k7Vvxb4cx+IxLcth9mUKUizBQWKqXOUaE58xu2utWrGcGwrASzxIWWNUZntoFB0zdhqdqh+L+NFF1gXOfxtcL9Bu31tVRxuPlnYGR2c9h2H8KjQfSrnFcvNejD0+WXm+Fw4h4wijUR4dc+UBQTcIABYW+Jv0+dVTH8TmnP3jlvJdlHyUaf3qx+HvZ5ip7NIORH5uOs/JP/K31rpnAPCGFwlikeaQf4j9TfTsv0Ar0YccnT1Y8eGHTmXh/wAAYrEWZxyIz8Tg5iPRN/ztXTPD/g/C4SxRM8g/xHszfy9l+gqwUrpMW3IpSlUwpSlApSlApSlApSlApSlAIqFbw/hoYJ1w+Giizo4PLRVvdT5Db0qapWWD8veGFYYiPKDub2v7tje9u3epmaKDikGVhkmTY7lT5j8SHuP6HWu6xcDw8SSrDBHHzA2bIqrckW1sK/OPB0cYmPIGLcwXCgk2zdWg7Wvf0rnZp0l2pfF+FS4aQxSrY9j2YeanuP8AZ1rSArrk+Iw/EIpYpFtJEZLC+oKkgOh8jYXH0PY1TsNgkTYf6/P/AHb0qvcz2ozgcDhiSpsRby1v3vU8kfmfyotexU27VI9qKsnhbxIYCI5CTCT8ynqPNfMfl61sV7RSSAASToANST6DzqbJZqpywmU1V74x44UErh1zH8bAhfmF3P1tVQxeNlnYGR2c30Ha/wC6o0H0FWvw57NcTPZ5vuI/3hdyPRPh/m/KuoeH/CeFwYHKju/eR+pz9e3yFhW44a6Tjhhh05j4c9nOJns0w5Ef7w6z8k7fzW+VdN8P+EsLhNY47v3kfqb6HZfpap2ldJjC0pSlUwpSlApSlApSlApSlApSlApSlApSlApSlAqPwXBcPDn5MEcZkvmKqATfzI/pUhSg/MvDMNlxzjvnnH1Ieopa/ReM8NYWGPESRQKskgZmfVjc6mxa+UegsK/PEcBuECktfKFAuSdrADeuOtOsuwV7jUsQACSTYAC5J8gBuavXhr2X4maz4g8iPyOsh/l2X66+ldU8P+FcLgx9zEM9rGRupz/Mdh6CwrZjay5SOWeG/ZliZ7POfs8fkReQj0X4frr6V1Lw94UwuDH3MXX3kbqc/Xt8hYVN0q5jIi5WlKUqmFKUoFKUoFKUoFKUoFKUoFKUoFKUoFKUoFKUoFKUoFKUoPjqCCCLg6EHyqJ4J4YwmEuYIFVje7G7Nr2zMSbelS9KaClKUClKUClKUClKUClKUClKUClKUClKUClKUClKUClKUClKUClKUClKUClKUClKUClKUClKUClKUClKUClKUClKUClKUClKUClKUClKUClKUClKUClKUClKUClKUClKUClKUClKUClKUClKUClKUClKUClKUClKUH//2Q==;strokeWidth=3;imageBorder=default;" vertex="1" parent="1">
          <mxGeometry x="145" y="550" width="225" height="225" as="geometry" />
        </mxCell>
        <mxCell id="9pm-4QH1z8hACaXUIANB-37" style="edgeStyle=orthogonalEdgeStyle;rounded=0;orthogonalLoop=1;jettySize=auto;html=1;entryX=1;entryY=0.5;entryDx=0;entryDy=0;fillColor=#f8cecc;strokeColor=#b85450;strokeWidth=4;" edge="1" parent="1" source="9pm-4QH1z8hACaXUIANB-13" target="9pm-4QH1z8hACaXUIANB-11">
          <mxGeometry relative="1" as="geometry">
            <Array as="points">
              <mxPoint x="916" y="663" />
            </Array>
          </mxGeometry>
        </mxCell>
        <mxCell id="9pm-4QH1z8hACaXUIANB-38" style="edgeStyle=orthogonalEdgeStyle;rounded=0;orthogonalLoop=1;jettySize=auto;html=1;entryX=1;entryY=0.5;entryDx=0;entryDy=0;fillColor=#f8cecc;strokeColor=#b85450;strokeWidth=4;" edge="1" parent="1" source="9pm-4QH1z8hACaXUIANB-13" target="9pm-4QH1z8hACaXUIANB-12">
          <mxGeometry relative="1" as="geometry">
            <Array as="points">
              <mxPoint x="916" y="1230" />
              <mxPoint x="440" y="1230" />
              <mxPoint x="440" y="663" />
            </Array>
          </mxGeometry>
        </mxCell>
        <mxCell id="9pm-4QH1z8hACaXUIANB-41" style="edgeStyle=orthogonalEdgeStyle;rounded=0;orthogonalLoop=1;jettySize=auto;html=1;entryX=1;entryY=0.5;entryDx=0;entryDy=0;" edge="1" parent="1" source="9pm-4QH1z8hACaXUIANB-13" target="9pm-4QH1z8hACaXUIANB-1">
          <mxGeometry relative="1" as="geometry" />
        </mxCell>
        <mxCell id="9pm-4QH1z8hACaXUIANB-13" value="" style="shape=image;verticalLabelPosition=bottom;labelBackgroundColor=default;verticalAlign=top;aspect=fixed;imageAspect=0;image=data:image/jpeg,/9j/4AAQSkZJRgABAQAAAQABAAD/2wCEAAkGBxASEhUQDxAVFRAVFRUVEBUVEBYVFRUWFxUWFhUVFRUYHSggGBolHhUVITEhJSkrLi4uFx8zODMtNygtLisBCgoKDg0OGhAQGi0lHyUtLS0tLS0tLS0tLS0tLSstLS0tLS0tLS0tLS0tLS0tLS0tLS0tLS0tLS0tLS0tLS0tLf/AABEIAOEA4QMBEQACEQEDEQH/xAAbAAABBQEBAAAAAAAAAAAAAAAAAQIDBAUGB//EAEMQAAEDAQQGBwUFBgUFAAAAAAEAAhEDBBIhMQUGQVFhkRMiMnGBobEzUnLB0SNCgrLwFENTYpLhBxaTouIkNXPC8f/EABoBAAIDAQEAAAAAAAAAAAAAAAABAgMEBQb/xAA3EQACAQIDBgMGBQQDAQAAAAAAAQIDEQQSMQUTITJBUTNxkRQiYYGx0SM0UqHBJELh8FNichX/2gAMAwEAAhEDEQA/APcUACABAAgCOrXY3tua3vcB6oAp1NNWcfvAe4E+gTsxXJbJpKjUMMeCdxkHwBzRYLltIYIAEACABAAgAQAkhABeG9AFLSekOiuwAS6YkxlH1TSuJuxQ/wAwkdqiY3tfPyTyiuSU9ZKBzD297Z9CUZWO5Zp6aszsqoHfLfVKzC5bpWhjuw9ru5wPokMlQAIAEACABAAgAQAIAQnaUAZlq05RZgJef5cuZ+SeViuZlfWOoewxre+XH5BSyizGfW0lXf2qjvA3RyCdkK5UKYCIALp4qDqRXVDys0GabtDQG3xhtIBPM5qDqU+69R2l2GnT9p/iD+hv0RvKX6l6haXYadN1/wCK7wDR8k95T7r1C0gZpWqc6rh3vI9Ebyn3XqFpCOt7iPaE8DWf9U95T7r1FaRCLTJhxEb77j80byHdBlkArU8Zjgetj5o3tP8AUvUMsuw0vpkTdH9Znklvqf6l6hkl2I71PiPEFL2il+oe7l2GFzRkZ8FF4ql3HupdiRtrI496j7XS7j3UiF1ScVF42n0uPcyG31F45dEPcvuAchYy/QNyWqGlKzOxVcOBMjkcFP2mL1Qt2+5q2XWmoMKjA4bx1T9D5KSrU31FlkbVi05QqYB913uuwPPIqaaejEaSYAgAQAIAEAYmn7QZFIHCJdx3BSiiLMOoxTIlZ4hU1a9OnzMnGEpaIYXrFPaUVyK5csO+rGlxWWePqy04FqoRQkrLKpOWrZYopaIRQJCFO4DSpqRFoRSuIRAWBK4WElFx2BFwsCMwWBGdBlCDuS3i7hlYtw7jyS3se48rF6M7jyRvod0GRgKTvdPJG/h+pCyPsL0LvdPJHtFP9SDI+wdA/wB08lNYun+oTpvsNdTcMweSujiKctJIi4SXQZKuUiFjU0VpupRIE3qe1pOXwnZ6K+FVog43OysFvp1m3qbp3jaOBC1RkpaFbViypCBAAgDldM1Pt3/h/KFZHQg9SjXqwJ5LHj8V7NRc1rovMto088rGY5xmZxXjd/NyzSd2dVRSVkPa+e9bKdZSK3EVaCAiYCgblFyS1Y7MkbZnHZzVEsVTj1JKm2Stse88lmlj3/aiapdyQWVm7zVTxtXuS3cRRZ2e6PNQeLq9x7uIvQM90KLxNXuPIheib7o5KO/qdwyoUMG4ckt7PuOyCBuHJLPLuFkKlmY7BKV2FglF2ASi7AJRcBZQASgAQA1zAcwOSsjVnHlbE4pkTrIw7I7lqhtCvHqVujB9BKVmcx1+lULXDI/rYttLa81qiqWGTOi0dpknq1wAffbke8bP1kuvQ2tSnwlw+hmnhpLQ2QZxGS6iaaujMKmByOnfbv8Aw/kCsjoQepQcd65O1lmhFM1YXVlerS2jJeXq0XHijoqVyu5qqUrDsX7NYXkS7AbN61xrTUdCGVXLDbI0ce9UTxFR9Sagh4aBkFmcm9SVkCiMRIBEACAESAEACABAAgBEAKgAQAIAEwBAAgAQAqYDgpxEOWmK4EDT0JbCHCmT1TN3gc/quzsvFNT3T0ehlxNNWzI3ZXoTCcnp727vw/lCnHQg9TNeuZtTliacNqxocuI0bSWyUGueN2ZHcszorOmTzOxsuEq+UbkE7Fao2Fhq0y1SOftWtliYS3prxBg9HTfVAO4ljSJ4KyGzsRNXUROrFF3R+lrPXnoarXEQXNxa8A5FzHAOHiFTWwlWlzqxKM1LQtyN6z2XcmJI3osu4CSN6dl3AJG9Fo9wC8EWiAXgi0Q4heCLQALw3J+6HES+NyPd7BZhfG5O8ewrC9INyLx7AHScE7rsFg6TgOSd12CwdJwHJPN8AsHSH9BGYLB0pTzsVhOkO9LMx2Q4VTvTU5LqKyHl8jirs+aLI2sSaKd9szv+RVuz5XxUPP8AhkK6/DZ1q9mco5PWD27u5voFOOhB6mY9czanLHzNOG1YxcVm0sWN0O8FnrSyq5OKuaDKyqhXG4HG62W51ptH7Cx92iwA2oh0F5cLwp55BsEjbeGwFdvZ2GVT8WXyM1aplVkcTbdI0qT3WcUXRTODm4yWnEQ0xEArsp24GX4mZa9KvZUp2ik665mNOD1iDEg7wd2Sor01Ui4y0ZZTllZ7Jo22CtSZWAgPaHRuJzHNeHrQ3c3HsdOLuriWm3UqbmsqVA1z8GAnPGEoUpzTcVwQ3JLgycqsZWbpCmapoAnpWtvEQYjDbltCtdKShn6EcyvYsyqiQqABMCC32jo6b6kTca50TEwJidispxzyUe5GTsrjdG2rpaTKt2L7ZiZjxTqw3c3HsEXdXLSgMp6WtwoUnVi0uDYwGEkkNGPeVbRpbyaiRlLKrlizVLzGuI7TWuPiAVGSyyaGndEkJDBMBtSq1uLnADiQPVSUW9EJtDgUmAJAOCAHNOfcfRTixMl0L7dnefyladmL+qh5/wAMqxHhs7Be1OScprD7Y9zfRTjoReplvXN2pyR8zThtWMXDZtJLPmsuK5CcNSwCubcuPO9KW6rZ7XarsioajXsfMQ0spkRGJ3eC9psyd8PGxzsRH3uJztstL61+oygarQD01ZoPaqAmXECARjlh1TsXQM5a0No2k2iKj/agxJxloxvAzhERHcZRwSuHG9j0vQdAss1JrhDrt4jdeJdHmvCYyanXk13OxTVo2Of1vspq16FIGC5rwDxzHotWBnkpTk+hVWV5JGnq1pM1WGnVwr0urUBzMYB3lB496z4uioSzR5WTpTurPUrWb/uVX/wj0pqc/wApHz+4l4rLuldLmm9tGjT6Su/ENmABvcfA8lVRw+eLnN2iiU52dlqZekNO2ujFOtTpMc/sPDiQ3EAuc2STHh4rTSwtGp70G2kVyqSjwZr6b0maDG3W361QhlJuQLjt7sRzCy4ejvJO/BLUsnPKjK0sbeyg91Y0n03MLXtYCHMvCJB2gT+s1ro+zyqJQun9SuWdR4krNIus+j6VRoBeWta2cgSTieRUd0quJlFhmy00x1XR9vDOlZbOkqRNzo23HcAcvIeCFUoOWVwsu/UMs7XTG6106j7IKjyWFob0tIEFrnOcwYngcQpYSUVWyrj2fqFVNwuLVrOslkvio+o94YKd8zdLm5NG4AEwhRVeta1kr3t1C7hC46nqzeberWiqa5El4fg124DcP1CHjLO0YrKG64cXxG6LttR9ntNKsZq0RUYXbSLroJ49U49ydWnGNSEo6OwRk3Fp9CDVvQdOrQbVtANQkEUwXGGMBIwAOZMnxU8TiZQm4w4dyNOCcbssaBBoWmrYw4mkGipSkzdBiR/u8uKhiLVKUavXRkoe7JxOjWEuFQIcNvcVKPUTJtB+3Z4/lK2bKX9VD5/RlOJ8NnXr2ZyzldYvbH4WqcdCD1Ml65u1OSPmacNzMYuGzaS0M1lxXIThqTrml5zeuWrItgD6brtdogE9l4910ZRJg8eXRwGPdC8ZaFVSmpcTnrLY7dRIbTsrmFpBaWXSGkTi197ivRR2rh8upieGk2bGh9WqjnitbCIBkUwZLjM9cjACfuhcrHbX3kXClp3NFLD5eLOqe6VwdTXY5vTR/wCtsn4luw/5eoUz54jdYbO6jUbbqIxbArt95pwk+nI7FLCzVSDoT+QVFledDNGWhtTSD6jDLXUGkcqefFOtBwwyi+j+4ou9S67CU7WylbbVUqmLtNt3eRDMG8SY5odOU8PTjHv9wulOTZFpmykWWraLQPt6pZA/htDgW02+EkqdCa30adPlV/n8RTXutvVk+kJbWsBqZAXTPv3WjHxIUKfGFZRHLhKNzb068Ns1Yuy6Nw8SIA5kLJhk3VjbuWT5WZlnq0G2CkLT7JzWtyJxkkYjLLNaZRqPEydPVFacd2sxDa9W+gY6rZrU+mGtL4LuqYE5iM+4q2GL3klCcEyLp5VdMNI2l9XRZqVO2bkmImKzRMcYRThGGKyrT/ANt07sXWBvSWKm+mQ7ouie6DOAZBmMs/JPD+7Xal1uE+MFY2aembO6n03StDYky4SOBbnPBZXh6illsWKcbXuYuhabnUbXaSCBW6QsB90NfB/3EeC11mlOnTXSxXDipPuGrGnaDLO2nWeGOYD2ges2SQW793gjFYecqjlFXTCnUSjZk+gQa1oq2y6RTcBToyILgIl3+0c+ChiLU6caXXVjhxk5HQrCXChMQ7Ye5TWjBljQI+3b+L8pW3ZP5qPz+hRifDZ1sL2ByzldY/bfhb81ZHQizJeubtTkj5mjDczGLhm0ks+azYrwycNSdcwvGvKAG3kAIXIGJKAMfSVhqPtNnqtAuU718yBE8Nq10asY0ZxerK5Rbkmaz2hwLXCQQQQciDmFlTad0WGDoPV91nrvqBzTSLXNYJN/EtInCNm9bcRi41aSjbj+xVCk4yuO0toOpWr9MxzKZY1nRuIvX3Ak9YbIw3/QoYmFOnkd3e9/gKdNyldErdCVqr2vtlYVGsMtpsbdZO929ReJhCLVGNr9XqPdtv3mamk9HU7Qzo6gMZtIzad4Kz0a0qUs0ScoqSszN/y2Xi7XtVWqwAhjTgAYgOOd4jYtPtlneEEmV7q+rNJmiqXQCzOBdTAjrZ4YgyMj3KnfT3m8XBk8iy5SgzVOhgHVKzmDJjqvU5ABaHjanRJPvYhukbFSx03M6IsHRxduxAgZAblmjOSlmT4k2k1Yh0doqjQDm0WwHGXS4unZtKnUrTqO8mKMFHQgOr9kvXv2dk9xj+nLyU/aqtrZhbuPYs6RZ9jUDR+7eAAP5TAAChTfvpvuOWhmau2FjrLSFak0uaHQH0wSOu4/eEhX4mo1VllfoQpxWVXRtXYwCyNloJAKpALsPcpR0YmWdXx9s3ud6Lfsf80vJmfFeGzrF685hy2sntvwt+asjoRepkPXN2r4cfM0YbmYxcI2klnzWfE8hOGpMuYXDHlAxkpgJKBhKACUgFQAoQAspADqgCaVwuRtrk9kE8chzKnktqRzDxf3geaOArjxe3+SLiuK+0Bol5AG8mB5qUU5OyRJXehXraaoMZ0l8FpMC7DiTtgK6OGqOWWxbGjOTtYqDWmzFpd1gQQA0txdO7ZzVzwNROxY8JUTVxLPrTZ3TeDmQJ6wz4CNqJ4GotOI54SpEmoax2VxjpLp/maR55KMsHVXG1yEsNUj0NKnUa4S1wI3gyOYWeUXF2asUtNaikKAhEAKmAuw9ymtGJlrV0fbD4XLo7G/NLyZnxXh/M6tetOYcrrL7b8DfUqyOhFmQ9c3avhx8y/DczI1wjcSUM/BZ8TyE4ak65heRVDimgGSmAkosMJRYAlIBQUAKSiwEFW0RgBLjkBmVOMLkWyajYycamLvd+6Pqnm6RIt9y2QBnySy21Fe+hWtVraxpc5wa0bSnGDk7RQ4wlJ2Rzlt1kqO6tAQPedn4DZ4rp0dnrWZ0qOA6zMmox9Q3qr3OPEzy3LowpRirRVjoQpQguCFbZWqzISbXYlFnankQnNi9A3cnlQszEdZGlGRCzsbSoPpm9SeWngY571CdFSVnxISUJ8yNmwayub1bS3D32j8zfpyXNr7P60/Qx1cH1gdJRqteA5hDmnIgyCuXKMouzRgaadmPhIQHIqS5WIuauD7b8LvULp7F/M/J/wZsXyfM6letOactrN7YfAPVynHQizHeubtXw15l+G5mRrhG4koZrPieQnDUmK5hcQ1TipIZFKYCSgYSgBQUALeQBWtVpgYZ7BvKshC5Fsv6NsRbi7Gq7M+6NwQ71JZYlbduLLtRwbgPEqc3GmssderIq74sydKaRZRbLsXHstGZPyHFKjQlVlZeppo0ZVHZHK2h9Ssb9Y4fdbsHcF3qOGjSXA7NKlGmrRGOIaJ2dyvLx1F4cJE5xiIQmJofOMRsmfGExD8ExWHSJiRO6cUyIUpcBGZwyJAxIxhNK5GTshA8QJ2gbN6Aa42GuEm6WnKcYyw+qGhL4DrFaalndep4sPbYTge7ceKy4jDRqx4+pXVpRqLjqdhYbYyswPYZG0bQdoPFcCrSlSllkcucHB2ZYdkVFcrK+pd1bH2p+A+rV1NifmH5P6ozYvk+Z069Yc05fWf2o+AerlOOhF6mK9c7anhLz+5fhuZjFwWbiSz581nxPIycNSZcwuK1Y4qSGQypWASU7ALKVhiyiwDKj00hMboqjfqGo7ss7PxH6D1CsqPLG3cr6m+TdbxOanfdU/iyHM/gZmkra2kwvd3NG87AqqNKVWWVGilSdSWVHJEue41qxlxyG4bABuXpKNGNKNkdqnBQWWI1zpVhclYjrDq5HMZZjiovQkuDuNY0lhmSJGeBjaknwJNcUSsYwhssN0B0g7pEfNTVrIhK92FMtIIIyZGIzzxnbmEJkXF6jz1iIAIhsdYYQRJ5hDdwskTtmQdznGMDgXTOeBwU7lduFvgRP7IxGDI7xjOWJ296G+A7cSQOknETgY4QB8kyHQCECFsVqdZ39I3GmcKjeG8cQsuKw6qxt16FdWmqkbdTs2vDmXmmWkAgjaCvPOLimmclqzsaOrY+1PwH1aursPx5f8An+UZMZyLzOkXqjnHL60e1HwD1cpx0IsxXjBc7anhLz+5fhuYauCzePoZ+CzYjkZKGpMVzi4pWh2KnEZCXKQhLyBhfRYBL6LAR1nYKcUJmvomjdptG/rHxx+ijzVCt8EWKz1Gcs0rhFdDjrbaenql37pmDOO8+P0XewWH3cLvU7WHpbuHxZVqvk8FsbubErIQJEhwSAW8N6YC1CYBAneBu/XqnexG12KKZdeOV4QBuwhMT4IBRdEEiYIznbIxhCBtMeyhiCSMBBwnkU0iLa4g2zACJ+7dGAG/6p2IuQraQBkE8d26fJCE3cVwUiI0jZsQBras2vB1ncez1qfwk4jwPquLtGjb318zDi6dmpo7HVsfaO+H5hW7C8WXl/Jx8Zyo6JeoOecvrR7VvwD8zlOOhFmM9c7angrz+5fhucYuAzeSUM1RiORkoakhXNLihaTirIoCuSp2ASU7AEosABADK2SaEzoKDhdBGUCOSqjwuQZkayWu5Sut7VQ3R3fe+nitOCpZ6iv0NmDpZ6l3ojnj1Who8V6F8FY7EVd3Iwolg2uSGkjMZc4lDJFS44jF7j4x6KvMyzIiOrZ2wZE96jdkskTWs/ZbO4eivRnlqTAqSIMUFMix7SmiLHsInHLamtSEr24Fa3sNF8j2bsxu4j5hOasxU3dWY8FJEmrDXIEFKt0dRlT3SL3wnA+SpxFPeU3EhUjmg0ek6tjru+Eeqx7CX4s/JfU85jOVHQL0xzzmNaPat+AfmcpxIsxXZLn7U8Fef3L8NzjFwGbySjms+I5GShqSFc4uM21nrFWw0ArypiElAxQgBwSAa8YJoDbo9kAbh6KnuQZy2m61+0RsYAPE4n1HJdvZ1PLTzdzsYOGWlfuUajpK3s3JWQgSJDmoGUzWvOw7PZbG3jzUJMnFdWMtQIBG0YKFuJZfgajdyvRmkOBUiDHAoIjgUyIIAtWch46N0ZdX6KyLvwKpq3EoimabnUj92C34TlyxHgoNWdixPNG4EpiI6gkEJMEej6luJYCczTZPJZdkpLEVbf7xZ5raCs7Luzp13zmnMa0e0b8H/sVOJFmK5c/angrzL8NzjVwGbh9HNZ6/IycNSQrnlxl2w9Yq2GgmV1MQJDFCBjwkAFAGhYassjaMOShNcSDOWtYitU609YmRxxjwmPBd/CS/CXA72Gd6ceBXC0GodKAGWqpdYSM8h3nBJsa1K9gZ1uDR5nAfNQiiyWhadQaXXj4jYYU7dSGaysTSpIrYoKYhwKZFjgUyLFBQIfSqXXB24/8A1NOzFJXViLSdT7du4sIPeDI9SnU5kFFe4xrikA2UCO//AMOyTRx3QO686FDAJe01bdo/yed2r4h167ByjmdafaN+D5lTiRZiOXP2p4K8/uX4bmGrgG4fRz5qivyMnHUkK5xcZVs7RVsNBMgCmIcAkMUBADoURioAKNS6eB9didri6nN3C0lru0DBXoKclKKcdD0NKSlFNBKsLRQUAQ27Jo/m9AVGWhKOotgyd8XoAlElMsqZULKYhZTEKCmIcCmRFlAglAGcKrnVWFxk9b0hQbbZYopR4F4lTKhsoEeh/wCHU9AZ8O68+Etn239W3/X+Tzm1fEOtXXOUczrT7RvwfMqcSLMRy5+1PBXn9y7Dcw1cBm8fRz5qivyMnHUkKwFpl2ztFThoDIQFIQ4IAUJAOASJCwkA1zJCadmBzJkEh2c4zmvQ03FxTjoegpNOKaCVMtFQMitmTT/N6g/RJjWoWE4OH83qAiI5FqVIgEpiCUERWpiHSmIJQAyo+ASgEinZGzUn3W+bj/ZRWpN8IlxzlMpGudgkB6lqYwtpwcwymDyKq2Q06lVrv9zy20HefqdEu4c85jWr2jPg+ZU4kZGI4rn7U8Jef3LsNzDVwDeSUM1RW5GSjqSlYS4zLWOsVKIMghSEOAQAoCQDgojHAJDHBqAOZ0mSKz5znDu2eS72EtulY7WEa3asV5Wg1igoGLUbLSNuY8P0eaBEFJ8O4Ow8diBluUxBKBBKZEWUAKCmIUoEVbVUGWwYlJkkh9lZdbj2nG87huHgIREJvoOlSKyewUOkqMp7Cet3DE+QVVepu6bkVVp5INnq2rgwf3t+ajsLlm/ijy2M1RsrvGM5zWykZY/ZBaeBzHz5KUSMjn3LBtTwl5/cvw3MIvPs3D6GaqrchKOpOVgRaZtqHWKcRkMKYhwCQCwkxjgFEYpGSaAkazilwAwdZrNBbVGR6ru/MfPkurs+pwcPmb8FUteJkNcuidVCygY9jkAR2ikPwnLgdyA+AUK33XdrYfe/umK5PKACUCCUxChyAGVKuwZoEQ0ad43j2Qf6nD5BLUloTuepFYkpiOj1VseDqx29Vnd9488PArk7Rq6QRzcZUu1BHe6uDqv+Iei6Ow/Dn5/wcLGcyNhdwyENsszajHU3ZEcjsI7kAcJaKTmOLHdppg/XuWHafgrz+5bhucjXAZvJLP2lVW5Rx1LBWEuKFpGKSAiup3AUBACwkxigIAUjLvQgJmhICO2WQVabqZ2jA7jsKspVHTmpIlCTjK6OEe1zHFjhDmmCF6FSUoqUTu0pqSuOvqVy2w4OQBKx+w4g5hADK1nkYYjzHf8AVD+BLg9SFr3tyN4cc+aWYTix4tW9p8k7ojZi/tG5p8k7hZjXVHd3dmlcaix7aPvYDdtPfuHmnqHBEjn/ANkyDYyUxD6VJzzdZ2oJxywG1Tpwc3ZGbFYiNCGZ/I7HVy2irZ2G5cc3qPZ7rm4OHETtXncZBwqyjLucbNn97udlq6Oo74vkF3dhr8GXn/CMGL515Gsu0ZAQBzutljECsM5DX8RjBPjh4rDtFN0fmXUOc5sLgM3Etn7QVVXlY46lkrCWlSu3FRWpIiupgLdQAXUgFDUgFI/XgmgJg1KwCkR+voiwGLrPoY1W9NSH2jR1o++Nw4hdDBYlQeSWn0NOHrZHZ6HI0qgOBzXYOxGd1wJQmSuKHIGSMqRkgCTpAe00HjkfJIE7CXWbjzCWVEs4l1m48/onlQs4CoBkAO7PmnYi5NjHPTIiSgRFabS2m0ueYAzKlGLbsiurVjTjmkyrYtPWYU3PdXqUqxD7gaHiYBLGmAQSSBnGea2wioK3U8xia8sRO706HY6gNf8As16oSXPN5xOZJGJXlsfPNWbNEVZJHo+rvsz8Z9Au5sVf07839Ec/F8/yNVdczAgCO0UGvaWPEtcIKjKKkrMadnc4fSejn0H3XYtPYdv4HiuDisK6TutDbTqZiGzdoLm1uVl8dS2VhLSvWGKh1JEd1SAW6gAupAKGpAKW/rwTQEsJgODB+ii1wJSBnH67kNX4gjnNYdWelmtZ8KubmnAVDtI3HyK34XFuCyz0/wB/Y00cQ4cHocf0haSx4LXjAgiCDxC66aaujq06qkrolTLAlAC3kAF9ABeQAkoEKmItaPsFWuYpNw2uODR3n5BVVa0Ka95lFXERprjqWatis3RihbbJUv3rxcQ/tAEAsqUwWluJwPjitlDFYbLwkecxVStWnd6djUDWPpCzWWzBtEta1z6lPABou4Bwlzo27ySqcXtOjTg40+LKqeHle8jYsdFtNjabBDWiAvLSm5O7Nx2Wg6JbSE5mXc8vKF7HZdF08NFPV8fU5WIlmm7GgugUggAQBBbLKyqwseJB5g7CNxUZwU1ZjTad0cbabC+hUuvxGNx2xw+vBea2hhnST7G+hUzDXPXENZGXApDFhSAIQIWEhhgi4C4b0JgPkb/NHABQ9u/zTuhDhVZvTvEB4tDN/kjPEOJQ0to6zWkRVZ1h2XtweO47RwMhXU8VKnyk4TlB3TOQt2rVenjRcKrNg7L+RwPgfBdGltCnLhLh9DdTxn6jKqucwxVY5h/maR6rbGUZK8Xc1xrwkArN3qRbmQvSDegd0K14JhsknIAST3AIbSV2Rc4rVluho20PMNpOG8uF0eefgqJ4qlFXcv5KJ4qnHqbNi1caMa7rx91uDfE5nyXPrbRk+FNW+JiqYuUuEeBuU4aA1oAaMgBAHgubKTk7tmVu+oGod6FwIktms9R/YY53cMOeQV1LDVar9yLf+9yEpxjqzf0XoEgh9aMMmDH+o/Jd3BbHytTren3MlXFXVoHQL0BiBAAgAQAIAgtllbVbceMNh2g7xxVValGrBwloyUZOLujjtJWGpRJvDq7HAYH6HgvH4rA1cPLirrv/ALodOnWjNfEzXvWMtGdI7enZDuKHnelZBcUE70AKkAsIAUBAxwCQDgEgHAIAeEAKEADgCIMEcUJ20Ar/ALFQx+yp9bB3UbiOOCs30/1P1HmfcShoqg0zToNneGSVY6leatdsHVfVlmho0t9nQI+GlHoE9ziZ6xk/kyt1Y9ZfuWG6MrnKk7xEeqsjs7FS0gyDr011LNLV+u7tXW97pPktdPYuIlzWX7/Qrli4LQvUNWWfvKjjwaA0fNb6Ww6a8STflwKJYuT0Ro0NEUGZUxO93WPmujS2fh6fLBfPj9SiVactWXQFrSsVipgCABAAgAQAIAEAIQgCnX0TZ39qi2d4EHmFmqYKhU4ygvQsVWa0ZSqasWY5Bze55P5pWSWyMM9E18/uWLE1EV36qM+7VcO8A/RZ5bDpPSb/AGJrGS6oiOqh2Vh/p/8AJUvYT6VP2/yT9s+Af5Wd/GH9B+qj/wDCn/yL0/yHti7CjVZ38Yf6f/JNbCl/yft/kPbP+pI3Vcbax8Gf3Vi2FHrP9he2PsSN1Zp7aj/ANHyU1sKl1k/2+xH2yXZErdXKO95/EPorFsTDrW/qReLqfAlboGz+6T+N3yKsWx8Kv7X6sXtVTuSt0NZx+7Hi5x9SrVszCr+xfuR9oqdyRujaA/dN/pBViwGGWlNehHfT7skbY6Qyps/oCtWHpR0gvREXOT6kjabRkAO4KxQitEK7HqQgQAIAEACABAAgAQAIAEACABAAgAQAIAEACABAAgAQAIAEACABAAgAQAIAEACABAAgAQAIAEACABAAgAQAIA//2Q==;imageBorder=default;strokeWidth=3;" vertex="1" parent="1">
          <mxGeometry x="804" y="235.5" width="225" height="225" as="geometry" />
        </mxCell>
        <mxCell id="9pm-4QH1z8hACaXUIANB-44" style="edgeStyle=orthogonalEdgeStyle;rounded=0;orthogonalLoop=1;jettySize=auto;html=1;entryX=1;entryY=0.5;entryDx=0;entryDy=0;strokeWidth=3;fillColor=#f8cecc;strokeColor=#b85450;" edge="1" parent="1" source="9pm-4QH1z8hACaXUIANB-14" target="9pm-4QH1z8hACaXUIANB-8">
          <mxGeometry relative="1" as="geometry" />
        </mxCell>
        <mxCell id="9pm-4QH1z8hACaXUIANB-14" value="" style="shape=image;verticalLabelPosition=bottom;labelBackgroundColor=default;verticalAlign=top;aspect=fixed;imageAspect=0;image=data:image/jpeg,/9j/4AAQSkZJRgABAQAAAQABAAD/2wCEAAkGBxMSEhISEhIWFhMXFxcTFRcUFRYdGBIVHRgWFhcSFRgYKCghGB0lGxUYITIiJSkrOi8vGB8zODMtNygtLisBCgoKDg0OGhAQGy0lHyUvLS0tLSstLS0tLS02LS8tLS0tLS0uLS0tLS0tLS0tLS0tLS0tLS0rLS0tLS0tLS0tLf/AABEIAMIBAwMBIgACEQEDEQH/xAAcAAEAAgMBAQEAAAAAAAAAAAAABQYDBAcCAQj/xABHEAACAQIDBAcDCAcFCQEAAAABAgADEQQSIQUGEzEiQVFhcZGhMlKBBxQWI0KSsdFUY3KissHSFVNigvAkM0Nzk6PC4fEI/8QAGQEBAAMBAQAAAAAAAAAAAAAAAAECAwQF/8QAKBEBAAMAAgEEAQIHAAAAAAAAAAECEQMhMQQSIkETYaEFFDJRUnGR/9oADAMBAAIRAxEAPwDuMREBERAREQEREBERAREQEREBERAREQEREBERAREQEREBERAREQEREBERAREQEREBERAREQEREBERAREQEREBERAREQEREBERAREQEREBERAREQEREBERAREQEREBERAREQEREBERAREQEREBExPiFByk62vbuva/mJkBkRMSPsREkIiICIiAiIgIiICIiAiIgIiICIiAiIgIiICIiAiIgIiICIiAiIgcvxvyg0kxDUXBADsBVXXLpbVOZOmXsPrNBd6sU3S4zKDqANAoPUAZVtu/NxiHNSqoYszWOv2m6x3g+U9ptbDgW4q93P8AnPZ9N/DuLh20dzMfbzub1N+TK5n+lqXeTFfpD+kHenFdVd/3fylaG2cP/fJ5wu1cP/fU/MTpnip/jH/IYVtfvZn93RNxdt16+IZKtQsvCZgDl5hqYvoOxjL5OX/JriEfEkowYGm4upuOaG06hPI9bWI5eo+noemmZp2RETkdBERAREQEREBERAREQEREBETHVJ1t1C+vInqBPwgYP7RpZsoq0818ts63v2W53n2ji1clUqISpswGpU9hF7iQ9PDOLXToC7lWchAR0hb61gBmA0y28JhoUc1VWqDO6XZsxN6NgSGCiowvewsF1vI1Kx8Qjny7R+UyAysbK2cS6l1rWDlwG4XCB551QhWXUe5ob253mtvVtHF0a1NcNRq1ksXqCkad0GoAswJ1Ounu8pEzkGLjE5ltLbmJbD/O6FeoihzTelUy8SmfZuwKgoQ/RK68xrzArj704y5/2mp5zTNiJhXe8dwicN+lOM/San3p9+lOM/San3pGGu4xOHDerGfpFT7xlk2NtbGvRzDEMxYEABQzplxKIz2CkkZCwvY2seyTFd+0TbHTYnLtvbz4mk4SmcYQMyl2oKodtMrAuoFufZ1TIN6a75ytSrTNmCioaRU/VMFYBQSp4hXQk8jyiK6TbHDduv8A7RX/AObU/jaR7VSbAkkDlry8OyWHaW7lY1qrZqXSqOwvUF7FiQSBMNHdSq3Krh/+o3los67cm/bKKoINPYaWI7k1R7VegOy7PbzyyL2nsSthwDUUFOWdDdb9l+Y+IF4reJJrLpH/AOfcPmxeIqe5Ryjxd1N/3D6zuzuBz/8AvcO2fnb5I9oNROJK1OHn4K3GW5AqDMBmBF8rtO4UaN8O7O5q5lchqhQXTUqCVAUAgAnTxvaY+on5avx+MS/E7j8Z9D90gThgt9AVKm5HBy2D07nLlAJAuekDa1gelPdEOKZKs4PRYEtnt7XQCjKL2t0eWonNrVOg3n2R+ADZSzMWa99VK9Q6IU8h2fidZvq1wCOR1kwh9iIkhERAREQEREBERASH27XdNFVWVhYhgTe3MWBF9Dy/KTEj9t0s1In3SD/KRIr9Tab2P1VLUWOVWBN9bXBvPB2qcutJbDMPaa9nYMx1Jvcganr065p4iodeR8Qb/EqRf4zReqdeQ+8fxMp2t0lqe3sjcTgDNZrsalswJF2drf4dO4aDlNXYe9PFxtd+iFNOyh3CqArDUk/tHq65XNpuSLX07By8hpKrVxi06gLi663ubaWOt+q3OWr3PaLeOl43r2ulUPTXKzvUBq1UWwdQwFOmCdbABSeq467ymWkliqlMgvTUKjEOgFuVs49JpcIgC5XUX0J7WFrkC/s3vpzE6L1ivUMq2me5Y8v+vKMs9Zf9ek9SizHaadFafGrXL5r9QFtGqaepPxm/b8JpYKiDXrm50qEjT9ZUBHpNeH+pTk8N/a+KZadFCzqjDJnUXZBcsE09i5J+JmLY2zmcEo1Th8s1RyzN+yDe3nN3abE02Xqsq/5i4UE/Br+Ik9g8MEQBRyFh4dUytPa8eEQ27tA61EVj+s6XodB8Jhq7Ao3/ANzTB7VABHgRykolAkschGpB11Y+8Li2vZefGw45FGPdZPxFvxldlKsY7YZGqWqWFuHWAYHuDe0D4mZNhUDVp1abUeFRKlQhN9eTFewXtbw+MtNaiDc9YHPtkevRObl9rl35WFu+4PlLRKJV7cajTGGqM4Fxx82a2hWirAi/LpAgTpexd4qj4OlkKMEQUqystyDyDW90jTu+M51tQLh8PWXrZ6h07GqEfwn0mLdzalSmwam1m5eI7DL+qnZhXhjy6x/b1QtcrSJ5XyOL2II1Ddqg69k312kw14KjlqrMo5lr6gjmx8+uVjC4gMobJY/4Gy+hBHlabCVO5/vL+Ov4Tj2W+J7DbwqhsKJsbCwe9z73SAJJvqSeqWXB+wvhfwvraUnZmHDVFFuZAPWbddz+QEvkvTVZIiJdBERAREQEREBERATxWUFWB5EEHwnuVr5R8a1HZ+IZCQxyUwQSCMzqp1HLokwKzWxQIDA6EBh4EAj0MjqmIlOwG8IpqKddioXRKoBIVfcqDnYX0I5cuWslBXzDMlWk6nrDrb8ZSYWhtY/EdEyp4iqAKtZh0AOEv+Ko/RyjtsuZvBTNraGOoofra2f9XRszHuJ5D4keBle2ttF8QNVFOmilaVNTohNgSSfbc9bd2gHKWrCJWDb1VqGApFWysDTW+nXTKsNe64kBjhj6K4Yu5HzkA0tUuQclri2ntr5yzb80M2zyR1OrW7gQv/n6TU3x2k7tsYk9GmEyns1oH8FE05J+SlI6RdfA7RXFpgjUtWcZgLra1mbU27EM+bOwW0K1fEUKdS9ShfidJbCzZTY211/CTWO25U/t2jiSekEsO4cKqtvUz7uZtSom0NqMrdKqahJ/aqM1/UTP3SviuYMY6rha2LWoTSpHK+oBBsp0AHY4k3uZVNVWdzdjqx01bPUN9O281N3cY42Jj6Knos4Zh4CiT6LNz5NsL9TWqE6ZrKO32bk93Sm3FPy1nyR8U9jhddPtAgftq2eny7cjjykts3aC1EBBty+HdITaj8PDkAjTJZjqVuwOfxHb3yIHHovnp5XptzGZbX5m2v8AMSs9pheq2GDdbDwY/hymClgApOpN9evT1kJhd51QWqpUT4Fl+BGvpNtN6KB5MSewI/5fjKpTHD09JC4pgW4am7EhfC5zH91fUTS2lt5yCKdlv1vzA/ZF/MyJwBs1Ph1DUrZ85Kg5QD7WYnqtcWkxAb9FSy9tmC91ypNvHSRu7tTUazY38UCooDa9MntBJQjy/KRGxsQMwGZUe/JtFf8AZPUT2eV5F+01dX2diOiJvpiJU8Ni3AAKH0mXEbZ4Qu9kB5Fjqe5FGrHuEwxd0zdKjmqF+pR6m4HpeW2co+Sbbz1sXWVtFeldQeY4bDLqNOVVybTq81iMhSSIiSEREBERAREQEREBK/v/AEFqbPxSPyZLAgXIbMMhAuL2ax5jlLBIPe3B1K9EUaVszMCbmwyrcn1yyYze0T4fmSvssKLt86A7Th1A8NakldkboJUo8VqjLmJ4elrJcgOwAbMdL5Qw8ddOlY/5OsU1LIrU7ixu1V9f2uib8+XhOaYrdypnamWTOK4wtrtrUJIuCFtlFjc93Llfq/FS8fGe2fvtHmEPi9m0qLtTqNVzjnw6aWsQCL5mvex5Td2bsSlVpmqlRlAcIprtSpqXGViObE9E307Z7q7v4hNBSZjlY2pqzWAZ0BNhyJQkHrFjJjcyklbgYdqTMqmviHJU5HJ4NNACpubANfxEi9K8dfd5wrabTifo4d3w9S9WkR0rlQtTLmzEEX8D5TV3l3fdKGzaiOxaqtMupCHKrHDg9WhvVPsgchJd62Z8ZSuQOJSpjU2UDDqSq3JIN6nK+luU+4mu5FFajE8NcqWGUIqtTy37fZQ687dhmF590RZau1mYR20N0im16GDR3NBqatUbo3FRhiGUX58qI5dnfPWwN2GqbRxVBqlQUKavkbQXZaqo1j18/Wb2Jx7cT5wzniqbhrjokKyA29n2ajdX2u20xYGviAGrUauSo+c1DUolwyu5bOACtrshsb20I6pSK70tNs7Qewdk1TsjF42tVqB6aiooDKAyMqFToNOd5v7Po4ilTKVapezLqTo13C2tzFhr4mbNPDslD5rTq2wzBBVRqWZ3CBQMr6ZbhRfQ9czVlBLNrdihOj/ZNxYG4XvtznTxUmu7DG99zFb2rjjSxRRlzU2p02seak0kBKnvy6g3BmKk2HBvw27eS+lyQPgJr73m2LU/qqP8HOYqVQTK3UtY8N9qlPUojr29ID+G08CqOsMe0cQ29b/hNfiTwaspqUnSxyKthQX4s3pa1vhPDbVZb8NFQnS4zFvgWJt5SOFWatbFAHU6dcaI7eKkw4T36ThmJ6z02UXPWbqZGrh6rX6JPb3ec6fhMLTGFOIIc1RRRKBVScrHi12JJBVbjo3bTnrrJ0/JFiqq8WrjwmIPS4a0s1JL/wDDvcE9hNvhLWmPBDl+B2JjbIEqZMwBUGta4PabZVI1BDEEWOnbENSrioQUqNU67hmY2JHja4PlL6myalLEnD4tVXEUmGW3+7qhlur0jYHKwBBv2EWBBEl9292jiqdKoGSmBTRENRySqo1IjOQoBbPROoI9o6SKZ5ktP9nz5B3dsZW4oIyUiqAgAhiy5gRzvYes7rOf7v7rnA1qNVWpGm9QqeHe93VgDmI1F7Dn2ToEWzekV37IiJVYiIgIiICIiAiIgJHbQa7MocI/CYKxI6LObBtedikkZDba3ep4l1diQQMugGovcc+WpMiw1tk4SlROc19cpV81VSGbonNbqtY+c4/tenVao70nWxrPiALJmFRiTmzEXPPledZ+g9DTpv5Lr6T4dxcPr0n8k09Jrw8n496U5Ke77cIr7Nr1MgfpZFFNbkdFBchR3C5l62BsmjwqQrVLZaDouR6eZKr1XZmIYj7OUfEy9ncDDe848OH/AEz2u4uH95z48PXv9ma8vqPyV9uK04vbO6pe0tnUihoYatwxUqq5d3Bym1EMzkXFjla4vrr2yh7Y2pWo1qlM4gnKx1Uggg6g3W45HtnchuRh7AZn/wC3/TPv0Iw/vVL9v1f9P4znmeohpEPz423arAg1nIOhBvr6SxbtYBiKOKaupAeqvDzXchhzyryUFdL21c9s7GNzMP2v49DT92ehudQ06VTzT+mK2yYnCY2MUD5wvafun8p4OIXtP3W/KdCG51D3qnmnlos9/RGhrq/mungQJv8AzH6fux/B+rhe+OEpVqwqCu1NgiJbgu3sgDq5yv1VZB0awYkgANRqLzI1JJsNNfhP0od06HvP5r+U8Pubhzoc5HYSpv36iZ2vFvprWsx9uF4JsIUHFZw9hmstwWtrlIqrpfuHhM4q4EZSc5NrEcNbdXbW1PfO1ruThPdJ+7/IR9CMJ1Kw+I/KYZK+vzztnhtlOHJp8y5dlJPcEDNa2vWSeq2t9OnsdKpAOMvfS3ArflafpAbjYTqU6ctV09Jm+h2F0urHxbn46TSk+3yrbZc2weMWlSFP20ZctRSjWsAuU2PO1m06wxGl7if2dvpVoUaaGpRxBHDp5mc03A0Uu4a5YDmeuw+2dZZ/oXhexvgw19J9G5eF91/vmTeYnxCKxMOb7f2yz1XxL1KFSrkWnSSkT9VlLm5YmzLdr66k8tD0ZfcKjhfmKUsRVRWV26LOVuMxcciD9s6jrHXaXL6G4T3G+9PP0JwfuN94yNj2e3DJ9260OLh6NGqKeJR/rUrU04gJTKyNlB5n2T/75m5SvDc3Ci1gw/zXv3G8sMpCxERLBERAREQEREBERAREQEREBERAREQEREBERAREQEREBERAREQEREBERAREQEREBERAREQEREBERAREQEREBERAREQEREBERAREQEREBERAREQEREBERAREQEREBERAREQEREBERAREQEREBERAREQEREBERAREQEREBERAREQEREBERAREQEREBERAREQEREBERAREQEREBERAREQEREBERAREQEREBERAREQEREBERA//2Q==;imageBorder=default;strokeWidth=3;" vertex="1" parent="1">
          <mxGeometry x="770" y="-451.33" width="259" height="194" as="geometry" />
        </mxCell>
        <mxCell id="9pm-4QH1z8hACaXUIANB-43" style="edgeStyle=orthogonalEdgeStyle;rounded=0;orthogonalLoop=1;jettySize=auto;html=1;entryX=1;entryY=0.5;entryDx=0;entryDy=0;strokeWidth=3;fillColor=#f8cecc;strokeColor=#b85450;" edge="1" parent="1" source="9pm-4QH1z8hACaXUIANB-15" target="9pm-4QH1z8hACaXUIANB-2">
          <mxGeometry relative="1" as="geometry" />
        </mxCell>
        <mxCell id="9pm-4QH1z8hACaXUIANB-15" value="" style="shape=image;verticalLabelPosition=bottom;labelBackgroundColor=default;verticalAlign=top;aspect=fixed;imageAspect=0;image=data:image/jpeg,/9j/4AAQSkZJRgABAQAAAQABAAD/2wCEAAkGBxMSEhISEhIWFhMXFxcTFRcUFRYdGBIVHRgWFhcSFRgYKCghGB0lGxUYITIiJSkrOi8vGB8zODMtNygtLisBCgoKDg0OGhAQGy0lHyUvLS0tLSstLS0tLS02LS8tLS0tLS0uLS0tLS0tLS0tLS0tLS0tLS0rLS0tLS0tLS0tLf/AABEIAMIBAwMBIgACEQEDEQH/xAAcAAEAAgMBAQEAAAAAAAAAAAAABQYDBAcCAQj/xABHEAACAQIDBAcDCAcFCQEAAAABAgADEQQSIQUGEzEiQVFhcZGhMlKBBxQWI0KSsdFUY3KissHSFVNigvAkM0Nzk6PC4fEI/8QAGQEBAAMBAQAAAAAAAAAAAAAAAAECAwQF/8QAKBEBAAMAAgEEAQIHAAAAAAAAAAECEQMhMQQSIkETYaEFFDJRUnGR/9oADAMBAAIRAxEAPwDuMREBERAREQEREBERAREQEREBERAREQEREBERAREQEREBERAREQEREBERAREQEREBERAREQEREBERAREQEREBERAREQEREBERAREQEREBERAREQEREBERAREQEREBERAREQEREBERAREQEREBExPiFByk62vbuva/mJkBkRMSPsREkIiICIiAiIgIiICIiAiIgIiICIiAiIgIiICIiAiIgIiICIiAiIgcvxvyg0kxDUXBADsBVXXLpbVOZOmXsPrNBd6sU3S4zKDqANAoPUAZVtu/NxiHNSqoYszWOv2m6x3g+U9ptbDgW4q93P8AnPZ9N/DuLh20dzMfbzub1N+TK5n+lqXeTFfpD+kHenFdVd/3fylaG2cP/fJ5wu1cP/fU/MTpnip/jH/IYVtfvZn93RNxdt16+IZKtQsvCZgDl5hqYvoOxjL5OX/JriEfEkowYGm4upuOaG06hPI9bWI5eo+noemmZp2RETkdBERAREQEREBERAREQEREBETHVJ1t1C+vInqBPwgYP7RpZsoq0818ts63v2W53n2ji1clUqISpswGpU9hF7iQ9PDOLXToC7lWchAR0hb61gBmA0y28JhoUc1VWqDO6XZsxN6NgSGCiowvewsF1vI1Kx8Qjny7R+UyAysbK2cS6l1rWDlwG4XCB551QhWXUe5ob253mtvVtHF0a1NcNRq1ksXqCkad0GoAswJ1Ounu8pEzkGLjE5ltLbmJbD/O6FeoihzTelUy8SmfZuwKgoQ/RK68xrzArj704y5/2mp5zTNiJhXe8dwicN+lOM/San3p9+lOM/San3pGGu4xOHDerGfpFT7xlk2NtbGvRzDEMxYEABQzplxKIz2CkkZCwvY2seyTFd+0TbHTYnLtvbz4mk4SmcYQMyl2oKodtMrAuoFufZ1TIN6a75ytSrTNmCioaRU/VMFYBQSp4hXQk8jyiK6TbHDduv8A7RX/AObU/jaR7VSbAkkDlry8OyWHaW7lY1qrZqXSqOwvUF7FiQSBMNHdSq3Krh/+o3los67cm/bKKoINPYaWI7k1R7VegOy7PbzyyL2nsSthwDUUFOWdDdb9l+Y+IF4reJJrLpH/AOfcPmxeIqe5Ryjxd1N/3D6zuzuBz/8AvcO2fnb5I9oNROJK1OHn4K3GW5AqDMBmBF8rtO4UaN8O7O5q5lchqhQXTUqCVAUAgAnTxvaY+on5avx+MS/E7j8Z9D90gThgt9AVKm5HBy2D07nLlAJAuekDa1gelPdEOKZKs4PRYEtnt7XQCjKL2t0eWonNrVOg3n2R+ADZSzMWa99VK9Q6IU8h2fidZvq1wCOR1kwh9iIkhERAREQEREBERASH27XdNFVWVhYhgTe3MWBF9Dy/KTEj9t0s1In3SD/KRIr9Tab2P1VLUWOVWBN9bXBvPB2qcutJbDMPaa9nYMx1Jvcganr065p4iodeR8Qb/EqRf4zReqdeQ+8fxMp2t0lqe3sjcTgDNZrsalswJF2drf4dO4aDlNXYe9PFxtd+iFNOyh3CqArDUk/tHq65XNpuSLX07By8hpKrVxi06gLi663ubaWOt+q3OWr3PaLeOl43r2ulUPTXKzvUBq1UWwdQwFOmCdbABSeq467ymWkliqlMgvTUKjEOgFuVs49JpcIgC5XUX0J7WFrkC/s3vpzE6L1ivUMq2me5Y8v+vKMs9Zf9ek9SizHaadFafGrXL5r9QFtGqaepPxm/b8JpYKiDXrm50qEjT9ZUBHpNeH+pTk8N/a+KZadFCzqjDJnUXZBcsE09i5J+JmLY2zmcEo1Th8s1RyzN+yDe3nN3abE02Xqsq/5i4UE/Br+Ik9g8MEQBRyFh4dUytPa8eEQ27tA61EVj+s6XodB8Jhq7Ao3/ANzTB7VABHgRykolAkschGpB11Y+8Li2vZefGw45FGPdZPxFvxldlKsY7YZGqWqWFuHWAYHuDe0D4mZNhUDVp1abUeFRKlQhN9eTFewXtbw+MtNaiDc9YHPtkevRObl9rl35WFu+4PlLRKJV7cajTGGqM4Fxx82a2hWirAi/LpAgTpexd4qj4OlkKMEQUqystyDyDW90jTu+M51tQLh8PWXrZ6h07GqEfwn0mLdzalSmwam1m5eI7DL+qnZhXhjy6x/b1QtcrSJ5XyOL2II1Ddqg69k312kw14KjlqrMo5lr6gjmx8+uVjC4gMobJY/4Gy+hBHlabCVO5/vL+Ov4Tj2W+J7DbwqhsKJsbCwe9z73SAJJvqSeqWXB+wvhfwvraUnZmHDVFFuZAPWbddz+QEvkvTVZIiJdBERAREQEREBERATxWUFWB5EEHwnuVr5R8a1HZ+IZCQxyUwQSCMzqp1HLokwKzWxQIDA6EBh4EAj0MjqmIlOwG8IpqKddioXRKoBIVfcqDnYX0I5cuWslBXzDMlWk6nrDrb8ZSYWhtY/EdEyp4iqAKtZh0AOEv+Ko/RyjtsuZvBTNraGOoofra2f9XRszHuJ5D4keBle2ttF8QNVFOmilaVNTohNgSSfbc9bd2gHKWrCJWDb1VqGApFWysDTW+nXTKsNe64kBjhj6K4Yu5HzkA0tUuQclri2ntr5yzb80M2zyR1OrW7gQv/n6TU3x2k7tsYk9GmEyns1oH8FE05J+SlI6RdfA7RXFpgjUtWcZgLra1mbU27EM+bOwW0K1fEUKdS9ShfidJbCzZTY211/CTWO25U/t2jiSekEsO4cKqtvUz7uZtSom0NqMrdKqahJ/aqM1/UTP3SviuYMY6rha2LWoTSpHK+oBBsp0AHY4k3uZVNVWdzdjqx01bPUN9O281N3cY42Jj6Knos4Zh4CiT6LNz5NsL9TWqE6ZrKO32bk93Sm3FPy1nyR8U9jhddPtAgftq2eny7cjjykts3aC1EBBty+HdITaj8PDkAjTJZjqVuwOfxHb3yIHHovnp5XptzGZbX5m2v8AMSs9pheq2GDdbDwY/hymClgApOpN9evT1kJhd51QWqpUT4Fl+BGvpNtN6KB5MSewI/5fjKpTHD09JC4pgW4am7EhfC5zH91fUTS2lt5yCKdlv1vzA/ZF/MyJwBs1Ph1DUrZ85Kg5QD7WYnqtcWkxAb9FSy9tmC91ypNvHSRu7tTUazY38UCooDa9MntBJQjy/KRGxsQMwGZUe/JtFf8AZPUT2eV5F+01dX2diOiJvpiJU8Ni3AAKH0mXEbZ4Qu9kB5Fjqe5FGrHuEwxd0zdKjmqF+pR6m4HpeW2co+Sbbz1sXWVtFeldQeY4bDLqNOVVybTq81iMhSSIiSEREBERAREQEREBK/v/AEFqbPxSPyZLAgXIbMMhAuL2ax5jlLBIPe3B1K9EUaVszMCbmwyrcn1yyYze0T4fmSvssKLt86A7Th1A8NakldkboJUo8VqjLmJ4elrJcgOwAbMdL5Qw8ddOlY/5OsU1LIrU7ixu1V9f2uib8+XhOaYrdypnamWTOK4wtrtrUJIuCFtlFjc93Llfq/FS8fGe2fvtHmEPi9m0qLtTqNVzjnw6aWsQCL5mvex5Td2bsSlVpmqlRlAcIprtSpqXGViObE9E307Z7q7v4hNBSZjlY2pqzWAZ0BNhyJQkHrFjJjcyklbgYdqTMqmviHJU5HJ4NNACpubANfxEi9K8dfd5wrabTifo4d3w9S9WkR0rlQtTLmzEEX8D5TV3l3fdKGzaiOxaqtMupCHKrHDg9WhvVPsgchJd62Z8ZSuQOJSpjU2UDDqSq3JIN6nK+luU+4mu5FFajE8NcqWGUIqtTy37fZQ687dhmF590RZau1mYR20N0im16GDR3NBqatUbo3FRhiGUX58qI5dnfPWwN2GqbRxVBqlQUKavkbQXZaqo1j18/Wb2Jx7cT5wzniqbhrjokKyA29n2ajdX2u20xYGviAGrUauSo+c1DUolwyu5bOACtrshsb20I6pSK70tNs7Qewdk1TsjF42tVqB6aiooDKAyMqFToNOd5v7Po4ilTKVapezLqTo13C2tzFhr4mbNPDslD5rTq2wzBBVRqWZ3CBQMr6ZbhRfQ9czVlBLNrdihOj/ZNxYG4XvtznTxUmu7DG99zFb2rjjSxRRlzU2p02seak0kBKnvy6g3BmKk2HBvw27eS+lyQPgJr73m2LU/qqP8HOYqVQTK3UtY8N9qlPUojr29ID+G08CqOsMe0cQ29b/hNfiTwaspqUnSxyKthQX4s3pa1vhPDbVZb8NFQnS4zFvgWJt5SOFWatbFAHU6dcaI7eKkw4T36ThmJ6z02UXPWbqZGrh6rX6JPb3ec6fhMLTGFOIIc1RRRKBVScrHi12JJBVbjo3bTnrrJ0/JFiqq8WrjwmIPS4a0s1JL/wDDvcE9hNvhLWmPBDl+B2JjbIEqZMwBUGta4PabZVI1BDEEWOnbENSrioQUqNU67hmY2JHja4PlL6myalLEnD4tVXEUmGW3+7qhlur0jYHKwBBv2EWBBEl9292jiqdKoGSmBTRENRySqo1IjOQoBbPROoI9o6SKZ5ktP9nz5B3dsZW4oIyUiqAgAhiy5gRzvYes7rOf7v7rnA1qNVWpGm9QqeHe93VgDmI1F7Dn2ToEWzekV37IiJVYiIgIiICIiAiIgJHbQa7MocI/CYKxI6LObBtedikkZDba3ep4l1diQQMugGovcc+WpMiw1tk4SlROc19cpV81VSGbonNbqtY+c4/tenVao70nWxrPiALJmFRiTmzEXPPledZ+g9DTpv5Lr6T4dxcPr0n8k09Jrw8n496U5Ke77cIr7Nr1MgfpZFFNbkdFBchR3C5l62BsmjwqQrVLZaDouR6eZKr1XZmIYj7OUfEy9ncDDe848OH/AEz2u4uH95z48PXv9ma8vqPyV9uK04vbO6pe0tnUihoYatwxUqq5d3Bym1EMzkXFjla4vrr2yh7Y2pWo1qlM4gnKx1Uggg6g3W45HtnchuRh7AZn/wC3/TPv0Iw/vVL9v1f9P4znmeohpEPz423arAg1nIOhBvr6SxbtYBiKOKaupAeqvDzXchhzyryUFdL21c9s7GNzMP2v49DT92ehudQ06VTzT+mK2yYnCY2MUD5wvafun8p4OIXtP3W/KdCG51D3qnmnlos9/RGhrq/mungQJv8AzH6fux/B+rhe+OEpVqwqCu1NgiJbgu3sgDq5yv1VZB0awYkgANRqLzI1JJsNNfhP0od06HvP5r+U8Pubhzoc5HYSpv36iZ2vFvprWsx9uF4JsIUHFZw9hmstwWtrlIqrpfuHhM4q4EZSc5NrEcNbdXbW1PfO1ruThPdJ+7/IR9CMJ1Kw+I/KYZK+vzztnhtlOHJp8y5dlJPcEDNa2vWSeq2t9OnsdKpAOMvfS3ArflafpAbjYTqU6ctV09Jm+h2F0urHxbn46TSk+3yrbZc2weMWlSFP20ZctRSjWsAuU2PO1m06wxGl7if2dvpVoUaaGpRxBHDp5mc03A0Uu4a5YDmeuw+2dZZ/oXhexvgw19J9G5eF91/vmTeYnxCKxMOb7f2yz1XxL1KFSrkWnSSkT9VlLm5YmzLdr66k8tD0ZfcKjhfmKUsRVRWV26LOVuMxcciD9s6jrHXaXL6G4T3G+9PP0JwfuN94yNj2e3DJ9260OLh6NGqKeJR/rUrU04gJTKyNlB5n2T/75m5SvDc3Ci1gw/zXv3G8sMpCxERLBERAREQEREBERAREQEREBERAREQEREBERAREQEREBERAREQEREBERAREQEREBERAREQEREBERAREQEREBERAREQEREBERAREQEREBERAREQEREBERAREQEREBERAREQEREBERAREQEREBERAREQEREBERAREQEREBERAREQEREBERAREQEREBERAREQEREBERAREQEREBERAREQEREBERAREQEREBERAREQEREBERA//2Q==;imageBorder=default;strokeWidth=3;" vertex="1" parent="1">
          <mxGeometry x="770" y="-89.25" width="259" height="194" as="geometry" />
        </mxCell>
        <mxCell id="9pm-4QH1z8hACaXUIANB-22" style="edgeStyle=orthogonalEdgeStyle;rounded=0;orthogonalLoop=1;jettySize=auto;html=1;entryX=0;entryY=0.5;entryDx=0;entryDy=0;strokeWidth=3;" edge="1" parent="1" source="9pm-4QH1z8hACaXUIANB-16" target="9pm-4QH1z8hACaXUIANB-2">
          <mxGeometry relative="1" as="geometry" />
        </mxCell>
        <mxCell id="9pm-4QH1z8hACaXUIANB-16" value="" style="shape=image;verticalLabelPosition=bottom;labelBackgroundColor=default;verticalAlign=top;aspect=fixed;imageAspect=0;image=data:image/jpeg,/9j/4AAQSkZJRgABAQAAAQABAAD/2wCEAAkGBxEHEBMTEhIVFRUXFxAXGBUXDxISGBUSFxEWGBcSFRUYHSggGBolGxgYITEhJSkrLjouFx8zODMtNygtLisBCgoKDQ0OFRAPFSsZFR0rKy0rLTcrKzcrLTctKzctNy03KysrKzctKys3LTcrKysrKysrKysrKysrKysrKysrK//AABEIAOEA4QMBIgACEQEDEQH/xAAcAAEAAgMBAQEAAAAAAAAAAAAAAQYEBQcCAwj/xABFEAACAQIDAwkEBgcGBwAAAAAAAQIDEQQFIQYSMQcTIkFRYXGBkTKhscEUQlJicpIjM4KjssLwFUNjorTRFiQlU7PS4v/EABYBAQEBAAAAAAAAAAAAAAAAAAABAv/EABYRAQEBAAAAAAAAAAAAAAAAAAABEf/aAAwDAQACEQMRAD8A7iAAAAAgAAAAAAAAAAAAAAAAAAAAAAAAAASCESAAAAAAAAAAAEAAAAAAAAAAAAAAB4q1Y0VeTUV2tpL1YHsGKsyov+9h+dL4n3p1I1dYtPwafwA9gAAAAAAAIkhEgAAAAAAAAAABAAAAAAAAAAAHitWjQi5TkoxXFtpJeLZpNotpqeTJxXTqW9m9lHsc31eHE47tTttVzKbSm5tPgtKcPBdvq+8Doe0/KVRyxSVCPOSX1pXUV5cX7jmVPaXG7R4iLnVkm2916WjC12oQ4R0Tu+L0101rrjLESvNuT7+C8EWDZijbE0/w1v8AwyLBua20tPLq0qVbn2lu9NYmr1xT9lSStr1WNzgc0wuN1pYpp9kqiv8AvEyg7Zw3cV4wpv4x+RoloB3ehjsXh9YV95feu7+bbS8kbHDbUVqf62kpd8H/AE36H5+o5nWwnsVZx8JtGyobZYyj/fN/ijGXxQH6KwGeUMc7RlaX2ZdGXobI/N0dt8XVVmoNdrpr3HU9g9r5YyjBYh8Xu7977srKyk3rbVavh4cGC/AAgIkhEgAAAAAAAAAABAAAAAAAABodr8+jkdFveSk07N/ViuM7db6ku1m+OXcouEWb4icZT3Y01BJJ+1JwUtfOQHPMxzKtn0pbt407u7b6U9eMmYsMCqeiRaaeXxglGKskfT+zVACt0MG78Da5bD6LiKL6nNR/M7GdzMafYa/McVGG5JPWE6cuPZJX9xYMzaDZavnC56lByUIbsrTgmmry9lvXR9Rzeo2uv+vI77lmb0cshUjUlZTb3W5Qin0bfWa7jldbY/Ez1jBVF2wqUpfCQFSV5MzcNhktWZX/AA9i8NLpYasvClKS9YpnuphqtL2qc1405L4oQeGrlq2XqOOGkvvX9br+UqO+WTZqd6VT9j4yKjuuymMePwdGb1e7ut98Xu/I2xX9gqbp5fRv184/J1JWLAZURJCJAAAAAAAAAAACAAAAAAAADj3KThq1LMJThUUYNUpNO+rUYp+TsdhKDyrZTLEUo14r2ejLuV7xfrdeaAoUs5jh1d7t/wAd/gmavGbSylw08Ff0k7W/KafEUWmTg6VNPprVyik3KKgk73ck0+Dt5XA2OXYbFZ+5czGU93i3PRX4J7tl1dnUaupllWhWlTd4VL2UXdKcuuN5cG+rvsuu5tsNmVXLq0pYeUIJK0pJycZ8Fuvh49T6+Jta+a0M86FaG7ZRTak5Ri7+0qsbtdfHh29YG32TzmOLgqc0udgtyVOdlJ2003vrK3A3OIweFqazpwi/v0VH/Na3vNFHJPpkE6iWJSVo4ihUjHEJLgpyjeFS3bLd8DNo4WvhbKnjppL6uIwkpfvItR9ArIllmGl7MofsVnH+GR8a2XQo2/SzV1fTE1HpbvkyJ1cV/wBzLqn4qk4v0sz74OjicU+hTwcn2041av8ADHT1GGqnmdWfOVKcZVK8XS6KS5y1VytbeitNO0y9j9na0v0U1uzqOOnHdir3k+xal+w2zOMxH6yrGmuyFNQ09ZP+EsuTZFRynWKbm+M5O7f+3x7yozsFho4SnCnHhGMYrwSPsAQESQiQAAAAAAAAAAAgAAAAAAAA8VqUa8XGSTi0001dNPimewBxrb3Y15NetTvKi34um3wjLu7H/T5viqm9oj9M7UUlWwWJUldc1Vfmotr3pHKssyag6cW4Jt9wHOMLi6uD9iVlxs4pq+mtn4L0XYfLnanVLteitb04Ivm1NKjgKE5KKvay063pcq+Owf0HD0l9eraUu1R4qPv9bgY2XwrVJb8Jyi/tKTg/Jx1OgbLf2lmE40qVZytq51N2e5HhvuU0312011Ktl0XJWiuB1vkqwbp4erWfGpPdX4IL/wBpS9C2Db5Tshh8F0qt8RUerqVunr92L0S9X3lgjFQVkkl2JWJBAAAAAAESQiQAAAAAAAAAAAgAAAAAAAAAAaja6rzWBxD/AMOS/N0fmc8witTj4Iu/KBU3MBUX2pUY/vYt+5FMpLdh5fIlWKTyhVW6aj2tetmRtilP6LOPstaeiaG1n/MRkvNeKK/RzF16Kozfs+y+y3BeQg6NsRgFWoyk1xv8DovJ/Dcy+l+LEf6iovkcv5Ps+hhlKlV061JLeT04aHX9msG8DhaUJKztKTXY5zlNp963jVRswAQAAAAABEkIkAAAAAAAAAAAIAAAAAAAAAAFR5Sqm7hqUftVoLyUJv8A2KvU6MPL5G95TamuEh2zqS/LGK/mNBiejTb7F8iVY5/tRX3HZcWaCngnUs+3uuZGb1uerS7mZGXXaKi3bE7LU85nGm4KLXSlNVqj6EZRu1T4Xd0rttK97aHeTnXI/g7Qr1n1uFOPcorel670fQ6KAAAAAAAAARJCJAAAAAAAAAAACAAAAAAAAAABz3lGnv4zCR7IVperivkaLO6vMUJeBtduau9mkF9jDw9ZVanySKptZit2k49xFjndV782+9m4yynoaiMd5llyujeyXF29Sjt3J3hPoeXUdNZ783+1N2/ypFlMfLsMsHRp019SEI/lil8jICAAAAAAAACJIRIAAAAAAAAAAAQAAAAAAAAAAOS7ZYn/AKpX+7ChH92pfzFG2oxfOuxY9tals1xndKj/AKemUXNKu/Udwr44SnvSRe9h8D9NxlCHVvKT8IdJ/ApOEdmjrHJBh1UrVqj4xhGK/al/8ijqYACAAAAAAAACJIRIAAAAAAAAAAAQAAAAAAAAAAOH7eUubzbFX+tzMvLmKa+TOe5xelUZ0jlQqbmaN/4dJP0b+ZTs7wP0lb67ArD2Ww39p11Tc1BPraOo8nzjkOaSw3OOUa9G8W7fracm3FW+7vPyOM4WrLB1E02mmi7Sr1cXKlWoXdak4zi0nLdkne0rdTt194R+hga7Z/No53h6daKtvLpRfGFRaSg+9P5PrNiAAAAAAAAARJCJAAAAAAAAAAACAAAAAAAAAAByXldyiVKvDEpXhUUYt/ZqRTtfxj/Cyl4bER3bP5v5H6EzPBUswpTp1oqVOSakn2cb36muKfcfmBYqMpW1Wuml9APljsNz9a0Fx/q7Zacur16NJUKLk3Z2jBNOT8I6su+x/JrQrUadfETqN1Ixnza/R2UldRk03Lh2NHQsuyuhlcd2jShTXXuxSb/FLi/MorvJnllfLsJJ14unOrPf5t8YrdSvLsbtw48C3AEAAAAAAAABEkIkAAAAAAAAAAAIAAHneG+l1no8SpqQHpO5JrMbls5q9OpuvzXvRVs0x+c5NeUaKxEF2R5x27lBqfuYF8ByaPLP9EluYnAzpvurWf5KkI29TJny2YO3Rw9a/wB6dGK9VJv3AXLbnOI5JgK9Ru0nGUIdrqTTUbeGsvCLOBbD5FLaHG06ST3b71R69Gkn033O2i04tFlzmhm3KPVU4YecKK0jvy5ulBO15Rc0pVL9c1F8LKx1DYbY+lslR3U1OrK3OVd228/sxXVFdnqQWWEVBJJWS0S7F2EgFAAAAAAAAAAAESQiQAAAAAAAAAAAgAAAAAAAHipSjVVpRTXY0n8T408vo0neNKmn2qnFP1SMkAAAAAAAAAAAAAAAAAESEAAAAAAAAAAAAAAAAAAAAAAAAAAAAAAAAAAAAAAAAAAAAAAD/9k=;imageBorder=default;strokeWidth=3;" vertex="1" parent="1">
          <mxGeometry x="-80" y="-104.75" width="225" height="225" as="geometry" />
        </mxCell>
        <mxCell id="9pm-4QH1z8hACaXUIANB-34" style="edgeStyle=orthogonalEdgeStyle;rounded=0;orthogonalLoop=1;jettySize=auto;html=1;entryX=1;entryY=0.5;entryDx=0;entryDy=0;fillColor=#f8cecc;strokeColor=#b85450;strokeWidth=4;" edge="1" parent="1" source="9pm-4QH1z8hACaXUIANB-17" target="9pm-4QH1z8hACaXUIANB-15">
          <mxGeometry relative="1" as="geometry" />
        </mxCell>
        <mxCell id="9pm-4QH1z8hACaXUIANB-35" style="edgeStyle=orthogonalEdgeStyle;rounded=0;orthogonalLoop=1;jettySize=auto;html=1;entryX=1;entryY=0.5;entryDx=0;entryDy=0;fillColor=#f8cecc;strokeColor=#b85450;strokeWidth=4;" edge="1" parent="1" source="9pm-4QH1z8hACaXUIANB-17" target="9pm-4QH1z8hACaXUIANB-13">
          <mxGeometry relative="1" as="geometry" />
        </mxCell>
        <mxCell id="9pm-4QH1z8hACaXUIANB-36" style="edgeStyle=orthogonalEdgeStyle;rounded=0;orthogonalLoop=1;jettySize=auto;html=1;entryX=1;entryY=0.5;entryDx=0;entryDy=0;fillColor=#f8cecc;strokeColor=#b85450;strokeWidth=4;" edge="1" parent="1" source="9pm-4QH1z8hACaXUIANB-17" target="9pm-4QH1z8hACaXUIANB-14">
          <mxGeometry relative="1" as="geometry" />
        </mxCell>
        <mxCell id="9pm-4QH1z8hACaXUIANB-84" style="edgeStyle=orthogonalEdgeStyle;rounded=0;orthogonalLoop=1;jettySize=auto;html=1;entryX=1;entryY=0.5;entryDx=0;entryDy=0;strokeWidth=3;fillColor=#f8cecc;strokeColor=#b85450;" edge="1" parent="1" source="9pm-4QH1z8hACaXUIANB-17" target="9pm-4QH1z8hACaXUIANB-82">
          <mxGeometry relative="1" as="geometry" />
        </mxCell>
        <mxCell id="9pm-4QH1z8hACaXUIANB-17" value="" style="shape=image;verticalLabelPosition=bottom;labelBackgroundColor=default;verticalAlign=top;aspect=fixed;imageAspect=0;image=data:image/jpeg,/9j/4AAQSkZJRgABAQAAAQABAAD/2wCEAAkGBw8QDw8QEA8QEA8QDQ8PEA8QDxAPEBAPFREWFhURFRUYHSggGBolHRUVITEhKCkrLi46FyAzODMtNygtLisBCgoKDQ0NFw8QFS0eFiUtKystKzM3Nzc0KysrNzcrLSsrMy8rOCsrKysrLSsrNyswKysrKy0rKysrKysrNzctK//AABEIAOEA4QMBIgACEQEDEQH/xAAcAAEAAAcBAAAAAAAAAAAAAAAAAQMEBQYHCAL/xABMEAACAgECAgUIBQUNBwUAAAABAgADEQQSBSEGEzFBUQcUImFxgZGhMkJSscEjM3KCkhVDRFNig5Oio7LC0fAkJVR0s9LxNGNkZcP/xAAVAQEBAAAAAAAAAAAAAAAAAAAAAf/EABYRAQEBAAAAAAAAAAAAAAAAAAABEf/aAAwDAQACEQMRAD8A3jERAREQEREBERAREQEREBERAREQEREBERAREQEREBERAREQEREBERAREQEREBERAREQEREBERAREQEREBERAREQEREBERAREQEREBERAREQEREBERAREQEREBERAREQEREBEkakWEDq3RDzzvrLg/BlxMB4x5Rn0vEU0bV1XL11ddlib6ym8rz5kg4DZ7YGxYnhLlPYyn2EGe4CJ5cEggHBIODjOD44mAdKOlPEOEvUdR1GspuZwnVVtp3UKV5Nl2GcN2jOfAQNgxLZ0b41XrtNXqa1ZFfcNr43BlOCORweYlzgIiICIiAiIgJ4axR2sB7SBPTMACScADJJ5ADxnKfTjVE8W4i6WNg627a6OeYDYGCD2coHUj8QoX6V1Q9tiD8ZIfjelH7+h/RO/wC7M5U0/HtbX9DVXj22Mw+DZlfR024in8ID/p1Vn7gDA6VfpLox++N7qL2+5ZLbpRpu4Wt7K9v94ic/0eUbWD6dWnf2K6f4jK+jyl/xmk/o7c/IiBuw9LKu6i/4Ugf35LfpWO6hj+k6j7szU9PlE0hHpJehyORVD9zSD+UXSDsS1vcB98DabdLLO7Tp77z/ANklP0o1B7KqV9pd/wDKaps8pVX1dPYfayiU1nlLb6ulH61h/CBtpukms7jpx/M2H/8ASS24/rD++qP0alH35moLPKTqT9Gike0uZTWeUPXnsFK/zZP3mBuU8a1n/EN/R0/9kg3FtUe29/dgfcJpJ+nPET++qP0a1Eprel3EG/hTj1DaPwgbxbW3ntut/pH/AM5Js1D/AFrG/Wc/iZom3pBq2+lqrT7XlM+tuftssb9ZjA3lqOIadcB7a+fYNwaa74tXVZxHcq/kmuQtZhSgQbcnI5jkDMQxce64/q2GDpLT2o362B95gbiu49w1f4Qo9gcn5gynTphoKeaaqwepH5fDM1J5s3fsX2215+AMeb+L1j9Zm+4QNtXeU6lR6Oo1XtBz8jumKdLOmfn3VBnscV7sdbtz6WM42oPATEOpX+NX3I5/yjYn23PsQD7zFWXGxui/lT8x066Za3dULEHaijBOcduZdG8uN3do0Ptcj7pqNkQfR3579xUj5CQgt11J5POlLcU0Z1L1LSwvspKqxcHaFO7mOX0uz1TJ5rbyBn/dVn/P3f8ATqmyYQiIgIiIFh6fKzcJ4kqqWZuH6lQqgliTUwwAO2cqbccsYxyxjGPVjunW/SW+yvQ6yyptttej1D1tgHbYtTFTg8jzAnJF1jWMzuxd3YuzsSWZiclie85gQxIbZDb6zHPxgR2yGDGT4D4xv9RgRVM4GVHP6xxJvmyjtur9wdvwkhnHL2wbB4iBUdTV/HE+yo/iY20/atP6qD8TKbrR/oGR3+o/CBUfkR9SxvbYq/csb6u6r9q1yPliU+4/Z+Yj0vAfGBUdev8AE1fBz97R5ye5Kh7K1/ESn2t4j4RsP2vkIFUNZZ3Nj9FUX7hPLau0/vj+5iB8pT9X6z8Y6sf+TAmNYT2sT7WJkvcviJEVr4Cego8BAl9YP9Axv9R+EmxAl7j9k/KPS8B8ZMiBLw3q+cbG+18BKhKSUd8gBGrUg5yS+8jH7DSXA6H8h1obhRIqrrxq7VPVhwHKpWDY25j6RxzxgcuwTYU175C1/wBzIfHV6k/18fhNhQEREBERAoeOJu0mpX7WmuHxrInIFR9Ff0R907H1ibq7F+1W4+KkTjen6K/oj7oHuIiAiIgQbu9sqK9G5XcqEr3Yxk+kF5L2kZIGQO0gSnPd7ZlHRvSayytfN0qI3WANbccA5UNhM5rbDgbhjkT3kEhZqeF3tnFTjGRzVly24LsHL6WTjHqPhPbcItVSbMIQ9ShSyMzCwkBwAfo8jz7DMkbRa9epRtRp6xcBbuqJuZQl6Bd5blyNy888wOZI7aMaSlmFdnEkIIpsPVpTUAWZjt3bu1CWO3u37sDLQLVRwZ33kWVYW62rBb8o/VY3sid4AYHmR+Mm6rgZryrWKH84SoOysKcE3KcMM5INak8gFzjJk/h9ulYMdVrNTuxU4VOsKtYUJfcQOWMoue30X8RJzajgqYK6XVXENWTvs6vKjbuXk/fhu4/SxkYBAUlmj0gYstwNRyU/KLuQBU5NWy7mJY2eGNo8ZGuzSJf2Ia1o28x1oazzoNkk1nJNXq78ZHdZYgXzz/RomK6zvKFWdqa7OZrKg4djggsSQOR2gZ8IfuzTvUrp60rG4tWK1/Kei3Vox5k4Yr6WeeOyWSIDJ7zk95PaT4xEjAhGJGIEMRI4jECss9HS1jH53U2vn+TWiKvzeyUcrOIYAoQfU0tZPhm0tf8Adao90pIHRXkQXHBaPXfqz/buPwmezCfIyuOB6P1vqz8dVbM2gIiICIiBBhyPsnGzV7SV+ySvwOJ2VOPeJrjUageGpvX4WsIFNERAREQB7vbLlptJrHpsetdQdNSpaxwXFCDIzzztznHIc5bT+ImVdGeJ7dFxSi2/ajcPYaep7MKbTaGK1qTjcck8uZgUWk6J6uyjr0SsBqLL0qa1E1F1CfSsSs82X19/dJ1XRO3zlaHupVDoDxDzlSz0jSBC3WA4BPZj3y4cKu0lWhYniIr1upqNDsadTqG02k/4eoKMKWxzbIAHIeMk19KU/ck6Q1v52K20qXeiUGha1bWqJznPIqBjGIFh4XoeuF7MSiUaSzUMcAncMLXX29rO6j4y6dFuH6DUFl1PngNVV2ousqsoSlKKxnPpIzEnkvdzYS3U65U0l1AB6y/UUtY/Lb1FSsVQc853tk93oiQ0fEHSnUaetV/2nqhYwDGzZW24Vrg4Ck4J5c9ogV3RrSUNVrNRfT1w0y6QLR1r1qzX6gV5ZkIb0QDyBGczLdF0JpJ4lV1Ybfq79JobLLEBoNVbOrjJBclzXUcZPb65hmn41rNOUNTdQRp1o9GitRZWrbgXDKQ7Bue88/XKO/X32FC9tjGtrHrYudyO773dT2hixyT25gZV0g4bQdAlnVOmp03C+DMW3AI4vLIytXt5MME7s5Mwue7HZjlmZjjGWJY49pkIEIkYgQiRiBCekrZiFXmzEKo8WJwB8TISt4PgX1seyrdef5pDZ/ggeeLOG1FxX6ItZEx/FodiAfqqspIHziB0x5JkxwXQ+uuxvjc5/GZdMX8mC44Nw/8A5YH4sTMogIiICIiAnInSJNuu1y/Z1+rHwveddzk3pnXt4nxFf/sNUfjax/GBZoiICIiA/wAxK/Q01NvNruoG3G1Sc5znmFOPq9uM5lB/mPvl64HcENmb2pLbAu2nrixw4zyGQQD8/VAnea6XcFSnWWjt5phsEcs4x3kd3Pb3Z5TNNpQ3ppowazlUNlvYVN7EN28ytW3sGNv8oSY77lG23Xu+FHooUUqGwAAOzA349mOU8poCLExpHIIPo6m+td7Kwc5zyUYDDny9IwJmmxjONBSDuG5rAbU9HHMjAx4HszntltPG7lytboFGVDLWOa55fSyQOQOO71S4VaYoe3h9LCtUItsLE+iVLEryycE8hzz3ym4hbXaQbdQuVRgi1UkJkbwBy8dtXM88H1QLZq9XZawaxtzAYBwo5ZzjkB4mSJHEQIRIxAhIxEBiIiAlZoSVr1L9n5Fagf5dligr761u+BlHKsgDSjxt1RPuprwMe+9vh6oFJERA6h8m644Pw316Gg/FAfxmSSxdA028J4aPDh+lH9ksvsBERAREQE5V8oS44vxIf/MsPxwfxnVU5c8qCY43xEf++h+NFZ/GBi8SMQIRI4kcQIASv0mttq3dW5TdjdgA5xnHaPWZRASoxAn26+9yS11hJAB9MjIAxjl3SmYk9pJ9pzPeI2wJeIxPeJDEDxE9YkMQPOInrEhAhE96etrG2Vq1j/YrUu37K85XVcD1RuooaiyqzUHFQvR6cqCdzncMhRgknHYDAt0TIeG9H6rfPrlsu1Gj0VSO1unqFVlpZCcgWZFda7LCWbJwo5ZYAU3CNINiu6dZ1jbOVRs6sZ/Oc+WMq2e3kRzzAs8reIck0yZ+jp95Hg1rs/8AdNcp9bXsd1UEYJwmdxXPPYSCckZx7pWa6g2aw0Vj0jqK9HWD3lStCE+3avxgW6DM41HRThVdw0X7q26jiLahNMKaNMUqS5rAjB2bcCFyScEdko+l78HoXU6TR6O86iq40nW36gsM1WYcpWDt57SM4HbA6E6Jpt4foR4aHTf9JZdZb+j640ekHhpKB8K1lwgIiICIiAnMvlcr28c13rOnb46aqdNTm/yz1441qT9qrTN/ZBf8MDBsSIE9hZ7CQJW2egsmhJ6CQJQST9sbZfeifCKtVe6XNYldene4mraHJV0ULlgcfT8D2QLHtjbNn1cB4XUgPmN19hQui233MWUbtxAQVqSNvNe3n7pI6X8PoTSoy6XR0jz/AEoVqlRN9D02t6dgG8KSAeZIwAQfANb7ZBUJOACT4AZMyKuursVdOTz51126rBx2Hdy/8Tzeus9IBzXUGO0sUpO3I25xzz2H3mBj5qO7aQQ2QuCCCCfGbB1PkrbTlPOdYMsFJSikt9J1Tk7sMc2+zMR80UOpbUI7l1Po7rNzbhy3fHmZvrpr+cq5Z/MfPVJA1Zo+i+gFgRq7rQdM9+bdRjBFO8LipU5ZwO2XCnQaasps0mmX8kXyaVtOdlJ+lZuPazd8rtJobjap6tgPMGTLDYN509a7ctjnlh8ZcU6P3MxDFEK6ewYZvSYqEDbAOTY28+cipGh1D+daJA7BS4JQEqh9FR9Ecu+Y3084kdPreHXhFs6unVE1sSFdG1N1boSOYypYZ7s5mf6boy6X1WEuzUkAYQ7CQXG44ycZqB9j+OJrfyu6Y1arTVEgldGzHB7Os1V77T6wGA90IxrT8USo6latKr6O7q/9n1TNf1b1j0LBauw7wXbB5cnwc9sotJrSiFSx5I4T0Ufm2Mqd3IKSAeXtl04jRqBoaC9WpWpbOVtlDJS5YMV2u30uWccsdp75QaXiBrrZMHPPaylEK555LbSx588ZHYJRL4QM6mlmPJbBcxPPK15sb4hTLx5NqVs4voesZVVbmudnIAzXW1g5n+Uolm0DBRexxnzZ0QZwS1jLWcfqM590o2A7+z1wNz6DjdHDxRVrdforS/F79XcNGTqDVUa77l6wqu5m69k7uWAB2ZmsumH7mj0tBdqtQzm+zUW6hFqUsSCorXaD2lyc+qW/Q8NvvO2ii20+FdbP9wmT8O8l3F9RyOmFCtyL3uqbQe/YMsfhA6L4am2ikeFNY+CiVM8UptVV8FA+AnuAiIgIiICc9eW2v/fB9ei05/rWD8J0LMS6Y+T7R8TcXWNbVqBWtYtqYc0UsVVkYEEZZuzB59sDm4JPYWbB435JeIUZag16tB9g9Vbj9Bjj4MZhGr0dtLmu6qyqwfUtRq29uGHZ64FOFkcT1iIHlhyMyryeK51OpFZYWHhmqCbTht+a8Ae08vfMXbsl+6F8Rp0+pZrt2yzT2U5TbkMzIQTuYAD0TzzAz2nT1HrUuW22oYCNttWx8ncAq+kHQKpyRhuwFeWZQdLiTotOK2baut0SIRtba6rqgcHcVZvonu5Fc57ZT3dLtAiJWlBs2oU3233v1gbcD1qKFDkBiMlifXzJNh6U9LbNcor6uutOt61glapucBsHOSeW9+89sBY3Z1ruMF8C3VCoDacH0ax2nP8ArvpTqqVKlXqUr2FKXttHIfXc4PqHq5yyxA96dh1iMcAdahPgBuBM3RxLpzwZdm7U36i2tXTdTXYdykk43OApxkc/V4Eg6THz8JeOH9FeI6jHVaLUMD2MazWn7T4HzgZvrPKtQqlaNA9g+1qLlrOMKPo1g5HoL3+rs5Sy8Q8qvFbMis6fTDJINNAZhk5POwsCfdKnh/kk4lZg2tRQPBnNjD3ICPnMl4f5GdOP/Uay6zxFSJUPi26Bq3iHSfiN+eu12pcHtUWsiH9VML8paaqHsbCK1jk9iqXYn3czOj+HeTnhFOMaRbG+1czXZ9zHb8pkml0dVQ21VV1r4VoqD4AQOcdL0L41q9v+zallACqdS5rVVAwAOtIwAPATIuHeRfWvg36mikeCB7m/AfObziBrTh3kY4emDddqLz4BlqU+5Rn5zKeG9BeFafBr0NGR9axTc2fHNmZkUQPFdaqMKoUDsCgAD3Ce4iAiIgIiICIiAiIgJTcQ4fRqENd9NdyH6tiK49uDKmIGu+OeSPQ3ZbTPZpHPYPz1Of0WO4e5hNf8c8mnE9NkrUNTWPr6clmx66zhs+wGdCRA5LtQqWVgVZeTKwKsp8CDzEl7p1NxfgGj1YxqdNVbjkGZRvX2OPSHuMlcO6McP0+Op0enQjsbqlL/ALR5/OBzhw7gur1GOo0t9oP1kqcr+1jEybh/ku4rbjdVXQD33WjPwTcZ0BEDUvD/ACM9h1Gt9qU1Y/rsf8Mybh/kv4TVjdS95Hfdax/qrgfKZpECh0HB9Lp/zGmpq9ddSKfiBmV0RAREQEREBERAREQEREBERAREQEREBERAREQEREBERAREQEREBERAREQEREBERAREQEREBERAREQEREBERAREQEREBERAREQEREBERAREQEREBERAREQEREBERAREQEREBERAREQEREBERAREQEREBERAREQEREBERAREQEREBERAREQP/9k=;imageBorder=default;strokeWidth=3;" vertex="1" parent="1">
          <mxGeometry x="1210" y="-104.75" width="225" height="225" as="geometry" />
        </mxCell>
        <mxCell id="9pm-4QH1z8hACaXUIANB-20" value="&lt;font style=&quot;font-size: 18px;&quot;&gt;Serial&lt;/font&gt;" style="text;html=1;align=center;verticalAlign=middle;resizable=0;points=[];autosize=1;strokeColor=none;fillColor=none;" vertex="1" parent="1">
          <mxGeometry x="444" y="185" width="70" height="40" as="geometry" />
        </mxCell>
        <mxCell id="9pm-4QH1z8hACaXUIANB-23" value="&lt;font style=&quot;font-size: 18px;&quot;&gt;Serial input&lt;/font&gt;" style="text;html=1;align=center;verticalAlign=middle;resizable=0;points=[];autosize=1;strokeColor=none;fillColor=none;strokeWidth=3;" vertex="1" parent="1">
          <mxGeometry x="170" y="-25" width="110" height="40" as="geometry" />
        </mxCell>
        <mxCell id="9pm-4QH1z8hACaXUIANB-26" value="&lt;font style=&quot;font-size: 18px;&quot;&gt;DSI&lt;/font&gt;" style="text;html=1;align=center;verticalAlign=middle;resizable=0;points=[];autosize=1;strokeColor=none;fillColor=none;" vertex="1" parent="1">
          <mxGeometry x="445" y="-207" width="50" height="40" as="geometry" />
        </mxCell>
        <mxCell id="9pm-4QH1z8hACaXUIANB-29" value="&lt;font style=&quot;font-size: 18px;&quot;&gt;PWM og digital output&lt;/font&gt;" style="text;html=1;align=center;verticalAlign=middle;resizable=0;points=[];autosize=1;strokeColor=none;fillColor=none;" vertex="1" parent="1">
          <mxGeometry x="340" y="483" width="200" height="40" as="geometry" />
        </mxCell>
        <mxCell id="9pm-4QH1z8hACaXUIANB-32" value="&lt;font style=&quot;font-size: 18px;&quot;&gt;PWM&lt;/font&gt;" style="text;html=1;align=center;verticalAlign=middle;resizable=0;points=[];autosize=1;strokeColor=none;fillColor=none;" vertex="1" parent="1">
          <mxGeometry x="248" y="823" width="70" height="40" as="geometry" />
        </mxCell>
        <mxCell id="9pm-4QH1z8hACaXUIANB-33" value="&lt;font style=&quot;font-size: 18px;&quot;&gt;PWM&lt;/font&gt;" style="text;html=1;align=center;verticalAlign=middle;resizable=0;points=[];autosize=1;strokeColor=none;fillColor=none;" vertex="1" parent="1">
          <mxGeometry x="634" y="823" width="70" height="40" as="geometry" />
        </mxCell>
        <mxCell id="9pm-4QH1z8hACaXUIANB-39" value="&lt;font style=&quot;font-size: 18px;&quot;&gt;12V&lt;/font&gt;" style="text;html=1;align=center;verticalAlign=middle;resizable=0;points=[];autosize=1;strokeColor=none;fillColor=none;" vertex="1" parent="1">
          <mxGeometry x="906" y="483" width="60" height="40" as="geometry" />
        </mxCell>
        <mxCell id="9pm-4QH1z8hACaXUIANB-40" value="&lt;font style=&quot;font-size: 18px;&quot;&gt;12V&lt;/font&gt;" style="text;html=1;align=center;verticalAlign=middle;resizable=0;points=[];autosize=1;strokeColor=none;fillColor=none;" vertex="1" parent="1">
          <mxGeometry x="1130" y="-23" width="60" height="40" as="geometry" />
        </mxCell>
        <mxCell id="9pm-4QH1z8hACaXUIANB-42" value="&lt;font style=&quot;font-size: 18px;&quot;&gt;Digital input&lt;/font&gt;" style="text;html=1;align=center;verticalAlign=middle;resizable=0;points=[];autosize=1;strokeColor=none;fillColor=none;" vertex="1" parent="1">
          <mxGeometry x="647" y="315" width="120" height="40" as="geometry" />
        </mxCell>
        <mxCell id="9pm-4QH1z8hACaXUIANB-45" value="&lt;font style=&quot;font-size: 18px;&quot;&gt;5V&lt;/font&gt;" style="text;html=1;align=center;verticalAlign=middle;resizable=0;points=[];autosize=1;strokeColor=none;fillColor=none;" vertex="1" parent="1">
          <mxGeometry x="657" y="-384" width="50" height="40" as="geometry" />
        </mxCell>
        <mxCell id="9pm-4QH1z8hACaXUIANB-46" value="&lt;font style=&quot;font-size: 18px;&quot;&gt;5V&lt;/font&gt;" style="text;html=1;align=center;verticalAlign=middle;resizable=0;points=[];autosize=1;strokeColor=none;fillColor=none;" vertex="1" parent="1">
          <mxGeometry x="649" y="-24" width="50" height="40" as="geometry" />
        </mxCell>
        <mxCell id="9pm-4QH1z8hACaXUIANB-47" value="&lt;font style=&quot;font-size: 18px;&quot;&gt;12V batteri&lt;/font&gt;" style="text;html=1;align=center;verticalAlign=middle;resizable=0;points=[];autosize=1;strokeColor=none;fillColor=none;" vertex="1" parent="1">
          <mxGeometry x="1267.5" y="-139.5" width="110" height="40" as="geometry" />
        </mxCell>
        <mxCell id="9pm-4QH1z8hACaXUIANB-48" value="&lt;font style=&quot;font-size: 18px;&quot;&gt;Nødstop&lt;/font&gt;" style="text;html=1;align=center;verticalAlign=middle;resizable=0;points=[];autosize=1;strokeColor=none;fillColor=none;" vertex="1" parent="1">
          <mxGeometry x="874" y="199.5" width="90" height="40" as="geometry" />
        </mxCell>
        <mxCell id="9pm-4QH1z8hACaXUIANB-50" value="&lt;font style=&quot;font-size: 18px;&quot;&gt;5V&lt;/font&gt;" style="text;html=1;align=center;verticalAlign=middle;resizable=0;points=[];autosize=1;strokeColor=none;fillColor=none;" vertex="1" parent="1">
          <mxGeometry x="519" y="183" width="50" height="40" as="geometry" />
        </mxCell>
        <mxCell id="9pm-4QH1z8hACaXUIANB-51" value="&lt;font style=&quot;font-size: 18px;&quot;&gt;Step-down converter&lt;/font&gt;" style="text;html=1;align=center;verticalAlign=middle;resizable=0;points=[];autosize=1;strokeColor=none;fillColor=none;" vertex="1" parent="1">
          <mxGeometry x="804.5" y="-124.25" width="190" height="40" as="geometry" />
        </mxCell>
        <mxCell id="9pm-4QH1z8hACaXUIANB-52" value="&lt;span style=&quot;font-size: 18px;&quot;&gt;Step-down converter&lt;/span&gt;" style="text;html=1;align=center;verticalAlign=middle;resizable=0;points=[];autosize=1;strokeColor=none;fillColor=none;" vertex="1" parent="1">
          <mxGeometry x="795" y="-487" width="190" height="40" as="geometry" />
        </mxCell>
        <mxCell id="9pm-4QH1z8hACaXUIANB-53" value="&lt;font style=&quot;font-size: 18px;&quot;&gt;Raspberry Pi Touchskærm&lt;/font&gt;" style="text;html=1;align=center;verticalAlign=middle;resizable=0;points=[];autosize=1;strokeColor=none;fillColor=none;" vertex="1" parent="1">
          <mxGeometry x="331" y="-515" width="240" height="40" as="geometry" />
        </mxCell>
        <mxCell id="9pm-4QH1z8hACaXUIANB-54" value="&lt;font style=&quot;font-size: 18px;&quot;&gt;Raspberry Pi&lt;/font&gt;" style="text;html=1;align=center;verticalAlign=middle;resizable=0;points=[];autosize=1;strokeColor=none;fillColor=none;" vertex="1" parent="1">
          <mxGeometry x="385" y="-134.5" width="130" height="40" as="geometry" />
        </mxCell>
        <mxCell id="9pm-4QH1z8hACaXUIANB-55" value="&lt;font style=&quot;font-size: 18px;&quot;&gt;Arduino Mega&lt;/font&gt;" style="text;html=1;align=center;verticalAlign=middle;resizable=0;points=[];autosize=1;strokeColor=none;fillColor=none;" vertex="1" parent="1">
          <mxGeometry x="310" y="235.5" width="140" height="40" as="geometry" />
        </mxCell>
        <mxCell id="9pm-4QH1z8hACaXUIANB-56" value="&lt;font style=&quot;font-size: 18px;&quot;&gt;Stepper driver&lt;/font&gt;" style="text;html=1;align=center;verticalAlign=middle;resizable=0;points=[];autosize=1;strokeColor=none;fillColor=none;" vertex="1" parent="1">
          <mxGeometry x="504" y="514" width="140" height="40" as="geometry" />
        </mxCell>
        <mxCell id="9pm-4QH1z8hACaXUIANB-57" value="&lt;font style=&quot;font-size: 18px;&quot;&gt;Stepper driver&lt;/font&gt;" style="text;html=1;align=center;verticalAlign=middle;resizable=0;points=[];autosize=1;strokeColor=none;fillColor=none;" vertex="1" parent="1">
          <mxGeometry x="119" y="516" width="140" height="40" as="geometry" />
        </mxCell>
        <mxCell id="9pm-4QH1z8hACaXUIANB-58" value="&lt;font style=&quot;font-size: 18px;&quot;&gt;Stepper motor&lt;/font&gt;" style="text;html=1;align=center;verticalAlign=middle;resizable=0;points=[];autosize=1;strokeColor=none;fillColor=none;" vertex="1" parent="1">
          <mxGeometry x="505" y="905" width="140" height="40" as="geometry" />
        </mxCell>
        <mxCell id="9pm-4QH1z8hACaXUIANB-59" value="&lt;font style=&quot;font-size: 18px;&quot;&gt;Stepper motor&lt;/font&gt;" style="text;html=1;align=center;verticalAlign=middle;resizable=0;points=[];autosize=1;strokeColor=none;fillColor=none;" vertex="1" parent="1">
          <mxGeometry x="118" y="905" width="140" height="40" as="geometry" />
        </mxCell>
        <mxCell id="9pm-4QH1z8hACaXUIANB-60" value="&lt;font style=&quot;font-size: 18px;&quot;&gt;Håndscanner&lt;/font&gt;" style="text;html=1;align=center;verticalAlign=middle;resizable=0;points=[];autosize=1;strokeColor=none;fillColor=none;" vertex="1" parent="1">
          <mxGeometry x="-32.5" y="-139.5" width="130" height="40" as="geometry" />
        </mxCell>
        <mxCell id="9pm-4QH1z8hACaXUIANB-62" value="" style="shape=image;verticalLabelPosition=bottom;labelBackgroundColor=default;verticalAlign=top;aspect=fixed;imageAspect=0;image=data:image/jpeg,/9j/4AAQSkZJRgABAQAAAQABAAD/2wCEAAkGBxITEhUSExIWFRUXFxgXFRUXFxUVFxcYFRUXGBUXFxUYHSggGB0mGxUXITEiJSkrLi4uFx8zODMtNygtLisBCgoKDg0NFRAPFSsdFx0rKysrLSstKystLSstLSstKysrLSstMC0tLSstLS0rKy0rLS0tLS0rKy0tLjctKy0rN//AABEIAOkA2AMBIgACEQEDEQH/xAAcAAABBAMBAAAAAAAAAAAAAAAAAQIGBwMEBQj/xABFEAABAwEEBgcFBQQKAwEAAAABAAIDEQQFITEGEkFRYXEHEyIygZHwQlKhscEjM3LR4RRik7IkQ2NzgpKio8LxNFPSFf/EABcBAQEBAQAAAAAAAAAAAAAAAAABAgP/xAAeEQEBAQEAAQUBAAAAAAAAAAAAARECMQMSIUFRFP/aAAwDAQACEQMRAD8AvFCEIBCEIBCEIBCEIBCEjnACpNBtKBUKH390l3ZZah1oErx7EP2pqNhcOw083BV1f3TjO6rbJZ2RDY+U9Y/wY2jWnxcgvRzgBUmgGZKh9+9Jt2WaoNoErx7EH2pqNhcOw083Bedb80ntlr/8m0ySj3SaM/hto0eS5FUFuX704Wh9W2WzsiGx8p6x/PVFGtPi5V9e2llutLtaa1Sv4axawcmNo0eS4aEFr9HfSTPHSCV5kGTRISajcHnFp+HBXddN6R2hmuw/iac2nj+a8eMcRiMFanR3pXOCCWuqBTW1TqPbta45IvlfqFpXTeTJ4w9h/E3a07it1ECEIQCEIQCEIQCEIQCEIQCEJr3gAkkADMnADxQOQoffvSZdlmqDaBK8exD9qeWsOyPEhVzfnTjO6rbLZ2RDY+UmR/PVbRrT4uQXq5wAqcBtKiN/dJd2WWodaBK8f1cP2rq7iR2WnmQvOl+6U2y11/aLTJIPcJpH/DbRvwXGqgt6/unKd1W2SzsiGx8p6x/+RtGtPi5V1fmlNstZP7RaZJAfYLqR/wANtGfBcWqSqB+skqmVTmtJyQFUqeyDeszGAZefyKDCIzu+iyNiG0+X5p1UIrZskgjIcGNNPeFfmp1cmkjTQPGruOz9FXocuhddpANHZH4IsXlcFv1SJGHHbTJw3HerAsVpEjGvApXZuINCPMKgLjvB8LgWmrdrdh5bld+itoa+zMc01BLv5jgoV10IQqyEIQgEIQgEIQgEIWG2WlkTHySODWMaXOccg1oqT5BBx9M9KYbuszp5cTlFGDR0j6YNG4bSdgXmHSPSq2W17n2iZzwTUR1IiaK4BkeQpvz3krY0/wBLpLytTpnVbG2rYIz7DK7R7zsz4DIBRsOQZNZFVjy5LKyMnIFA1CzNh4+WPxWVsYGzzQazYych65p4g3lZ3D18kevFFNbCB62J5SIUBX180VR6/VHr81QJAUtPXzTSECoaaIRT19EHeue8aUY48irG0K0odZX0dV0Tj227v3m8R8R4KnWvopHc9461Gk47DvUWPUMEzXtD2kOa4VBGRBWRVNoDpb1DuplP2Tjgf/WTt/Cdo8d9bYaa4jEKpZhUIQiBCEIBCEIBcLTqPWu+0j+ycu6uVpW2titI/sZPgwlB5JviwmNx3Fc8Kd3lYxKwjbsUPFiLXkOGA+KLYyWSz4azhyH1Kfa58KBLPNTBaLiiMjHLYaarSCyxvog2kCm/1vTQUtfXzCKVIapEvP1xQAQD/wB/IpAEpw9fBAURT19EAo9fqgaQlqgpqBxCfFIQdyY1IfX0UErum8NcUJ7Q+Ktfo90upq2aZ3ZyiefZ3MJ3bt2WWVBWectNQaKV3Zbw8V27Qi+XptCgvR/pb1oFnmd9oMI3H2gPZJ94fHnnOlWbAhCEAhCEAtK+2a1mnbvikHmwrdWO0M1mObvaR5hB5tCjmkT9WTm0KRBcW/7NrOB4AfEo1UZc6qSqfIyhWMoycgFIhBsRPWfD9fqtELZifsRWX1yKD6+oKT14JTT181AlUV9fVKiqAafW470tU0j19EoKBK+vmEEevqlPr80iAKbRKR6+iQKg9fotmxWktIIzWumulAzPkgm92W+tHNJBG44g81dWg+lQtTOqkNJmj+IB7Q47x48vMcF6uZ3B55eSxWm8pZO9I4j3a0b5DAoa9moXmzo808tFn1YOtOqO413aYR7tD3eYorz0X0oZa6tLdSUCpbWocNpafpsrtQxIEIQiBCEIPNtsbqyPb7ri3xBWhbW4jiPqVIr2s4661A+zPLTmJCAo7bjSleKNI/eVj3LkkKSzTNIouPbbPTEIjRQhIiHJzSmBKg22PBTitRjqLabiil9folr63pnr1xTq+vqoFpX18Uev1RX19eSQuA4IHM9etyT1+iwPtA2BYnzE7VRtPcBtWF9o3LAhEK55OZSIQgELJBA55o1pceAqpRdGgFrmoXNEbd7s/L8qoIo00U/0Q0sLSzWfqStNWP2Op9dhG2qkd0dG9mjoZSZXccB68lKP/wAazanVmCMsOwtB+JxrxUakTjRu+2WqIPbQOGD2+6fyOw/khV7dV0vsUzZrI86laSWd5LmuYT2gx5xBpiAaioGSVVLFqkqIaR9Jd3WSrTN1sg/q4aPNdxdXVHImvBef7zvC2zgtltE72nNr55HtPNpdT4LVu/Ru0S4RQySfgY9/xaMFn3x1/n9T8xvX7po6Sad8UYaJZHPo6riNZxdw37lxH2+SRg1iSQ6mtvBGR5U+S3bw0dls7nNljc1zKa7TQuAIBrqg7iCt4XZH1TXg6wJFDvwdsV236S+nOZ89bXGgjJW6LMS1brIgMgsgCMItaoNU8FrqS2+yBwqPFR6aItKrLGEIQgULJG+ix1TdZBu7K7N/1WN0wHHktaqEGV05OWCxIQgVCAF17p0atVoNI4nU2kigHrig5CcxhJoASdwxKsu5+i8YG0S/4Wfn/wBqa3Xo1ZYPu4W194gE/kPBF9qnrn0MtlooREWt952A8N6m1z9GMTaGeQvPutwHmfyVgpaKNY0LvuaCEARRNbTbSp8zit8BLRCK4Ol1/myQ67I+secm5NA2udtoNwz4YlcbQbSu0WqQslDSCwu7LS0tLS0bzVp1sORXevm5HSytkY9o7Oo9j2F7HNqSMA4UIJKyXDcMVladTFzu885mlaNAHdaKmg4oOq1KlYMQEiDqXJ0f2CzUIiMrx7cx6w4bQ09gHkApQ0AYDAJUKsW2+VGdKEdLxl/ebGf9to/4qDMY6MmMfdOOs0e47a0cDWqsPpdjpbwfehYf9Tx9FB5x2VFYEqaE5A4rlXnY64hdRBbUUKoh720TCutedjoahcu0wubSowIqDvBRljJQmp8bCSABUnADeqFQpXo7oLNaBrkhkdSA73qZlu8ZitKYKe3ToBZYqFwL3bzh+vxUWRUdiuqaXuMJ4nAKX3f0by6glmcA05hpBIHh+isJ1mbHVoaAOAokui39W/qZMWPyOzFRqcxrXJojY4QHNj1zvdj8PzqpKxoAoBQbAMB5Lmlpgk1Tix3dO7guiw1RTkgWZkJOQSzwOa0uINAKk7gMygxBKuUNI7LWnWjwBPyC2oL3s7yGtlbU5A1aTyrRBtoTqJpQKEVRVIgfF3hzCE6z95vMfNCJU5QhCrCoemaEi0wvpg6EtB4seSf5x5qvZ+6fW1eiNKrhZbbO6F2Ds43+48ZHlsI3EqgLxsUkTpIZG0ewkOHEfMba7lGo5gTgmhKgclSBAKBs0YcKLFLYRJEGHMZHcVnCysKohE8BY4tcKEKa6A6LGd+u/BjfvDkcRURtOxxGJOYB3nDTvSyB+q7DWBABIqMTtG1XHdV3Ms8TYox2W+bicXOO8k1KlJGvet7Waxxh0rhG2mqxgFSaDJjBuHgFjuHSSC11EesHAB2q8UOqTQEUJ2qMabXLLaZnNLDgAYnhriCA0azKgHHWrhn4Lp6C6NOswdLLXXe1rQwkHUaMTUjaT8hxUaSa0whwoo/a4M2HA7DuKky07fYtccVRo3ZaxKw2eY9od076ZHmtq57e0P6l5q4GnPdQbVD9JZJGOY1gPWkkMpmSM/AbTkKGqjl0XrLFaOsJMhqdajiA7f2xQ05YGm5MTXpKxxN1ahvnT4lJaZG0Iz3gAU8yqcn6UpQKNa1zsgMo2cGtGfrJRW+NK7Zaa9bO7V9xp1GctVufjVVEm0su6OGcujlhYwmoa4tc5vCmJI4pt13u1tALTC791zSweBb9QVX6ETV7WKVrwCwgbaAgtPIjAraoqUuS/prM4Fjqtriw90/keIVwXPebLTC2ZmRzBza4ZtPFGpWyhKQkoorLZPvGfib8whLYx9pH+Nn8wQjPScIQhVkKFdIGjIlLLXG37SMjrB78dcTxLc+VdwU1Qg836R3T1Ttdo+zdl+6d35LjL0Lfuh0Foa4DsF2YAq08dXYeXkqN0luOWxzuglGIxa4d17Tk4HwI5gqNOZVKmVSgoHVWRhwWEFPjyQNthwruIPkVdCpW3dwq6YsQOQ+SLD0iVKoppXJtV+xxv1DVxNAGN77ycGtbuJO04DE8Ft31axFC+Q7B/wBBVEbXM6Vx9t4JcfcY/YDsq3Cu51FYlqc2m7zaescXsa3VrLNWkeo04xsdsgZ5yOFTsCry/bziLjHZ2kRDDWcKPlPvO90bm7NtSuxpHpAXxMskR+yZQvIw614/4NyaOZ3Uh1pbQqpWxWoqE6OSq0YpqEcVvdSWlszD3SD634IjIlWO87VrvaWGhI/lDnGvmEtnl1mh29A8qddFltIllhrg5uuBuLSGnzDh/lUFUx6MIibU52xsTq+LmgfXyQi0SE0hOKa5RtlsP3sf42fzBKlu772P8bfmEKs9JqhCEZCEIQCjmnOi7bdZy3ATMq6F52Ha0n3XUofA7FI0IPLFpgdG5zHtLXNJa5pwIIwIPiFhJVx9LGiHWtNthb9owfbNHtsA7/Noz4clTtFGiVWaJYQs0KBltHYdyVzWV3YYf3W/IKm7UOyeSt+7TWCI742H/QEWNsFOATGBZAitO8Yg8apFQcwVXGl1kbA2jM5XOLnbTiSRyFQPAKx7S4guJyAw8VWfSBPrWhrNjGDzcST8A1JTqfCKprrM5/ZaKmhIFaZCuayFYrQ8hpLc1WGrd0I6wa7TTI1GIrkaKTy2cQlpoDC8UOGS4tnnfLqhzQdUU1qsGGeO/wA127qtQA6iU1if3HH2SdhUWOVe90Oi7bMQ5pDTu1hktSxMIYAVNLsYGuNknxY77tx45Cq5F93I+zyahFRmx28fmELHJVn9GV2lkD5yMZTRv4WVFfFxd5BQTR253WqdsTcBm93utGZ57BxIV1wwtjY1jBRrQGtG4AUCpDiUwlD0wqNNu6/vo/xD5oS3R99H+L6JFWek1QhCMhCEIBCEIAqi+k3RD9kl66Jv9HkOAGUbziWcjiR4jZjei1b0u+O0RPhlbrMeKOHyIOwg0IO8IPLqyQ7V1NKtH5LFaHQvxGcb9j2HJ3PYRsIK5cSjRZ+6eStu4jWzQHfDH/I1VLLkeX0VsaLY2Oz/ANzH8GgIsdIBPaEoCWiK15I6kjeP0VS6dwltrdX2mtcPLV+bSrhcNu5RHT/R508YmiFZI61aM3NOJoNpGdOaqVVaQhOIRRGWjLd4JwNOGa6V3saB1bsWnLh4rGAlogl37HrRNic6r2jB5zqNnJdm6rQ21xOss/ZmZ3XbcMnA/Nc/Ryx2mWMvdEdRoqJDhrAUwAPew2hLedkcC2aI0kZiDv4FZxuVIdDWxxGSAsEcwdV9PbGxzeHAYYlSVxUMjtYtcbZozqWiLZtwzaeBUjue8ROyuThg5u0EZpKY5elmlMdiaCWF73d1owAG9ztg8ynaLX+bUHa0YY5oa7Akij9amYz7NeRC1780WfPO54dGWSNAc14cSwtFA5lDTZt3ldjR24GWdgijq5zjVzj3nuIpU7sAOQCo7dxxEzsoMqk8BQ/UhIpNddgETKZuOLjvO7kEirFrdQhCIEIQgEIQgEIQgj2m+jDLdZyzAStq6F+53un911KHwOxefJ7O+N7o3tLXtJa5pzBBxC9SKqemm6I29Va2ikj3dU+mTgGlzSeI1aV3U3BFisH5K1NDnVsVn/uwPKo+iqs5Kz9BX1sEHJw8pHD6KNR3whCEUIQkCDgX3odZrQS+hjec3MoKn95pwPPA8VHH9Gj69m0tI4sIPwJViJ7QqmIBZujMf1lpw3NZT4l30UjurRKyQULY9dw9qTtnmB3R4BdyqQlAqjt+XdqkvaOye8NxP0UhCzRWF8goGVBwJODfMoKlt0b4JOuj/wAQ3jjxXUs15CotMW371u/jTf8ARd7SXR10J1XYsf3XDEA7W8x8R4qEOhfZ3lwBLMNegwAJoCTsCyq27lgNpYJIy0N2mtaHdQKR3ddbYsa6zt5wpyGxVVo7eU9ina5jDJBIGlwacNV2NQDtFfnvVwxSBzQ4GoIBB4EVCsZ6PQhCrIQhCAQhCAQhCAQhCAUF6YLvklsTXRtLuqlEj6ZhgjkaXU2gFwrwqdinSQhB5corI6PHf0CLgZB/vPXN6SND/wBkk66Fv9HkOQ/qnn2fwnZ5bq73R4f6E3g+Qf6yfqo3EoLlzbNpBZZJOqZPG59aaocDiKkgHImgOHBcrTrXNn1BUMedWQiuAIwBIyBOfKm1RHQrRGcWhj3dmKN+uT75aOwG0zGOJ4EcgtaqVNARVVTqparas11TP9nVG92HwzXVs1wsGLyXnd3R5DH4omuHG0uNGguO4Cq6NnuWR3eIYN2Z+GC70UTWijQANwFE9GdaVmuuJns6x3ux+GS3UIRGveFiZNGY3ioPmDsI4hVtbbLLZnyWd3deMcMHtGRFcto81aK0rzuyKcASCuqatINCK50P0Usa5uKyssT3ODWipJo0BWnYoNSNjM9VrW/5QAsF3XTDD3G4nNxxd57PBbySYddaEIQqyEIQgEIQgEIQgEIQgEIQgwW+xsmjdFI0OY8armnaD8jx2KEXfonJYmOjZWaLXc9rgO20Op2XMHeodra13BT5CLKgrCDka0zpsO47ls2ayPf3GkjfkPMrNpF/5TOQ+alTMgi64lmuD/2P8G//AEfyXUs1ijj7rQOOZ8zithCJoQhCIEIQgEIQgEIQgEIQgEIQg//Z;strokeWidth=3;imageBorder=default;" vertex="1" parent="1">
          <mxGeometry x="-198.5" y="947" width="216" height="233" as="geometry" />
        </mxCell>
        <mxCell id="9pm-4QH1z8hACaXUIANB-63" style="edgeStyle=orthogonalEdgeStyle;rounded=0;orthogonalLoop=1;jettySize=auto;html=1;entryX=0.5;entryY=0;entryDx=0;entryDy=0;strokeWidth=3;" edge="1" parent="1" source="9pm-4QH1z8hACaXUIANB-64" target="9pm-4QH1z8hACaXUIANB-62">
          <mxGeometry relative="1" as="geometry" />
        </mxCell>
        <mxCell id="9pm-4QH1z8hACaXUIANB-80" style="edgeStyle=orthogonalEdgeStyle;rounded=0;orthogonalLoop=1;jettySize=auto;html=1;entryX=0.5;entryY=1;entryDx=0;entryDy=0;startArrow=classic;startFill=1;endArrow=none;endFill=0;strokeWidth=3;fillColor=#f8cecc;strokeColor=#b85450;" edge="1" parent="1" source="9pm-4QH1z8hACaXUIANB-64" target="9pm-4QH1z8hACaXUIANB-13">
          <mxGeometry relative="1" as="geometry">
            <Array as="points">
              <mxPoint x="80" y="670" />
              <mxPoint x="80" y="1230" />
              <mxPoint x="917" y="1230" />
            </Array>
          </mxGeometry>
        </mxCell>
        <mxCell id="9pm-4QH1z8hACaXUIANB-64" value="" style="shape=image;verticalLabelPosition=bottom;labelBackgroundColor=default;verticalAlign=top;aspect=fixed;imageAspect=0;image=https://elektroshoppen.dk/wp-content/uploads/2024/07/mo03001__l298n_schrittmotorendstufe_h_bruecke_dc_stepper_motor_treiber_driver_modul_.jpg;strokeWidth=3;imageBorder=default;" vertex="1" parent="1">
          <mxGeometry x="-203" y="557" width="225" height="225" as="geometry" />
        </mxCell>
        <mxCell id="9pm-4QH1z8hACaXUIANB-65" value="&lt;font style=&quot;font-size: 18px;&quot;&gt;PWM&lt;/font&gt;" style="text;html=1;align=center;verticalAlign=middle;resizable=0;points=[];autosize=1;strokeColor=none;fillColor=none;" vertex="1" parent="1">
          <mxGeometry x="-100" y="830" width="70" height="40" as="geometry" />
        </mxCell>
        <mxCell id="9pm-4QH1z8hACaXUIANB-66" value="&lt;font style=&quot;font-size: 18px;&quot;&gt;Stepper driver&lt;/font&gt;" style="text;html=1;align=center;verticalAlign=middle;resizable=0;points=[];autosize=1;strokeColor=none;fillColor=none;" vertex="1" parent="1">
          <mxGeometry x="-229" y="523" width="140" height="40" as="geometry" />
        </mxCell>
        <mxCell id="9pm-4QH1z8hACaXUIANB-67" value="&lt;font style=&quot;font-size: 18px;&quot;&gt;Stepper motor&lt;/font&gt;" style="text;html=1;align=center;verticalAlign=middle;resizable=0;points=[];autosize=1;strokeColor=none;fillColor=none;" vertex="1" parent="1">
          <mxGeometry x="-230" y="912" width="140" height="40" as="geometry" />
        </mxCell>
        <mxCell id="9pm-4QH1z8hACaXUIANB-68" value="" style="shape=image;verticalLabelPosition=bottom;labelBackgroundColor=default;verticalAlign=top;aspect=fixed;imageAspect=0;image=data:image/jpeg,/9j/4AAQSkZJRgABAQAAAQABAAD/2wCEAAkGBxITEhUSExIWFRUXFxgXFRUXFxUVFxcYFRUXGBUXFxUYHSggGB0mGxUXITEiJSkrLi4uFx8zODMtNygtLisBCgoKDg0NFRAPFSsdFx0rKysrLSstKystLSstLSstKysrLSstMC0tLSstLS0rKy0rLS0tLS0rKy0tLjctKy0rN//AABEIAOkA2AMBIgACEQEDEQH/xAAcAAABBAMBAAAAAAAAAAAAAAAAAQIGBwMEBQj/xABFEAABAwEEBgcFBQQKAwEAAAABAAIDEQQFITEGEkFRYXEHEyIygZHwQlKhscEjM3LR4RRik7IkQ2NzgpKio8LxNFPSFf/EABcBAQEBAQAAAAAAAAAAAAAAAAABAgP/xAAeEQEBAQEAAQUBAAAAAAAAAAAAARECMQMSIUFRFP/aAAwDAQACEQMRAD8AvFCEIBCEIBCEIBCEIBCEjnACpNBtKBUKH390l3ZZah1oErx7EP2pqNhcOw083BV1f3TjO6rbJZ2RDY+U9Y/wY2jWnxcgvRzgBUmgGZKh9+9Jt2WaoNoErx7EH2pqNhcOw083Bedb80ntlr/8m0ySj3SaM/hto0eS5FUFuX704Wh9W2WzsiGx8p6x/PVFGtPi5V9e2llutLtaa1Sv4axawcmNo0eS4aEFr9HfSTPHSCV5kGTRISajcHnFp+HBXddN6R2hmuw/iac2nj+a8eMcRiMFanR3pXOCCWuqBTW1TqPbta45IvlfqFpXTeTJ4w9h/E3a07it1ECEIQCEIQCEIQCEIQCEIQCEJr3gAkkADMnADxQOQoffvSZdlmqDaBK8exD9qeWsOyPEhVzfnTjO6rbLZ2RDY+UmR/PVbRrT4uQXq5wAqcBtKiN/dJd2WWodaBK8f1cP2rq7iR2WnmQvOl+6U2y11/aLTJIPcJpH/DbRvwXGqgt6/unKd1W2SzsiGx8p6x/+RtGtPi5V1fmlNstZP7RaZJAfYLqR/wANtGfBcWqSqB+skqmVTmtJyQFUqeyDeszGAZefyKDCIzu+iyNiG0+X5p1UIrZskgjIcGNNPeFfmp1cmkjTQPGruOz9FXocuhddpANHZH4IsXlcFv1SJGHHbTJw3HerAsVpEjGvApXZuINCPMKgLjvB8LgWmrdrdh5bld+itoa+zMc01BLv5jgoV10IQqyEIQgEIQgEIQgEIWG2WlkTHySODWMaXOccg1oqT5BBx9M9KYbuszp5cTlFGDR0j6YNG4bSdgXmHSPSq2W17n2iZzwTUR1IiaK4BkeQpvz3krY0/wBLpLytTpnVbG2rYIz7DK7R7zsz4DIBRsOQZNZFVjy5LKyMnIFA1CzNh4+WPxWVsYGzzQazYych65p4g3lZ3D18kevFFNbCB62J5SIUBX180VR6/VHr81QJAUtPXzTSECoaaIRT19EHeue8aUY48irG0K0odZX0dV0Tj227v3m8R8R4KnWvopHc9461Gk47DvUWPUMEzXtD2kOa4VBGRBWRVNoDpb1DuplP2Tjgf/WTt/Cdo8d9bYaa4jEKpZhUIQiBCEIBCEIBcLTqPWu+0j+ycu6uVpW2titI/sZPgwlB5JviwmNx3Fc8Kd3lYxKwjbsUPFiLXkOGA+KLYyWSz4azhyH1Kfa58KBLPNTBaLiiMjHLYaarSCyxvog2kCm/1vTQUtfXzCKVIapEvP1xQAQD/wB/IpAEpw9fBAURT19EAo9fqgaQlqgpqBxCfFIQdyY1IfX0UErum8NcUJ7Q+Ktfo90upq2aZ3ZyiefZ3MJ3bt2WWVBWectNQaKV3Zbw8V27Qi+XptCgvR/pb1oFnmd9oMI3H2gPZJ94fHnnOlWbAhCEAhCEAtK+2a1mnbvikHmwrdWO0M1mObvaR5hB5tCjmkT9WTm0KRBcW/7NrOB4AfEo1UZc6qSqfIyhWMoycgFIhBsRPWfD9fqtELZifsRWX1yKD6+oKT14JTT181AlUV9fVKiqAafW470tU0j19EoKBK+vmEEevqlPr80iAKbRKR6+iQKg9fotmxWktIIzWumulAzPkgm92W+tHNJBG44g81dWg+lQtTOqkNJmj+IB7Q47x48vMcF6uZ3B55eSxWm8pZO9I4j3a0b5DAoa9moXmzo808tFn1YOtOqO413aYR7tD3eYorz0X0oZa6tLdSUCpbWocNpafpsrtQxIEIQiBCEIPNtsbqyPb7ri3xBWhbW4jiPqVIr2s4661A+zPLTmJCAo7bjSleKNI/eVj3LkkKSzTNIouPbbPTEIjRQhIiHJzSmBKg22PBTitRjqLabiil9folr63pnr1xTq+vqoFpX18Uev1RX19eSQuA4IHM9etyT1+iwPtA2BYnzE7VRtPcBtWF9o3LAhEK55OZSIQgELJBA55o1pceAqpRdGgFrmoXNEbd7s/L8qoIo00U/0Q0sLSzWfqStNWP2Op9dhG2qkd0dG9mjoZSZXccB68lKP/wAazanVmCMsOwtB+JxrxUakTjRu+2WqIPbQOGD2+6fyOw/khV7dV0vsUzZrI86laSWd5LmuYT2gx5xBpiAaioGSVVLFqkqIaR9Jd3WSrTN1sg/q4aPNdxdXVHImvBef7zvC2zgtltE72nNr55HtPNpdT4LVu/Ru0S4RQySfgY9/xaMFn3x1/n9T8xvX7po6Sad8UYaJZHPo6riNZxdw37lxH2+SRg1iSQ6mtvBGR5U+S3bw0dls7nNljc1zKa7TQuAIBrqg7iCt4XZH1TXg6wJFDvwdsV236S+nOZ89bXGgjJW6LMS1brIgMgsgCMItaoNU8FrqS2+yBwqPFR6aItKrLGEIQgULJG+ix1TdZBu7K7N/1WN0wHHktaqEGV05OWCxIQgVCAF17p0atVoNI4nU2kigHrig5CcxhJoASdwxKsu5+i8YG0S/4Wfn/wBqa3Xo1ZYPu4W194gE/kPBF9qnrn0MtlooREWt952A8N6m1z9GMTaGeQvPutwHmfyVgpaKNY0LvuaCEARRNbTbSp8zit8BLRCK4Ol1/myQ67I+secm5NA2udtoNwz4YlcbQbSu0WqQslDSCwu7LS0tLS0bzVp1sORXevm5HSytkY9o7Oo9j2F7HNqSMA4UIJKyXDcMVladTFzu885mlaNAHdaKmg4oOq1KlYMQEiDqXJ0f2CzUIiMrx7cx6w4bQ09gHkApQ0AYDAJUKsW2+VGdKEdLxl/ebGf9to/4qDMY6MmMfdOOs0e47a0cDWqsPpdjpbwfehYf9Tx9FB5x2VFYEqaE5A4rlXnY64hdRBbUUKoh720TCutedjoahcu0wubSowIqDvBRljJQmp8bCSABUnADeqFQpXo7oLNaBrkhkdSA73qZlu8ZitKYKe3ToBZYqFwL3bzh+vxUWRUdiuqaXuMJ4nAKX3f0by6glmcA05hpBIHh+isJ1mbHVoaAOAokui39W/qZMWPyOzFRqcxrXJojY4QHNj1zvdj8PzqpKxoAoBQbAMB5Lmlpgk1Tix3dO7guiw1RTkgWZkJOQSzwOa0uINAKk7gMygxBKuUNI7LWnWjwBPyC2oL3s7yGtlbU5A1aTyrRBtoTqJpQKEVRVIgfF3hzCE6z95vMfNCJU5QhCrCoemaEi0wvpg6EtB4seSf5x5qvZ+6fW1eiNKrhZbbO6F2Ds43+48ZHlsI3EqgLxsUkTpIZG0ewkOHEfMba7lGo5gTgmhKgclSBAKBs0YcKLFLYRJEGHMZHcVnCysKohE8BY4tcKEKa6A6LGd+u/BjfvDkcRURtOxxGJOYB3nDTvSyB+q7DWBABIqMTtG1XHdV3Ms8TYox2W+bicXOO8k1KlJGvet7Waxxh0rhG2mqxgFSaDJjBuHgFjuHSSC11EesHAB2q8UOqTQEUJ2qMabXLLaZnNLDgAYnhriCA0azKgHHWrhn4Lp6C6NOswdLLXXe1rQwkHUaMTUjaT8hxUaSa0whwoo/a4M2HA7DuKky07fYtccVRo3ZaxKw2eY9od076ZHmtq57e0P6l5q4GnPdQbVD9JZJGOY1gPWkkMpmSM/AbTkKGqjl0XrLFaOsJMhqdajiA7f2xQ05YGm5MTXpKxxN1ahvnT4lJaZG0Iz3gAU8yqcn6UpQKNa1zsgMo2cGtGfrJRW+NK7Zaa9bO7V9xp1GctVufjVVEm0su6OGcujlhYwmoa4tc5vCmJI4pt13u1tALTC791zSweBb9QVX6ETV7WKVrwCwgbaAgtPIjAraoqUuS/prM4Fjqtriw90/keIVwXPebLTC2ZmRzBza4ZtPFGpWyhKQkoorLZPvGfib8whLYx9pH+Nn8wQjPScIQhVkKFdIGjIlLLXG37SMjrB78dcTxLc+VdwU1Qg836R3T1Ttdo+zdl+6d35LjL0Lfuh0Foa4DsF2YAq08dXYeXkqN0luOWxzuglGIxa4d17Tk4HwI5gqNOZVKmVSgoHVWRhwWEFPjyQNthwruIPkVdCpW3dwq6YsQOQ+SLD0iVKoppXJtV+xxv1DVxNAGN77ycGtbuJO04DE8Ft31axFC+Q7B/wBBVEbXM6Vx9t4JcfcY/YDsq3Cu51FYlqc2m7zaescXsa3VrLNWkeo04xsdsgZ5yOFTsCry/bziLjHZ2kRDDWcKPlPvO90bm7NtSuxpHpAXxMskR+yZQvIw614/4NyaOZ3Uh1pbQqpWxWoqE6OSq0YpqEcVvdSWlszD3SD634IjIlWO87VrvaWGhI/lDnGvmEtnl1mh29A8qddFltIllhrg5uuBuLSGnzDh/lUFUx6MIibU52xsTq+LmgfXyQi0SE0hOKa5RtlsP3sf42fzBKlu772P8bfmEKs9JqhCEZCEIQCjmnOi7bdZy3ATMq6F52Ha0n3XUofA7FI0IPLFpgdG5zHtLXNJa5pwIIwIPiFhJVx9LGiHWtNthb9owfbNHtsA7/Noz4clTtFGiVWaJYQs0KBltHYdyVzWV3YYf3W/IKm7UOyeSt+7TWCI742H/QEWNsFOATGBZAitO8Yg8apFQcwVXGl1kbA2jM5XOLnbTiSRyFQPAKx7S4guJyAw8VWfSBPrWhrNjGDzcST8A1JTqfCKprrM5/ZaKmhIFaZCuayFYrQ8hpLc1WGrd0I6wa7TTI1GIrkaKTy2cQlpoDC8UOGS4tnnfLqhzQdUU1qsGGeO/wA127qtQA6iU1if3HH2SdhUWOVe90Oi7bMQ5pDTu1hktSxMIYAVNLsYGuNknxY77tx45Cq5F93I+zyahFRmx28fmELHJVn9GV2lkD5yMZTRv4WVFfFxd5BQTR253WqdsTcBm93utGZ57BxIV1wwtjY1jBRrQGtG4AUCpDiUwlD0wqNNu6/vo/xD5oS3R99H+L6JFWek1QhCMhCEIBCEIAqi+k3RD9kl66Jv9HkOAGUbziWcjiR4jZjei1b0u+O0RPhlbrMeKOHyIOwg0IO8IPLqyQ7V1NKtH5LFaHQvxGcb9j2HJ3PYRsIK5cSjRZ+6eStu4jWzQHfDH/I1VLLkeX0VsaLY2Oz/ANzH8GgIsdIBPaEoCWiK15I6kjeP0VS6dwltrdX2mtcPLV+bSrhcNu5RHT/R508YmiFZI61aM3NOJoNpGdOaqVVaQhOIRRGWjLd4JwNOGa6V3saB1bsWnLh4rGAlogl37HrRNic6r2jB5zqNnJdm6rQ21xOss/ZmZ3XbcMnA/Nc/Ryx2mWMvdEdRoqJDhrAUwAPew2hLedkcC2aI0kZiDv4FZxuVIdDWxxGSAsEcwdV9PbGxzeHAYYlSVxUMjtYtcbZozqWiLZtwzaeBUjue8ROyuThg5u0EZpKY5elmlMdiaCWF73d1owAG9ztg8ynaLX+bUHa0YY5oa7Akij9amYz7NeRC1780WfPO54dGWSNAc14cSwtFA5lDTZt3ldjR24GWdgijq5zjVzj3nuIpU7sAOQCo7dxxEzsoMqk8BQ/UhIpNddgETKZuOLjvO7kEirFrdQhCIEIQgEIQgEIQgj2m+jDLdZyzAStq6F+53un911KHwOxefJ7O+N7o3tLXtJa5pzBBxC9SKqemm6I29Va2ikj3dU+mTgGlzSeI1aV3U3BFisH5K1NDnVsVn/uwPKo+iqs5Kz9BX1sEHJw8pHD6KNR3whCEUIQkCDgX3odZrQS+hjec3MoKn95pwPPA8VHH9Gj69m0tI4sIPwJViJ7QqmIBZujMf1lpw3NZT4l30UjurRKyQULY9dw9qTtnmB3R4BdyqQlAqjt+XdqkvaOye8NxP0UhCzRWF8goGVBwJODfMoKlt0b4JOuj/wAQ3jjxXUs15CotMW371u/jTf8ARd7SXR10J1XYsf3XDEA7W8x8R4qEOhfZ3lwBLMNegwAJoCTsCyq27lgNpYJIy0N2mtaHdQKR3ddbYsa6zt5wpyGxVVo7eU9ina5jDJBIGlwacNV2NQDtFfnvVwxSBzQ4GoIBB4EVCsZ6PQhCrIQhCAQhCAQhCAQhCAUF6YLvklsTXRtLuqlEj6ZhgjkaXU2gFwrwqdinSQhB5corI6PHf0CLgZB/vPXN6SND/wBkk66Fv9HkOQ/qnn2fwnZ5bq73R4f6E3g+Qf6yfqo3EoLlzbNpBZZJOqZPG59aaocDiKkgHImgOHBcrTrXNn1BUMedWQiuAIwBIyBOfKm1RHQrRGcWhj3dmKN+uT75aOwG0zGOJ4EcgtaqVNARVVTqparas11TP9nVG92HwzXVs1wsGLyXnd3R5DH4omuHG0uNGguO4Cq6NnuWR3eIYN2Z+GC70UTWijQANwFE9GdaVmuuJns6x3ux+GS3UIRGveFiZNGY3ioPmDsI4hVtbbLLZnyWd3deMcMHtGRFcto81aK0rzuyKcASCuqatINCK50P0Usa5uKyssT3ODWipJo0BWnYoNSNjM9VrW/5QAsF3XTDD3G4nNxxd57PBbySYddaEIQqyEIQgEIQgEIQgEIQgEIQgwW+xsmjdFI0OY8armnaD8jx2KEXfonJYmOjZWaLXc9rgO20Op2XMHeodra13BT5CLKgrCDka0zpsO47ls2ayPf3GkjfkPMrNpF/5TOQ+alTMgi64lmuD/2P8G//AEfyXUs1ijj7rQOOZ8zithCJoQhCIEIQgEIQgEIQgEIQgEIQg//Z;strokeWidth=3;imageBorder=default;" vertex="1" parent="1">
          <mxGeometry x="-548.5" y="945.5" width="216" height="233" as="geometry" />
        </mxCell>
        <mxCell id="9pm-4QH1z8hACaXUIANB-69" style="edgeStyle=orthogonalEdgeStyle;rounded=0;orthogonalLoop=1;jettySize=auto;html=1;entryX=0.5;entryY=0;entryDx=0;entryDy=0;strokeWidth=3;" edge="1" parent="1" source="9pm-4QH1z8hACaXUIANB-70" target="9pm-4QH1z8hACaXUIANB-68">
          <mxGeometry relative="1" as="geometry" />
        </mxCell>
        <mxCell id="9pm-4QH1z8hACaXUIANB-81" style="edgeStyle=orthogonalEdgeStyle;rounded=0;orthogonalLoop=1;jettySize=auto;html=1;entryX=0.5;entryY=1;entryDx=0;entryDy=0;startArrow=classic;startFill=1;endArrow=none;endFill=0;strokeWidth=3;fillColor=#f8cecc;strokeColor=#b85450;" edge="1" parent="1" source="9pm-4QH1z8hACaXUIANB-70" target="9pm-4QH1z8hACaXUIANB-13">
          <mxGeometry relative="1" as="geometry">
            <Array as="points">
              <mxPoint x="-260" y="668" />
              <mxPoint x="-260" y="1230" />
              <mxPoint x="917" y="1230" />
            </Array>
          </mxGeometry>
        </mxCell>
        <mxCell id="9pm-4QH1z8hACaXUIANB-70" value="" style="shape=image;verticalLabelPosition=bottom;labelBackgroundColor=default;verticalAlign=top;aspect=fixed;imageAspect=0;image=https://elektroshoppen.dk/wp-content/uploads/2024/07/mo03001__l298n_schrittmotorendstufe_h_bruecke_dc_stepper_motor_treiber_driver_modul_.jpg;strokeWidth=3;imageBorder=default;" vertex="1" parent="1">
          <mxGeometry x="-553" y="555.5" width="225" height="225" as="geometry" />
        </mxCell>
        <mxCell id="9pm-4QH1z8hACaXUIANB-71" value="&lt;font style=&quot;font-size: 18px;&quot;&gt;PWM&lt;/font&gt;" style="text;html=1;align=center;verticalAlign=middle;resizable=0;points=[];autosize=1;strokeColor=none;fillColor=none;" vertex="1" parent="1">
          <mxGeometry x="-450" y="828.5" width="70" height="40" as="geometry" />
        </mxCell>
        <mxCell id="9pm-4QH1z8hACaXUIANB-72" value="&lt;font style=&quot;font-size: 18px;&quot;&gt;Stepper driver&lt;/font&gt;" style="text;html=1;align=center;verticalAlign=middle;resizable=0;points=[];autosize=1;strokeColor=none;fillColor=none;" vertex="1" parent="1">
          <mxGeometry x="-579" y="521.5" width="140" height="40" as="geometry" />
        </mxCell>
        <mxCell id="9pm-4QH1z8hACaXUIANB-73" value="&lt;font style=&quot;font-size: 18px;&quot;&gt;Stepper motor&lt;/font&gt;" style="text;html=1;align=center;verticalAlign=middle;resizable=0;points=[];autosize=1;strokeColor=none;fillColor=none;" vertex="1" parent="1">
          <mxGeometry x="-580" y="910.5" width="140" height="40" as="geometry" />
        </mxCell>
        <mxCell id="9pm-4QH1z8hACaXUIANB-74" value="" style="shape=image;verticalLabelPosition=bottom;labelBackgroundColor=default;verticalAlign=top;aspect=fixed;imageAspect=0;image=https://m.media-amazon.com/images/I/51H3lE6BcuL.jpg;strokeWidth=3;imageBorder=default;clipPath=inset(24% 23.67% 24% 20.67%);" vertex="1" parent="1">
          <mxGeometry x="-928.5" y="944" width="216" height="201.77245508982037" as="geometry" />
        </mxCell>
        <mxCell id="9pm-4QH1z8hACaXUIANB-75" style="edgeStyle=orthogonalEdgeStyle;rounded=0;orthogonalLoop=1;jettySize=auto;html=1;entryX=0.5;entryY=0;entryDx=0;entryDy=0;strokeWidth=3;" edge="1" parent="1" source="9pm-4QH1z8hACaXUIANB-76" target="9pm-4QH1z8hACaXUIANB-74">
          <mxGeometry relative="1" as="geometry" />
        </mxCell>
        <mxCell id="9pm-4QH1z8hACaXUIANB-76" value="" style="shape=image;verticalLabelPosition=bottom;labelBackgroundColor=default;verticalAlign=top;aspect=fixed;imageAspect=0;image=https://einstronic.com/wp-content/uploads/2021/05/ULN2003-Stepper-Motor-Driver-Module-1.jpg;strokeWidth=3;imageBorder=default;" vertex="1" parent="1">
          <mxGeometry x="-933" y="554" width="225" height="225" as="geometry" />
        </mxCell>
        <mxCell id="9pm-4QH1z8hACaXUIANB-77" value="&lt;font style=&quot;font-size: 18px;&quot;&gt;PWM&lt;/font&gt;" style="text;html=1;align=center;verticalAlign=middle;resizable=0;points=[];autosize=1;strokeColor=none;fillColor=none;" vertex="1" parent="1">
          <mxGeometry x="-830" y="827" width="70" height="40" as="geometry" />
        </mxCell>
        <mxCell id="9pm-4QH1z8hACaXUIANB-78" value="&lt;font style=&quot;font-size: 18px;&quot;&gt;Stepper driver&lt;/font&gt;" style="text;html=1;align=center;verticalAlign=middle;resizable=0;points=[];autosize=1;strokeColor=none;fillColor=none;" vertex="1" parent="1">
          <mxGeometry x="-959" y="520" width="140" height="40" as="geometry" />
        </mxCell>
        <mxCell id="9pm-4QH1z8hACaXUIANB-79" value="&lt;font style=&quot;font-size: 18px;&quot;&gt;Stepper motor&lt;/font&gt;" style="text;html=1;align=center;verticalAlign=middle;resizable=0;points=[];autosize=1;strokeColor=none;fillColor=none;" vertex="1" parent="1">
          <mxGeometry x="-960" y="909" width="140" height="40" as="geometry" />
        </mxCell>
        <mxCell id="9pm-4QH1z8hACaXUIANB-85" style="edgeStyle=orthogonalEdgeStyle;rounded=0;orthogonalLoop=1;jettySize=auto;html=1;entryX=0;entryY=0.5;entryDx=0;entryDy=0;strokeWidth=3;fillColor=#f8cecc;strokeColor=#b85450;" edge="1" parent="1" source="9pm-4QH1z8hACaXUIANB-82" target="9pm-4QH1z8hACaXUIANB-76">
          <mxGeometry relative="1" as="geometry">
            <Array as="points">
              <mxPoint x="-1010" y="-627" />
              <mxPoint x="-1010" y="667" />
            </Array>
          </mxGeometry>
        </mxCell>
        <mxCell id="9pm-4QH1z8hACaXUIANB-82" value="" style="shape=image;verticalLabelPosition=bottom;labelBackgroundColor=default;verticalAlign=top;aspect=fixed;imageAspect=0;image=data:image/jpeg,/9j/4AAQSkZJRgABAQAAAQABAAD/2wCEAAkGBxMSEhISEhIWFhMXFxcTFRcUFRYdGBIVHRgWFhcSFRgYKCghGB0lGxUYITIiJSkrOi8vGB8zODMtNygtLisBCgoKDg0OGhAQGy0lHyUvLS0tLSstLS0tLS02LS8tLS0tLS0uLS0tLS0tLS0tLS0tLS0tLS0rLS0tLS0tLS0tLf/AABEIAMIBAwMBIgACEQEDEQH/xAAcAAEAAgMBAQEAAAAAAAAAAAAABQYDBAcCAQj/xABHEAACAQIDBAcDCAcFCQEAAAABAgADEQQSIQUGEzEiQVFhcZGhMlKBBxQWI0KSsdFUY3KissHSFVNigvAkM0Nzk6PC4fEI/8QAGQEBAAMBAQAAAAAAAAAAAAAAAAECAwQF/8QAKBEBAAMAAgEEAQIHAAAAAAAAAAECEQMhMQQSIkETYaEFFDJRUnGR/9oADAMBAAIRAxEAPwDuMREBERAREQEREBERAREQEREBERAREQEREBERAREQEREBERAREQEREBERAREQEREBERAREQEREBERAREQEREBERAREQEREBERAREQEREBERAREQEREBERAREQEREBERAREQEREBERAREQEREBExPiFByk62vbuva/mJkBkRMSPsREkIiICIiAiIgIiICIiAiIgIiICIiAiIgIiICIiAiIgIiICIiAiIgcvxvyg0kxDUXBADsBVXXLpbVOZOmXsPrNBd6sU3S4zKDqANAoPUAZVtu/NxiHNSqoYszWOv2m6x3g+U9ptbDgW4q93P8AnPZ9N/DuLh20dzMfbzub1N+TK5n+lqXeTFfpD+kHenFdVd/3fylaG2cP/fJ5wu1cP/fU/MTpnip/jH/IYVtfvZn93RNxdt16+IZKtQsvCZgDl5hqYvoOxjL5OX/JriEfEkowYGm4upuOaG06hPI9bWI5eo+noemmZp2RETkdBERAREQEREBERAREQEREBETHVJ1t1C+vInqBPwgYP7RpZsoq0818ts63v2W53n2ji1clUqISpswGpU9hF7iQ9PDOLXToC7lWchAR0hb61gBmA0y28JhoUc1VWqDO6XZsxN6NgSGCiowvewsF1vI1Kx8Qjny7R+UyAysbK2cS6l1rWDlwG4XCB551QhWXUe5ob253mtvVtHF0a1NcNRq1ksXqCkad0GoAswJ1Ounu8pEzkGLjE5ltLbmJbD/O6FeoihzTelUy8SmfZuwKgoQ/RK68xrzArj704y5/2mp5zTNiJhXe8dwicN+lOM/San3p9+lOM/San3pGGu4xOHDerGfpFT7xlk2NtbGvRzDEMxYEABQzplxKIz2CkkZCwvY2seyTFd+0TbHTYnLtvbz4mk4SmcYQMyl2oKodtMrAuoFufZ1TIN6a75ytSrTNmCioaRU/VMFYBQSp4hXQk8jyiK6TbHDduv8A7RX/AObU/jaR7VSbAkkDlry8OyWHaW7lY1qrZqXSqOwvUF7FiQSBMNHdSq3Krh/+o3los67cm/bKKoINPYaWI7k1R7VegOy7PbzyyL2nsSthwDUUFOWdDdb9l+Y+IF4reJJrLpH/AOfcPmxeIqe5Ryjxd1N/3D6zuzuBz/8AvcO2fnb5I9oNROJK1OHn4K3GW5AqDMBmBF8rtO4UaN8O7O5q5lchqhQXTUqCVAUAgAnTxvaY+on5avx+MS/E7j8Z9D90gThgt9AVKm5HBy2D07nLlAJAuekDa1gelPdEOKZKs4PRYEtnt7XQCjKL2t0eWonNrVOg3n2R+ADZSzMWa99VK9Q6IU8h2fidZvq1wCOR1kwh9iIkhERAREQEREBERASH27XdNFVWVhYhgTe3MWBF9Dy/KTEj9t0s1In3SD/KRIr9Tab2P1VLUWOVWBN9bXBvPB2qcutJbDMPaa9nYMx1Jvcganr065p4iodeR8Qb/EqRf4zReqdeQ+8fxMp2t0lqe3sjcTgDNZrsalswJF2drf4dO4aDlNXYe9PFxtd+iFNOyh3CqArDUk/tHq65XNpuSLX07By8hpKrVxi06gLi663ubaWOt+q3OWr3PaLeOl43r2ulUPTXKzvUBq1UWwdQwFOmCdbABSeq467ymWkliqlMgvTUKjEOgFuVs49JpcIgC5XUX0J7WFrkC/s3vpzE6L1ivUMq2me5Y8v+vKMs9Zf9ek9SizHaadFafGrXL5r9QFtGqaepPxm/b8JpYKiDXrm50qEjT9ZUBHpNeH+pTk8N/a+KZadFCzqjDJnUXZBcsE09i5J+JmLY2zmcEo1Th8s1RyzN+yDe3nN3abE02Xqsq/5i4UE/Br+Ik9g8MEQBRyFh4dUytPa8eEQ27tA61EVj+s6XodB8Jhq7Ao3/ANzTB7VABHgRykolAkschGpB11Y+8Li2vZefGw45FGPdZPxFvxldlKsY7YZGqWqWFuHWAYHuDe0D4mZNhUDVp1abUeFRKlQhN9eTFewXtbw+MtNaiDc9YHPtkevRObl9rl35WFu+4PlLRKJV7cajTGGqM4Fxx82a2hWirAi/LpAgTpexd4qj4OlkKMEQUqystyDyDW90jTu+M51tQLh8PWXrZ6h07GqEfwn0mLdzalSmwam1m5eI7DL+qnZhXhjy6x/b1QtcrSJ5XyOL2II1Ddqg69k312kw14KjlqrMo5lr6gjmx8+uVjC4gMobJY/4Gy+hBHlabCVO5/vL+Ov4Tj2W+J7DbwqhsKJsbCwe9z73SAJJvqSeqWXB+wvhfwvraUnZmHDVFFuZAPWbddz+QEvkvTVZIiJdBERAREQEREBERATxWUFWB5EEHwnuVr5R8a1HZ+IZCQxyUwQSCMzqp1HLokwKzWxQIDA6EBh4EAj0MjqmIlOwG8IpqKddioXRKoBIVfcqDnYX0I5cuWslBXzDMlWk6nrDrb8ZSYWhtY/EdEyp4iqAKtZh0AOEv+Ko/RyjtsuZvBTNraGOoofra2f9XRszHuJ5D4keBle2ttF8QNVFOmilaVNTohNgSSfbc9bd2gHKWrCJWDb1VqGApFWysDTW+nXTKsNe64kBjhj6K4Yu5HzkA0tUuQclri2ntr5yzb80M2zyR1OrW7gQv/n6TU3x2k7tsYk9GmEyns1oH8FE05J+SlI6RdfA7RXFpgjUtWcZgLra1mbU27EM+bOwW0K1fEUKdS9ShfidJbCzZTY211/CTWO25U/t2jiSekEsO4cKqtvUz7uZtSom0NqMrdKqahJ/aqM1/UTP3SviuYMY6rha2LWoTSpHK+oBBsp0AHY4k3uZVNVWdzdjqx01bPUN9O281N3cY42Jj6Knos4Zh4CiT6LNz5NsL9TWqE6ZrKO32bk93Sm3FPy1nyR8U9jhddPtAgftq2eny7cjjykts3aC1EBBty+HdITaj8PDkAjTJZjqVuwOfxHb3yIHHovnp5XptzGZbX5m2v8AMSs9pheq2GDdbDwY/hymClgApOpN9evT1kJhd51QWqpUT4Fl+BGvpNtN6KB5MSewI/5fjKpTHD09JC4pgW4am7EhfC5zH91fUTS2lt5yCKdlv1vzA/ZF/MyJwBs1Ph1DUrZ85Kg5QD7WYnqtcWkxAb9FSy9tmC91ypNvHSRu7tTUazY38UCooDa9MntBJQjy/KRGxsQMwGZUe/JtFf8AZPUT2eV5F+01dX2diOiJvpiJU8Ni3AAKH0mXEbZ4Qu9kB5Fjqe5FGrHuEwxd0zdKjmqF+pR6m4HpeW2co+Sbbz1sXWVtFeldQeY4bDLqNOVVybTq81iMhSSIiSEREBERAREQEREBK/v/AEFqbPxSPyZLAgXIbMMhAuL2ax5jlLBIPe3B1K9EUaVszMCbmwyrcn1yyYze0T4fmSvssKLt86A7Th1A8NakldkboJUo8VqjLmJ4elrJcgOwAbMdL5Qw8ddOlY/5OsU1LIrU7ixu1V9f2uib8+XhOaYrdypnamWTOK4wtrtrUJIuCFtlFjc93Llfq/FS8fGe2fvtHmEPi9m0qLtTqNVzjnw6aWsQCL5mvex5Td2bsSlVpmqlRlAcIprtSpqXGViObE9E307Z7q7v4hNBSZjlY2pqzWAZ0BNhyJQkHrFjJjcyklbgYdqTMqmviHJU5HJ4NNACpubANfxEi9K8dfd5wrabTifo4d3w9S9WkR0rlQtTLmzEEX8D5TV3l3fdKGzaiOxaqtMupCHKrHDg9WhvVPsgchJd62Z8ZSuQOJSpjU2UDDqSq3JIN6nK+luU+4mu5FFajE8NcqWGUIqtTy37fZQ687dhmF590RZau1mYR20N0im16GDR3NBqatUbo3FRhiGUX58qI5dnfPWwN2GqbRxVBqlQUKavkbQXZaqo1j18/Wb2Jx7cT5wzniqbhrjokKyA29n2ajdX2u20xYGviAGrUauSo+c1DUolwyu5bOACtrshsb20I6pSK70tNs7Qewdk1TsjF42tVqB6aiooDKAyMqFToNOd5v7Po4ilTKVapezLqTo13C2tzFhr4mbNPDslD5rTq2wzBBVRqWZ3CBQMr6ZbhRfQ9czVlBLNrdihOj/ZNxYG4XvtznTxUmu7DG99zFb2rjjSxRRlzU2p02seak0kBKnvy6g3BmKk2HBvw27eS+lyQPgJr73m2LU/qqP8HOYqVQTK3UtY8N9qlPUojr29ID+G08CqOsMe0cQ29b/hNfiTwaspqUnSxyKthQX4s3pa1vhPDbVZb8NFQnS4zFvgWJt5SOFWatbFAHU6dcaI7eKkw4T36ThmJ6z02UXPWbqZGrh6rX6JPb3ec6fhMLTGFOIIc1RRRKBVScrHi12JJBVbjo3bTnrrJ0/JFiqq8WrjwmIPS4a0s1JL/wDDvcE9hNvhLWmPBDl+B2JjbIEqZMwBUGta4PabZVI1BDEEWOnbENSrioQUqNU67hmY2JHja4PlL6myalLEnD4tVXEUmGW3+7qhlur0jYHKwBBv2EWBBEl9292jiqdKoGSmBTRENRySqo1IjOQoBbPROoI9o6SKZ5ktP9nz5B3dsZW4oIyUiqAgAhiy5gRzvYes7rOf7v7rnA1qNVWpGm9QqeHe93VgDmI1F7Dn2ToEWzekV37IiJVYiIgIiICIiAiIgJHbQa7MocI/CYKxI6LObBtedikkZDba3ep4l1diQQMugGovcc+WpMiw1tk4SlROc19cpV81VSGbonNbqtY+c4/tenVao70nWxrPiALJmFRiTmzEXPPledZ+g9DTpv5Lr6T4dxcPr0n8k09Jrw8n496U5Ke77cIr7Nr1MgfpZFFNbkdFBchR3C5l62BsmjwqQrVLZaDouR6eZKr1XZmIYj7OUfEy9ncDDe848OH/AEz2u4uH95z48PXv9ma8vqPyV9uK04vbO6pe0tnUihoYatwxUqq5d3Bym1EMzkXFjla4vrr2yh7Y2pWo1qlM4gnKx1Uggg6g3W45HtnchuRh7AZn/wC3/TPv0Iw/vVL9v1f9P4znmeohpEPz423arAg1nIOhBvr6SxbtYBiKOKaupAeqvDzXchhzyryUFdL21c9s7GNzMP2v49DT92ehudQ06VTzT+mK2yYnCY2MUD5wvafun8p4OIXtP3W/KdCG51D3qnmnlos9/RGhrq/mungQJv8AzH6fux/B+rhe+OEpVqwqCu1NgiJbgu3sgDq5yv1VZB0awYkgANRqLzI1JJsNNfhP0od06HvP5r+U8Pubhzoc5HYSpv36iZ2vFvprWsx9uF4JsIUHFZw9hmstwWtrlIqrpfuHhM4q4EZSc5NrEcNbdXbW1PfO1ruThPdJ+7/IR9CMJ1Kw+I/KYZK+vzztnhtlOHJp8y5dlJPcEDNa2vWSeq2t9OnsdKpAOMvfS3ArflafpAbjYTqU6ctV09Jm+h2F0urHxbn46TSk+3yrbZc2weMWlSFP20ZctRSjWsAuU2PO1m06wxGl7if2dvpVoUaaGpRxBHDp5mc03A0Uu4a5YDmeuw+2dZZ/oXhexvgw19J9G5eF91/vmTeYnxCKxMOb7f2yz1XxL1KFSrkWnSSkT9VlLm5YmzLdr66k8tD0ZfcKjhfmKUsRVRWV26LOVuMxcciD9s6jrHXaXL6G4T3G+9PP0JwfuN94yNj2e3DJ9260OLh6NGqKeJR/rUrU04gJTKyNlB5n2T/75m5SvDc3Ci1gw/zXv3G8sMpCxERLBERAREQEREBERAREQEREBERAREQEREBERAREQEREBERAREQEREBERAREQEREBERAREQEREBERAREQEREBERAREQEREBERAREQEREBERAREQEREBERAREQEREBERAREQEREBERAREQEREBERAREQEREBERAREQEREBERAREQEREBERAREQEREBERAREQEREBERAREQEREBERAREQEREBERAREQEREBERAREQEREBERA//2Q==;imageBorder=default;strokeWidth=3;" vertex="1" parent="1">
          <mxGeometry x="770" y="-724.3299999999999" width="259" height="194" as="geometry" />
        </mxCell>
        <mxCell id="9pm-4QH1z8hACaXUIANB-83" value="&lt;span style=&quot;font-size: 18px;&quot;&gt;Step-down converter&lt;/span&gt;" style="text;html=1;align=center;verticalAlign=middle;resizable=0;points=[];autosize=1;strokeColor=none;fillColor=none;" vertex="1" parent="1">
          <mxGeometry x="795" y="-760" width="190" height="40" as="geometry" />
        </mxCell>
        <mxCell id="9pm-4QH1z8hACaXUIANB-86" value="&lt;font style=&quot;font-size: 18px;&quot;&gt;5V&lt;/font&gt;" style="text;html=1;align=center;verticalAlign=middle;resizable=0;points=[];autosize=1;strokeColor=none;fillColor=none;" vertex="1" parent="1">
          <mxGeometry x="-1015" y="413" width="50" height="40" as="geometry" />
        </mxCell>
        <mxCell id="9pm-4QH1z8hACaXUIANB-90" value="&lt;font style=&quot;font-size: 18px;&quot;&gt;PWM Output&lt;/font&gt;" style="text;html=1;align=center;verticalAlign=middle;resizable=0;points=[];autosize=1;strokeColor=none;fillColor=none;" vertex="1" parent="1">
          <mxGeometry x="65" y="313" width="130" height="40" as="geometry" />
        </mxCell>
        <mxCell id="9pm-4QH1z8hACaXUIANB-97" value="&lt;span style=&quot;font-size: 30px;&quot;&gt;Palleløfter-modul&lt;/span&gt;" style="text;html=1;align=center;verticalAlign=middle;resizable=0;points=[];autosize=1;strokeColor=none;fillColor=none;" vertex="1" parent="1">
          <mxGeometry x="-815" y="240" width="250" height="50" as="geometry" />
        </mxCell>
        <mxCell id="9pm-4QH1z8hACaXUIANB-100" value="&lt;span style=&quot;font-size: 30px;&quot;&gt;Transportbånd-modul&lt;/span&gt;" style="text;html=1;align=center;verticalAlign=middle;resizable=0;points=[];autosize=1;strokeColor=none;fillColor=none;" vertex="1" parent="1">
          <mxGeometry x="-225" y="240" width="310" height="50" as="geometry" />
        </mxCell>
        <mxCell id="9pm-4QH1z8hACaXUIANB-103" value="&lt;span style=&quot;font-size: 30px;&quot;&gt;Køre-modul&lt;/span&gt;" style="text;html=1;align=center;verticalAlign=middle;resizable=0;points=[];autosize=1;strokeColor=none;fillColor=none;" vertex="1" parent="1">
          <mxGeometry x="380" y="1260" width="180" height="50" as="geometry" />
        </mxCell>
        <mxCell id="9pm-4QH1z8hACaXUIANB-107" value="&lt;span style=&quot;font-size: 30px;&quot;&gt;Styre system&lt;/span&gt;" style="text;html=1;align=center;verticalAlign=middle;resizable=0;points=[];autosize=1;strokeColor=none;fillColor=none;" vertex="1" parent="1">
          <mxGeometry x="-445" y="130" width="200" height="50" as="geometry" />
        </mxCell>
        <mxCell id="9pm-4QH1z8hACaXUIANB-110" value="&lt;span style=&quot;font-size: 30px;&quot;&gt;Kontrol system&lt;/span&gt;" style="text;html=1;align=center;verticalAlign=middle;resizable=0;points=[];autosize=1;strokeColor=none;fillColor=none;" vertex="1" parent="1">
          <mxGeometry x="170" y="-590" width="220" height="50" as="geometry" />
        </mxCell>
      </root>
    </mxGraphModel>
  </diagram>
</mxfile>
